SplineFontDB: 3.2
FontName: TDATextCondensed
FullName: TDAText Condensed
FamilyName: TDAText Condensed
Weight: Regular
Copyright: Copyright (c) 2024-2025 Dmitry Tretyakov\n\nBased on Philips SAA52XX/SAA55XX/TDA93XX IC character set:\nCopyright (c) 1985-2001 NXP Semiconductors N.V.
Version: 0.1.4.20251022-1400
ItalicAngle: 0
UnderlinePosition: -100
UnderlineWidth: 50
Ascent: 800
Descent: 200
InvalidEm: 0
LayerCount: 2
Layer: 0 1 "+BBcEMAQ0BD0EOAQ5 +BD8EOwQwBD0A" 1
Layer: 1 1 "+BB8ENQRABDUENAQ9BDgEOQAA +BD8EOwQwBD0A" 0
XUID: [1021 189 -1959298516 7444281]
StyleMap: 0x0000
FSType: 0
OS2Version: 4
OS2_WeightWidthSlopeOnly: 0
OS2_UseTypoMetrics: 1
CreationTime: 1720191932
ModificationTime: 1761133252
PfmFamily: 17
TTFWeight: 400
TTFWidth: 5
LineGap: 90
VLineGap: 0
Panose: 2 0 5 3 0 0 0 0 0 0
OS2TypoAscent: 800
OS2TypoAOffset: 0
OS2TypoDescent: -200
OS2TypoDOffset: 0
OS2TypoLinegap: 90
OS2WinAscent: 800
OS2WinAOffset: 0
OS2WinDescent: 200
OS2WinDOffset: 0
HheadAscent: 800
HheadAOffset: 0
HheadDescent: -200
HheadDOffset: 0
OS2SubXSize: 650
OS2SubYSize: 700
OS2SubXOff: 0
OS2SubYOff: 140
OS2SupXSize: 650
OS2SupYSize: 700
OS2SupXOff: 0
OS2SupYOff: 480
OS2StrikeYSize: 49
OS2StrikeYPos: 258
OS2CapHeight: 700
OS2XHeight: 500
OS2Vendor: 'PfEd'
OS2CodePages: 00000004.c2960000
OS2UnicodeRanges: 8000028f.1200f8ea.00000020.00000000
MarkAttachClasses: 1
DEI: 91125
ShortTable: maxp 16
  1
  0
  604
  240
  60
  0
  0
  2
  0
  1
  1
  0
  64
  0
  0
  0
EndShort

StartChar: exclam
Encoding: 33 33 4
Width: 600
GlyphClass: 2
Flags: W
LayerCount: 2
Back
Fore
SplineSet
262 700 m 1,0,-1
 338 700 l 1,1,-1
 338 200 l 1,2,-1
 262 200 l 1,3,-1
 262 700 l 1,0,-1
338 0 m 1,4,-1
 262 0 l 1,5,-1
 262 100 l 1,6,-1
 338 100 l 1,7,-1
 338 0 l 1,4,-1
EndSplineSet
Validated: 1
EndChar

StartChar: quotedbl
Encoding: 34 34 5
Width: 600
GlyphClass: 2
Flags: W
LayerCount: 2
Back
Fore
SplineSet
338 500 m 1,0,-1
 338 700 l 1,1,-1
 412 700 l 1,2,-1
 412 500 l 1,3,-1
 338 500 l 1,0,-1
188 500 m 1,4,-1
 188 700 l 1,5,-1
 262 700 l 1,6,-1
 262 500 l 1,7,-1
 188 500 l 1,4,-1
EndSplineSet
Validated: 1
EndChar

StartChar: numbersign
Encoding: 35 35 6
Width: 600
GlyphClass: 2
Flags: W
LayerCount: 2
Back
Fore
SplineSet
262 300 m 1,0,-1
 338 300 l 1,1,-1
 338 400 l 1,2,-1
 262 400 l 1,3,-1
 262 300 l 1,0,-1
188 700 m 1,4,-1
 262 700 l 1,5,-1
 262 500 l 1,6,-1
 338 500 l 1,7,-1
 338 700 l 1,8,-1
 412 700 l 1,9,-1
 412 500 l 1,10,-1
 488 500 l 1,11,-1
 488 400 l 1,12,-1
 412 400 l 1,13,-1
 412 300 l 1,14,-1
 488 300 l 1,15,-1
 488 200 l 1,16,-1
 412 200 l 1,17,-1
 412 0 l 1,18,-1
 338 0 l 1,19,-1
 338 200 l 1,20,-1
 262 200 l 1,21,-1
 262 0 l 1,22,-1
 188 0 l 1,23,-1
 188 200 l 1,24,-1
 112 200 l 1,25,-1
 112 300 l 1,26,-1
 188 300 l 1,27,-1
 188 400 l 1,28,-1
 112 400 l 1,29,-1
 112 500 l 1,30,-1
 188 500 l 1,31,-1
 188 700 l 1,4,-1
EndSplineSet
Validated: 1
EndChar

StartChar: dollar
Encoding: 36 36 7
Width: 600
GlyphClass: 2
Flags: W
LayerCount: 2
Back
Fore
SplineSet
412 100 m 1,0,-1
 412 300 l 1,1,-1
 338 300 l 1,2,-1
 338 100 l 1,3,-1
 412 100 l 1,0,-1
262 600 m 1,4,-1
 188 600 l 1,5,-1
 188 400 l 1,6,-1
 262 400 l 1,7,-1
 262 600 l 1,4,-1
338 800 m 1,8,-1
 338 700 l 1,9,-1
 450 700 l 1,10,-1
 450 600 l 1,11,-1
 488 600 l 1,12,-1
 488 500 l 1,13,-1
 412 500 l 1,14,-1
 412 600 l 1,15,-1
 338 600 l 1,16,-1
 338 400 l 1,17,-1
 450 400 l 1,18,-1
 450 300 l 1,19,-1
 488 300 l 1,20,-1
 488 100 l 1,21,-1
 450 100 l 1,22,-1
 450 0 l 1,23,-1
 338 0 l 1,24,-1
 338 -100 l 1,25,-1
 262 -100 l 1,26,-1
 262 0 l 1,27,-1
 150 0 l 1,28,-1
 150 100 l 1,29,-1
 112 100 l 1,30,-1
 112 200 l 1,31,-1
 188 200 l 1,32,-1
 188 100 l 1,33,-1
 262 100 l 1,34,-1
 262 300 l 1,35,-1
 150 300 l 1,36,-1
 150 400 l 1,37,-1
 112 400 l 1,38,-1
 112 600 l 1,39,-1
 150 600 l 1,40,-1
 150 700 l 1,41,-1
 262 700 l 1,42,-1
 262 800 l 1,43,-1
 338 800 l 1,8,-1
EndSplineSet
Validated: 1
EndChar

StartChar: percent
Encoding: 37 37 8
Width: 600
GlyphClass: 2
Flags: W
LayerCount: 2
Back
Fore
SplineSet
375 700 m 1,0,-1
 450 700 l 1,1,-1
 450 600 l 1,2,-1
 412 600 l 1,3,-1
 412 500 l 1,4,-1
 375 500 l 1,5,-1
 375 400 l 1,6,7
 375 400 375 400 338 400 c 1,8,-1
 338 300 l 1,9,-1
 300 300 l 1,10,-1
 300 200 l 1,11,-1
 262 200 l 1,12,-1
 262 100 l 1,13,-1
 225 100 l 1,14,-1
 225 0 l 1,15,-1
 150 0 l 1,16,-1
 150 100 l 1,17,-1
 188 100 l 1,18,-1
 188 200 l 1,19,-1
 225 200 l 1,20,-1
 225 300 l 1,21,22
 225 300 225 300 262 300 c 1,23,-1
 262 400 l 1,24,-1
 300 400 l 1,25,-1
 300 500 l 1,26,-1
 338 500 l 1,27,-1
 338 600 l 1,28,-1
 375 600 l 1,29,-1
 375 700 l 1,0,-1
412 100 m 1,30,-1
 450 100 l 1,31,-1
 450 200 l 1,32,-1
 412 200 l 1,33,-1
 412 100 l 1,30,-1
375 300 m 1,34,35
 375 300 375 300 488 300 c 1,36,-1
 488 200 l 1,37,-1
 525 200 l 1,38,-1
 525 100 l 1,39,40
 525 100 525 100 488 100 c 1,41,-1
 488 0 l 1,42,-1
 375 0 l 1,43,-1
 375 100 l 1,44,45
 375 100 375 100 338 100 c 1,46,-1
 338 200 l 1,47,-1
 375 200 l 1,48,-1
 375 300 l 1,34,35
150 600 m 1,49,-1
 150 500 l 1,50,-1
 188 500 l 1,51,-1
 188 600 l 1,52,-1
 150 600 l 1,49,-1
75 600 m 1,53,54
 75 600 75 600 112 600 c 1,55,-1
 112 700 l 1,56,-1
 225 700 l 1,57,-1
 225 600 l 1,58,59
 225 600 225 600 262 600 c 1,60,-1
 262 500 l 1,61,-1
 225 500 l 1,62,-1
 225 400 l 1,63,64
 225 400 225 400 112 400 c 1,65,-1
 112 500 l 1,66,-1
 75 500 l 1,67,-1
 75 600 l 1,53,54
EndSplineSet
Validated: 1
EndChar

StartChar: ampersand
Encoding: 38 38 9
Width: 600
GlyphClass: 2
Flags: W
LayerCount: 2
Back
Fore
SplineSet
231 300 m 1,0,-1
 231 200 l 1,1,-1
 194 200 l 1,2,-1
 194 100 l 1,3,-1
 344 100 l 1,4,-1
 344 200 l 1,5,-1
 306 200 l 1,6,-1
 306 300 l 1,7,-1
 231 300 l 1,0,-1
231 600 m 1,8,-1
 231 400 l 1,9,-1
 306 400 l 1,10,-1
 306 600 l 1,11,-1
 231 600 l 1,8,-1
194 700 m 1,12,-1
 344 700 l 1,13,-1
 344 600 l 1,14,-1
 381 600 l 1,15,-1
 381 400 l 1,16,-1
 344 400 l 1,17,-1
 344 300 l 1,18,-1
 381 300 l 1,19,-1
 381 200 l 1,20,-1
 419 200 l 1,21,-1
 419 300 l 1,22,-1
 494 300 l 1,23,-1
 494 200 l 1,24,-1
 456 200 l 1,25,-1
 456 100 l 1,26,-1
 531 100 l 1,27,-1
 531 0 l 1,28,-1
 419 0 l 1,29,-1
 419 100 l 1,30,-1
 381 100 l 1,31,-1
 381 0 l 1,32,-1
 156 0 l 1,33,-1
 156 100 l 1,34,-1
 119 100 l 1,35,-1
 119 200 l 1,36,-1
 156 200 l 1,37,-1
 156 300 l 1,38,-1
 194 300 l 1,39,-1
 194 400 l 1,40,-1
 156 400 l 1,41,-1
 156 600 l 1,42,-1
 194 600 l 1,43,-1
 194 700 l 1,12,-1
EndSplineSet
Validated: 1
EndChar

StartChar: quotesingle
Encoding: 39 39 10
Width: 600
GlyphClass: 2
Flags: W
LayerCount: 2
Back
Fore
SplineSet
262 700 m 1,0,-1
 338 700 l 1,1,-1
 338 500 l 1,2,-1
 262 500 l 1,3,-1
 262 700 l 1,0,-1
EndSplineSet
Validated: 1
EndChar

StartChar: parenleft
Encoding: 40 40 11
Width: 600
GlyphClass: 2
Flags: W
LayerCount: 2
Back
Fore
SplineSet
256 600 m 1,0,-1
 256 700 l 1,1,-1
 369 700 l 1,2,-1
 369 600 l 1,3,-1
 294 600 l 1,4,-1
 294 500 l 1,5,-1
 256 500 l 1,6,-1
 256 200 l 1,7,-1
 294 200 l 1,8,-1
 294 100 l 1,9,-1
 369 100 l 1,10,-1
 369 0 l 1,11,-1
 256 0 l 1,12,-1
 256 100 l 1,13,-1
 219 100 l 1,14,-1
 219 200 l 1,15,-1
 181 200 l 1,16,-1
 181 500 l 1,17,-1
 219 500 l 1,18,-1
 219 600 l 1,19,-1
 256 600 l 1,0,-1
EndSplineSet
Validated: 1
EndChar

StartChar: parenright
Encoding: 41 41 12
Width: 600
GlyphClass: 2
Flags: W
LayerCount: 2
Back
Fore
SplineSet
231 700 m 1,0,-1
 344 700 l 1,1,-1
 344 600 l 1,2,-1
 381 600 l 1,3,-1
 381 500 l 1,4,-1
 419 500 l 1,5,-1
 419 200 l 1,6,-1
 381 200 l 1,7,-1
 381 100 l 1,8,-1
 344 100 l 1,9,-1
 344 0 l 1,10,-1
 231 0 l 1,11,-1
 231 100 l 1,12,-1
 306 100 l 1,13,-1
 306 200 l 1,14,-1
 344 200 l 1,15,-1
 344 500 l 1,16,-1
 306 500 l 1,17,-1
 306 600 l 1,18,-1
 231 600 l 1,19,-1
 231 700 l 1,0,-1
EndSplineSet
Validated: 1
EndChar

StartChar: asterisk
Encoding: 42 42 13
Width: 600
GlyphClass: 2
Flags: W
LayerCount: 2
Back
Fore
SplineSet
112 600 m 1,0,-1
 188 600 l 1,1,-1
 188 500 l 1,2,-1
 224 500 l 1,3,-1
 225 400 l 1,4,5
 225 400 225 400 262 400 c 1,6,-1
 262 700 l 1,7,-1
 338 700 l 1,8,-1
 338 400 l 1,9,-1
 375 400 l 1,10,-1
 375 500 l 1,11,12
 375 500 375 500 412 500 c 1,13,-1
 412 600 l 1,14,-1
 488 600 l 1,15,-1
 488 500 l 1,16,-1
 450 500 l 1,17,-1
 450 400 l 1,18,-1
 412 400 l 1,19,-1
 412 300 l 1,20,-1
 450 300 l 1,21,-1
 450 200 l 1,22,-1
 488 200 l 1,23,-1
 488 100 l 1,24,-1
 412 100 l 1,25,-1
 412 200 l 1,26,-1
 375 200 l 1,27,-1
 375 300 l 1,28,29
 375 300 375 300 338 300 c 1,30,-1
 338 0 l 1,31,-1
 262 0 l 1,32,-1
 262 300 l 1,33,-1
 225 300 l 1,34,-1
 225 200 l 1,35,36
 225 200 225 200 188 200 c 1,37,-1
 188 100 l 1,38,-1
 112 100 l 1,39,-1
 112 200 l 1,40,-1
 150 200 l 1,41,-1
 150 300 l 1,42,-1
 188 300 l 1,43,-1
 188 400 l 1,44,-1
 150 400 l 1,45,-1
 150 500 l 1,46,-1
 112 500 l 1,47,-1
 112 600 l 1,0,-1
EndSplineSet
Validated: 1
EndChar

StartChar: plus
Encoding: 43 43 14
Width: 600
GlyphClass: 2
Flags: W
LayerCount: 2
Back
Fore
SplineSet
262 550 m 1,0,-1
 338 550 l 1,1,-1
 338 350 l 1,2,-1
 450 350 l 1,3,-1
 450 250 l 1,4,-1
 338 250 l 1,5,-1
 338 50 l 1,6,-1
 262 50 l 1,7,-1
 262 250 l 1,8,-1
 150 250 l 1,9,-1
 150 350 l 1,10,-1
 262 350 l 1,11,-1
 262 550 l 1,0,-1
EndSplineSet
Validated: 1
EndChar

StartChar: comma
Encoding: 44 44 15
Width: 600
GlyphClass: 2
Flags: W
LayerCount: 2
Back
Fore
SplineSet
218 -100 m 1,0,-1
 255 -100 l 1,1,-1
 255 0 l 1,2,-1
 218 0 l 1,3,-1
 218 100 l 1,4,-1
 330 100 l 1,5,-1
 330 -100 l 1,6,-1
 293 -100 l 1,7,-1
 293 -200 l 1,8,-1
 218 -200 l 1,9,-1
 218 -100 l 1,0,-1
EndSplineSet
Validated: 1
EndChar

StartChar: hyphen
Encoding: 45 45 16
Width: 600
GlyphClass: 2
Flags: W
LayerCount: 2
Back
Fore
SplineSet
150 250 m 1,0,-1
 150 350 l 1,1,-1
 450 350 l 1,2,-1
 450 250 l 1,3,-1
 150 250 l 1,0,-1
EndSplineSet
Validated: 1
EndChar

StartChar: period
Encoding: 46 46 17
Width: 600
GlyphClass: 2
Flags: W
LayerCount: 2
Back
Fore
SplineSet
338 0 m 1,0,-1
 262 0 l 1,1,-1
 262 100 l 1,2,-1
 338 100 l 1,3,-1
 338 0 l 1,0,-1
EndSplineSet
Validated: 1
EndChar

StartChar: slash
Encoding: 47 47 18
Width: 600
GlyphClass: 2
Flags: W
LayerCount: 2
Back
Fore
SplineSet
375 700 m 1,0,-1
 450 700 l 1,1,-1
 450 600 l 1,2,-1
 412 600 l 1,3,-1
 412 500 l 1,4,-1
 375 500 l 1,5,-1
 375 400 l 1,6,7
 375 400 375 400 338 400 c 1,8,-1
 338 300 l 1,9,-1
 300 300 l 1,10,-1
 300 200 l 1,11,-1
 262 200 l 1,12,-1
 262 100 l 1,13,-1
 225 100 l 1,14,-1
 225 0 l 1,15,-1
 150 0 l 1,16,-1
 150 100 l 1,17,-1
 188 100 l 1,18,-1
 188 200 l 1,19,-1
 225 200 l 1,20,-1
 225 300 l 1,21,22
 225 300 225 300 262 300 c 1,23,-1
 262 400 l 1,24,-1
 300 400 l 1,25,-1
 300 500 l 1,26,-1
 338 500 l 1,27,-1
 338 600 l 1,28,-1
 375 600 l 1,29,-1
 375 700 l 1,0,-1
EndSplineSet
Validated: 1
EndChar

StartChar: zero
Encoding: 48 48 19
Width: 600
GlyphClass: 2
Flags: W
LayerCount: 2
Back
Fore
SplineSet
381 600 m 1,0,-1
 269 600 l 1,1,-1
 269 100 l 1,2,-1
 381 100 l 1,3,-1
 381 600 l 1,0,-1
194 700 m 1,4,-1
 456 700 l 1,5,-1
 456 600 l 1,6,-1
 494 600 l 1,7,-1
 494 100 l 1,8,-1
 456 100 l 1,9,-1
 456 0 l 1,10,-1
 194 0 l 1,11,-1
 194 100 l 1,12,-1
 156 100 l 1,13,-1
 156 600 l 1,14,-1
 194 600 l 1,15,-1
 194 700 l 1,4,-1
EndSplineSet
Validated: 1
EndChar

StartChar: one
Encoding: 49 49 20
Width: 600
GlyphClass: 2
Flags: W
LayerCount: 2
Back
Fore
SplineSet
231 500 m 1,0,-1
 231 600 l 1,1,-1
 306 600 l 1,2,-1
 306 700 l 1,3,-1
 419 700 l 1,4,-1
 419 0 l 1,5,-1
 306 0 l 1,6,-1
 306 500 l 1,7,-1
 231 500 l 1,0,-1
EndSplineSet
Validated: 1
EndChar

StartChar: two
Encoding: 50 50 21
Width: 600
GlyphClass: 2
Flags: W
LayerCount: 2
Back
Fore
SplineSet
231 500 m 1,0,-1
 156 500 l 1,1,-1
 156 600 l 1,2,-1
 194 600 l 1,3,-1
 194 700 l 1,4,-1
 456 700 l 1,5,-1
 456 600 l 1,6,-1
 494 600 l 1,7,-1
 494 400 l 1,8,-1
 456 400 l 1,9,-1
 456 300 l 1,10,-1
 419 300 l 1,11,-1
 419 200 l 1,12,-1
 344 200 l 1,13,-1
 344 100 l 1,14,-1
 494 100 l 1,15,-1
 494 0 l 1,16,-1
 156 0 l 1,17,-1
 156 100 l 1,18,-1
 194 100 l 1,19,-1
 194 200 l 1,20,-1
 269 200 l 1,21,-1
 269 300 l 1,22,-1
 344 300 l 1,23,-1
 344 400 l 1,24,-1
 381 400 l 1,25,-1
 381 600 l 1,26,-1
 231 600 l 1,27,-1
 231 500 l 1,0,-1
EndSplineSet
Validated: 1
EndChar

StartChar: three
Encoding: 51 51 22
Width: 600
GlyphClass: 2
Flags: W
LayerCount: 2
Back
Fore
SplineSet
156 700 m 1,0,-1
 494 700 l 1,1,-1
 494 600 l 1,2,-1
 456 600 l 1,3,-1
 456 500 l 1,4,-1
 419 500 l 1,5,-1
 419 400 l 1,6,-1
 494 400 l 1,7,-1
 494 100 l 1,8,-1
 456 100 l 1,9,-1
 456 0 l 1,10,-1
 156 0 l 1,11,-1
 156 100 l 1,12,-1
 419 100 l 1,13,-1
 419 300 l 1,14,-1
 269 300 l 1,15,-1
 269 400 l 1,16,-1
 344 400 l 1,17,-1
 344 500 l 1,18,-1
 381 500 l 1,19,-1
 381 600 l 1,20,-1
 156 601 l 1,21,-1
 156 700 l 1,0,-1
EndSplineSet
Validated: 1
EndChar

StartChar: four
Encoding: 52 52 23
Width: 600
GlyphClass: 2
Flags: W
LayerCount: 2
Back
Fore
SplineSet
381 700 m 1,0,-1
 494 700 l 1,1,-1
 494 600 l 1,2,-1
 456 600 l 1,3,-1
 456 500 l 1,4,-1
 381 500 l 1,5,-1
 381 400 l 1,6,-1
 306 400 l 1,7,-1
 306 300 l 1,8,-1
 269 300 l 1,9,-1
 269 200 l 1,10,-1
 381 200 l 1,11,-1
 381 300 l 1,12,-1
 494 300 l 1,13,-1
 494 0 l 1,14,-1
 381 0 l 1,15,-1
 381 100 l 1,16,-1
 156 100 l 1,17,-1
 156 300 l 1,18,-1
 194 300 l 1,19,-1
 194 400 l 1,20,-1
 269 400 l 1,21,-1
 269 500 l 1,22,-1
 306 500 l 1,23,-1
 306 600 l 1,24,-1
 381 600 l 1,25,-1
 381 700 l 1,0,-1
EndSplineSet
Validated: 1
EndChar

StartChar: five
Encoding: 53 53 24
Width: 600
GlyphClass: 2
Flags: W
LayerCount: 2
Back
Fore
SplineSet
456 700 m 1,0,-1
 456 600 l 1,1,-1
 231 600 l 1,2,-1
 231 400 l 1,3,-1
 456 400 l 1,4,-1
 456 300 l 1,5,-1
 494 300 l 1,6,-1
 494 100 l 1,7,-1
 456 100 l 1,8,-1
 456 0 l 1,9,-1
 194 0 l 1,10,-1
 194 100 l 1,11,-1
 156 100 l 1,12,-1
 156 200 l 1,13,-1
 231 200 l 1,14,-1
 231 100 l 1,15,-1
 381 100 l 1,16,-1
 381 300 l 1,17,-1
 156 300 l 1,18,-1
 156 700 l 1,19,-1
 456 700 l 1,0,-1
EndSplineSet
Validated: 1
EndChar

StartChar: six
Encoding: 54 54 25
Width: 600
GlyphClass: 2
Flags: W
LayerCount: 2
Back
Fore
SplineSet
419 300 m 1,0,-1
 268 300 l 1,1,-1
 268 100 l 1,2,-1
 419 100 l 1,3,-1
 419 300 l 1,0,-1
381 700 m 1,4,-1
 381 600 l 1,5,-1
 344 600 l 1,6,-1
 344 500 l 1,7,-1
 306 500 l 1,8,-1
 306 400 l 1,9,-1
 456 400 l 1,10,-1
 456 300 l 1,11,-1
 494 300 l 1,12,-1
 494 100 l 1,13,-1
 456 100 l 1,14,-1
 456 0 l 1,15,-1
 194 0 l 1,16,-1
 194 100 l 1,17,-1
 156 100 l 1,18,-1
 156 400 l 1,19,-1
 194 400 l 1,20,-1
 194 500 l 1,21,-1
 231 500 l 1,22,-1
 231 600 l 1,23,-1
 269 600 l 1,24,-1
 269 700 l 1,25,-1
 381 700 l 1,4,-1
EndSplineSet
Validated: 1
EndChar

StartChar: seven
Encoding: 55 55 26
Width: 600
GlyphClass: 2
Flags: W
LayerCount: 2
Back
Fore
SplineSet
112 700 m 1,0,-1
 488 700 l 1,1,-1
 488 600 l 1,2,-1
 450 600 l 1,3,-1
 450 500 l 1,4,-1
 412 500 l 1,5,-1
 412 400 l 1,6,-1
 375 400 l 1,7,-1
 375 300 l 1,8,9
 375 300 375 300 338 300 c 1,10,-1
 338 200 l 1,11,-1
 300 200 l 1,12,-1
 300 100 l 1,13,-1
 262 100 l 1,14,-1
 262 0 l 1,15,-1
 150 0 l 1,16,-1
 150 100 l 1,17,-1
 188 100 l 1,18,-1
 188 200 l 1,19,-1
 225 200 l 1,20,-1
 225 300 l 1,21,22
 225 300 225 300 262 300 c 1,23,-1
 262 400 l 1,24,-1
 300 400 l 1,25,-1
 300 500 l 1,26,-1
 338 500 l 1,27,-1
 338 600 l 1,28,-1
 112 600 l 1,29,-1
 112 700 l 1,0,-1
EndSplineSet
Validated: 1
EndChar

StartChar: eight
Encoding: 56 56 27
Width: 600
GlyphClass: 2
Flags: W
LayerCount: 2
Back
Fore
SplineSet
269 100 m 1,0,-1
 381 100 l 1,1,-1
 381 300 l 1,2,-1
 269 300 l 1,3,-1
 269 100 l 1,0,-1
269 600 m 1,4,-1
 269 400 l 1,5,-1
 381 400 l 1,6,-1
 381 600 l 1,7,-1
 269 600 l 1,4,-1
194 700 m 1,8,-1
 456 700 l 1,9,-1
 456 600 l 1,10,-1
 494 600 l 1,11,-1
 494 400 l 1,12,-1
 419 400 l 1,13,-1
 419 300 l 1,14,-1
 494 300 l 1,15,-1
 494 100 l 1,16,-1
 456 100 l 1,17,-1
 456 0 l 1,18,-1
 194 0 l 1,19,-1
 194 100 l 1,20,-1
 156 100 l 1,21,-1
 156 300 l 1,22,-1
 231 300 l 1,23,-1
 231 400 l 1,24,-1
 156 400 l 1,25,-1
 156 600 l 1,26,-1
 194 600 l 1,27,-1
 194 700 l 1,8,-1
EndSplineSet
Validated: 1
EndChar

StartChar: nine
Encoding: 57 57 28
Width: 600
GlyphClass: 2
Flags: W
LayerCount: 2
Back
Fore
SplineSet
231 600 m 1,0,-1
 231 400 l 1,1,-1
 381 400 l 1,2,-1
 381 600 l 1,3,-1
 231 600 l 1,0,-1
194 600 m 1,4,-1
 194 700 l 1,5,-1
 456 700 l 1,6,-1
 456 600 l 1,7,-1
 494 600 l 1,8,-1
 494 300 l 1,9,-1
 456 300 l 1,10,-1
 456 200 l 1,11,-1
 419 200 l 1,12,-1
 419 100 l 1,13,-1
 381 100 l 1,14,-1
 381 0 l 1,15,-1
 269 0 l 1,16,-1
 269 100 l 1,17,-1
 306 100 l 1,18,-1
 306 200 l 1,19,-1
 344 200 l 1,20,-1
 344 300 l 1,21,-1
 194 300 l 1,22,-1
 194 400 l 1,23,-1
 156 400 l 1,24,-1
 156 600 l 1,25,-1
 194 600 l 1,4,-1
EndSplineSet
Validated: 1
EndChar

StartChar: colon
Encoding: 58 58 29
Width: 600
GlyphClass: 2
Flags: W
LayerCount: 2
Back
Fore
SplineSet
262 200 m 1,0,-1
 338 200 l 1,1,-1
 338 0 l 1,2,-1
 262 0 l 1,3,-1
 262 200 l 1,0,-1
262 500 m 1,4,-1
 337 500 l 2,5,6
 338 500 338 500 338 300 c 1,7,-1
 262 300 l 1,8,-1
 262 500 l 1,4,-1
EndSplineSet
Validated: 1
EndChar

StartChar: semicolon
Encoding: 59 59 30
Width: 600
GlyphClass: 2
Flags: W
LayerCount: 2
Back
Fore
SplineSet
256 100 m 1,0,-1
 331 100 l 1,1,-1
 331 -100 l 1,2,-1
 294 -100 l 1,3,-1
 294 -200 l 1,4,-1
 219 -200 l 1,5,-1
 219 -100 l 1,6,-1
 256 -100 l 1,7,-1
 256 100 l 1,0,-1
256 500 m 1,8,-1
 331 500 l 1,9,-1
 331 300 l 1,10,-1
 256 300 l 1,11,-1
 256 500 l 1,8,-1
EndSplineSet
Validated: 1
EndChar

StartChar: less
Encoding: 60 60 31
Width: 600
GlyphClass: 2
Flags: W
LayerCount: 2
Back
Fore
SplineSet
381 700 m 1,0,-1
 494 700 l 1,1,-1
 494 600 l 1,2,-1
 419 600 l 1,3,-1
 419 500 l 1,4,-1
 344 500 l 1,5,-1
 344 400 l 1,6,-1
 269 400 l 1,7,-1
 269 300 l 1,8,-1
 344 300 l 1,9,-1
 344 200 l 1,10,-1
 419 200 l 1,11,-1
 419 100 l 1,12,-1
 494 100 l 1,13,-1
 494 0 l 1,14,-1
 381 0 l 1,15,-1
 381 100 l 1,16,-1
 306 100 l 1,17,-1
 306 200 l 1,18,-1
 231 200 l 1,19,-1
 231 300 l 1,20,-1
 156 300 l 1,21,-1
 156 400 l 1,22,-1
 231 400 l 1,23,-1
 231 500 l 1,24,-1
 306 500 l 1,25,-1
 306 600 l 1,26,-1
 381 600 l 1,27,-1
 381 700 l 1,0,-1
EndSplineSet
Validated: 1
EndChar

StartChar: equal
Encoding: 61 61 32
Width: 600
GlyphClass: 2
Flags: W
LayerCount: 2
Back
Fore
SplineSet
150 500 m 1,0,-1
 450 500 l 1,1,-1
 450 400 l 1,2,-1
 150 400 l 1,3,-1
 150 500 l 1,0,-1
150 300 m 1,4,-1
 450 300 l 1,5,-1
 450 200 l 1,6,-1
 150 200 l 1,7,-1
 150 300 l 1,4,-1
EndSplineSet
Validated: 1
EndChar

StartChar: greater
Encoding: 62 62 33
Width: 600
GlyphClass: 2
Flags: W
LayerCount: 2
Back
Fore
SplineSet
156 600 m 1,0,-1
 156 700 l 1,1,-1
 269 700 l 1,2,-1
 269 600 l 1,3,-1
 344 600 l 1,4,-1
 344 500 l 1,5,-1
 419 500 l 1,6,-1
 419 400 l 1,7,-1
 494 400 l 1,8,-1
 494 300 l 1,9,-1
 419 300 l 1,10,-1
 419 200 l 1,11,-1
 344 200 l 1,12,-1
 344 100 l 1,13,-1
 269 100 l 1,14,-1
 269 0 l 1,15,-1
 156 0 l 1,16,-1
 156 100 l 1,17,-1
 231 100 l 1,18,-1
 231 200 l 1,19,-1
 306 200 l 1,20,-1
 306 300 l 1,21,-1
 381 300 l 1,22,-1
 381 400 l 1,23,-1
 306 400 l 1,24,-1
 306 500 l 1,25,-1
 231 500 l 1,26,-1
 231 600 l 1,27,-1
 156 600 l 1,0,-1
EndSplineSet
Validated: 1
EndChar

StartChar: question
Encoding: 63 63 34
Width: 600
GlyphClass: 2
Flags: W
LayerCount: 2
Back
Fore
SplineSet
306 300 m 1,0,-1
 381 300 l 1,1,-1
 381 200 l 1,2,-1
 306 200 l 1,3,-1
 306 300 l 1,0,-1
381 0 m 1,4,-1
 306 0 l 1,5,-1
 306 100 l 1,6,-1
 381 100 l 1,7,-1
 381 0 l 1,4,-1
156 600 m 1,8,-1
 194 600 l 1,9,-1
 194 700 l 1,10,-1
 456 700 l 1,11,-1
 456 600 l 1,12,-1
 494 600 l 1,13,-1
 494 400 l 1,14,-1
 456 400 l 1,15,-1
 456 300 l 1,16,-1
 381 300 l 1,17,-1
 381 400 l 1,18,-1
 419 400 l 1,19,-1
 419 600 l 1,20,-1
 231 600 l 1,21,-1
 231 400 l 1,22,-1
 156 400 l 1,23,-1
 156 600 l 1,8,-1
EndSplineSet
Validated: 5
EndChar

StartChar: at
Encoding: 64 64 35
Width: 600
GlyphClass: 2
Flags: W
LayerCount: 2
Back
Fore
SplineSet
338 400 m 1,0,-1
 338 200 l 1,1,-1
 412 200 l 1,2,-1
 412 400 l 1,3,-1
 338 400 l 1,0,-1
188 600 m 1,4,-1
 188 700 l 1,5,-1
 450 700 l 1,6,-1
 450 600 l 1,7,-1
 488 600 l 1,8,-1
 488 100 l 1,9,-1
 300 100 l 1,10,-1
 300 200 l 1,11,-1
 262 200 l 1,12,-1
 262 400 l 1,13,-1
 300 400 l 1,14,-1
 300 500 l 1,15,-1
 412 500 l 1,16,-1
 412 600 l 1,17,-1
 225 600 l 1,18,-1
 225 500 l 1,19,20
 225 500 225 500 188 500 c 1,21,-1
 188 100 l 1,22,-1
 225 100 l 1,23,-1
 225 0 l 1,24,-1
 450 0 l 1,25,-1
 450 -100 l 1,26,-1
 188 -100 l 1,27,-1
 188 0 l 1,28,-1
 150 0 l 1,29,-1
 150 100 l 1,30,-1
 112 100 l 1,31,-1
 112 500 l 1,32,-1
 150 500 l 1,33,-1
 150 600 l 1,34,-1
 188 600 l 1,4,-1
EndSplineSet
Validated: 1
EndChar

StartChar: A
Encoding: 65 65 36
Width: 600
GlyphClass: 2
Flags: W
LayerCount: 2
Back
Fore
SplineSet
188 400 m 1,0,-1
 188 300 l 1,1,-1
 412 300 l 1,2,-1
 412 400 l 1,3,-1
 375 400 l 1,4,-1
 375 500 l 1,5,6
 375 500 375 500 338 500 c 1,7,-1
 338 600 l 1,8,-1
 262 600 l 1,9,-1
 262 500 l 1,10,-1
 225 500 l 1,11,-1
 225 400 l 1,12,-1
 188 400 l 1,0,-1
188 0 m 1,13,-1
 112 0 l 1,14,-1
 112 400 l 1,15,-1
 150 400 l 1,16,-1
 150 500 l 1,17,-1
 188 500 l 1,18,-1
 188 600 l 1,19,-1
 225 600 l 1,20,-1
 225 700 l 1,21,-1
 374 700 l 1,22,-1
 375 600 l 1,23,24
 375 600 375 600 412 600 c 1,25,-1
 412 500 l 1,26,-1
 450 500 l 1,27,-1
 450 400 l 1,28,-1
 488 400 l 1,29,-1
 488 0 l 1,30,-1
 412 0 l 1,31,-1
 412 200 l 1,32,-1
 188 200 l 1,33,-1
 188 0 l 1,13,-1
EndSplineSet
Validated: 1
EndChar

StartChar: B
Encoding: 66 66 37
Width: 600
GlyphClass: 2
Flags: W
LayerCount: 2
Back
Fore
SplineSet
231 600 m 1,0,-1
 231 400 l 1,1,-1
 419 400 l 1,2,-1
 419 600 l 1,3,-1
 231 600 l 1,0,-1
231 300 m 1,4,-1
 231 100 l 1,5,-1
 419 100 l 1,6,-1
 419 300 l 1,7,-1
 231 300 l 1,4,-1
156 0 m 1,8,-1
 156 700 l 1,9,-1
 456 700 l 1,10,-1
 456 600 l 1,11,-1
 494 600 l 1,12,-1
 494 400 l 1,13,-1
 456 400 l 1,14,-1
 456 300 l 1,15,-1
 494 300 l 1,16,-1
 494 100 l 1,17,-1
 456 100 l 1,18,-1
 456 0 l 1,19,-1
 156 0 l 1,8,-1
EndSplineSet
Validated: 1
EndChar

StartChar: C
Encoding: 67 67 38
Width: 600
GlyphClass: 2
Flags: W
LayerCount: 2
Back
Fore
SplineSet
231 700 m 1,0,-1
 456 700 l 1,1,-1
 456 600 l 1,2,-1
 494 600 l 1,3,-1
 494 500 l 1,4,-1
 419 500 l 1,5,-1
 419 600 l 1,6,-1
 269 600 l 1,7,-1
 269 500 l 1,8,-1
 231 500 l 1,9,-1
 231 200 l 1,10,-1
 269 200 l 1,11,-1
 269 100 l 1,12,-1
 419 100 l 1,13,-1
 419 200 l 1,14,-1
 494 200 l 1,15,-1
 494 100 l 1,16,-1
 456 100 l 1,17,-1
 456 0 l 1,18,-1
 231 0 l 1,19,-1
 231 100 l 1,20,-1
 194 100 l 1,21,-1
 194 200 l 1,22,-1
 156 200 l 1,23,-1
 156 500 l 1,24,-1
 194 500 l 1,25,-1
 194 600 l 1,26,-1
 231 600 l 1,27,-1
 231 700 l 1,0,-1
EndSplineSet
Validated: 1
EndChar

StartChar: D
Encoding: 68 68 39
Width: 600
GlyphClass: 2
Flags: W
LayerCount: 2
Back
Fore
SplineSet
231 600 m 1,0,-1
 231 100 l 1,1,-1
 381 100 l 1,2,-1
 381 200 l 1,3,-1
 419 200 l 1,4,-1
 419 500 l 1,5,-1
 381 500 l 1,6,-1
 381 600 l 1,7,-1
 231 600 l 1,0,-1
156 700 m 1,8,-1
 419 700 l 1,9,-1
 419 600 l 1,10,-1
 456 600 l 1,11,-1
 456 500 l 1,12,-1
 494 500 l 1,13,-1
 494 200 l 1,14,-1
 456 200 l 1,15,-1
 456 100 l 1,16,-1
 419 100 l 1,17,-1
 419 0 l 1,18,-1
 156 0 l 1,19,-1
 156 700 l 1,8,-1
EndSplineSet
Validated: 1
EndChar

StartChar: E
Encoding: 69 69 40
Width: 600
GlyphClass: 2
Flags: W
LayerCount: 2
Back
Fore
SplineSet
494 600 m 1,0,-1
 231 600 l 1,1,-1
 231 400 l 1,2,-1
 419 400 l 1,3,-1
 419 300 l 1,4,-1
 231 300 l 1,5,-1
 231 100 l 1,6,-1
 494 100 l 1,7,-1
 494 0 l 1,8,-1
 156 0 l 1,9,-1
 156 700 l 1,10,-1
 494 700 l 1,11,-1
 494 600 l 1,0,-1
EndSplineSet
Validated: 1
EndChar

StartChar: F
Encoding: 70 70 41
Width: 600
GlyphClass: 2
Flags: W
LayerCount: 2
Back
Fore
SplineSet
231 0 m 1,0,-1
 156 0 l 1,1,-1
 156 700 l 1,2,-1
 494 700 l 1,3,-1
 494 600 l 1,4,-1
 231 600 l 1,5,-1
 231 400 l 1,6,-1
 419 400 l 1,7,-1
 419 300 l 1,8,-1
 231 300 l 1,9,-1
 231 0 l 1,0,-1
EndSplineSet
Validated: 1
EndChar

StartChar: G
Encoding: 71 71 42
Width: 600
GlyphClass: 2
Flags: W
LayerCount: 2
Back
Fore
SplineSet
419 600 m 1,0,-1
 231 600 l 1,1,-1
 231 100 l 1,2,-1
 419 100 l 1,3,-1
 419 200 l 1,4,-1
 306 200 l 1,5,-1
 306 300 l 1,6,-1
 494 300 l 1,7,-1
 494 100 l 1,8,-1
 456 100 l 1,9,-1
 456 0 l 1,10,-1
 194 0 l 1,11,-1
 194 100 l 1,12,-1
 156 100 l 1,13,-1
 156 600 l 1,14,-1
 194 600 l 1,15,-1
 194 700 l 1,16,-1
 456 700 l 1,17,-1
 456 600 l 1,18,-1
 494 600 l 1,19,-1
 494 500 l 1,20,-1
 419 500 l 1,21,-1
 419 600 l 1,0,-1
EndSplineSet
Validated: 1
EndChar

StartChar: H
Encoding: 72 72 43
Width: 600
GlyphClass: 2
Flags: W
LayerCount: 2
Back
Fore
SplineSet
156 700 m 1,0,-1
 231 700 l 1,1,-1
 231 400 l 1,2,-1
 419 400 l 1,3,-1
 419 700 l 1,4,-1
 494 700 l 1,5,-1
 494 0 l 1,6,-1
 419 0 l 1,7,-1
 419 300 l 1,8,-1
 231 300 l 1,9,-1
 231 0 l 1,10,-1
 156 0 l 1,11,-1
 156 700 l 1,0,-1
EndSplineSet
Validated: 1
EndChar

StartChar: I
Encoding: 73 73 44
Width: 600
GlyphClass: 2
Flags: W
LayerCount: 2
Back
Fore
SplineSet
150 700 m 1,0,-1
 450 700 l 1,1,-1
 450 600 l 1,2,-1
 338 600 l 1,3,-1
 338 100 l 1,4,-1
 450 100 l 1,5,-1
 450 0 l 1,6,-1
 150 0 l 1,7,-1
 150 100 l 1,8,-1
 262 100 l 1,9,-1
 262 600 l 1,10,-1
 150 600 l 1,11,-1
 150 700 l 1,0,-1
EndSplineSet
Validated: 1
EndChar

StartChar: J
Encoding: 74 74 45
Width: 600
GlyphClass: 2
Flags: W
LayerCount: 2
Back
Fore
SplineSet
419 700 m 1,0,-1
 494 700 l 1,1,-1
 494 100 l 1,2,-1
 456 100 l 1,3,-1
 456 0 l 1,4,-1
 194 0 l 1,5,-1
 194 100 l 1,6,-1
 156 100 l 1,7,-1
 156 200 l 1,8,-1
 231 200 l 1,9,-1
 231 100 l 1,10,-1
 419 100 l 1,11,-1
 419 700 l 1,0,-1
EndSplineSet
Validated: 1
EndChar

StartChar: K
Encoding: 75 75 46
Width: 600
GlyphClass: 2
Flags: W
LayerCount: 2
Back
Fore
SplineSet
156 700 m 1,0,-1
 231 700 l 1,1,-1
 231 400 l 1,2,-1
 269 400 l 1,3,-1
 269 500 l 1,4,-1
 344 500 l 1,5,-1
 344 600 l 1,6,-1
 381 600 l 1,7,-1
 381 700 l 1,8,-1
 494 700 l 1,9,-1
 494 600 l 1,10,-1
 419 600 l 1,11,-1
 419 500 l 1,12,-1
 381 500 l 1,13,-1
 381 400 l 1,14,-1
 306 400 l 1,15,-1
 306 300 l 1,16,-1
 381 300 l 1,17,-1
 381 200 l 1,18,-1
 419 200 l 1,19,-1
 419 100 l 1,20,-1
 494 100 l 1,21,-1
 494 0 l 1,22,-1
 381 0 l 1,23,-1
 381 100 l 1,24,-1
 344 100 l 1,25,-1
 344 200 l 1,26,-1
 269 200 l 1,27,-1
 269 300 l 1,28,-1
 231 300 l 1,29,-1
 231 0 l 1,30,-1
 156 0 l 1,31,-1
 156 700 l 1,0,-1
EndSplineSet
Validated: 1
EndChar

StartChar: L
Encoding: 76 76 47
Width: 600
GlyphClass: 2
Flags: W
LayerCount: 2
Back
Fore
SplineSet
156 700 m 1,0,-1
 231 700 l 1,1,-1
 231 100 l 1,2,-1
 494 100 l 1,3,-1
 494 0 l 1,4,-1
 156 0 l 1,5,-1
 156 700 l 1,0,-1
EndSplineSet
Validated: 1
EndChar

StartChar: M
Encoding: 77 77 48
Width: 600
GlyphClass: 2
Flags: W
LayerCount: 2
Back
Fore
SplineSet
188 0 m 1,0,-1
 112 0 l 1,1,-1
 112 700 l 1,2,-1
 225 700 l 1,3,-1
 225 600 l 1,4,5
 225 600 225 600 262 600 c 1,6,-1
 262 500 l 1,7,-1
 338 500 l 1,8,-1
 338 600 l 1,9,-1
 375 600 l 1,10,-1
 375 700 l 1,11,12
 375 700 375 700 488 700 c 1,13,-1
 488 0 l 1,14,-1
 412 0 l 1,15,-1
 412 500 l 1,16,-1
 375 500 l 1,17,-1
 375 400 l 1,18,19
 375 400 375 400 338 400 c 1,20,-1
 338 300 l 1,21,-1
 262 300 l 1,22,-1
 262 400 l 1,23,-1
 225 400 l 1,24,-1
 225 500 l 1,25,26
 225 500 225 500 188 500 c 1,27,-1
 188 0 l 1,0,-1
EndSplineSet
Validated: 1
EndChar

StartChar: N
Encoding: 78 78 49
Width: 600
GlyphClass: 2
Flags: W
LayerCount: 2
Back
Fore
SplineSet
112 700 m 1,0,-1
 225 700 l 1,1,-1
 225 600 l 1,2,3
 225 600 225 600 262 600 c 1,4,-1
 262 500 l 1,5,-1
 300 500 l 1,6,-1
 300 400 l 1,7,-1
 338 400 l 1,8,-1
 338 300 l 1,9,-1
 375 300 l 1,10,-1
 375 200 l 1,11,12
 375 200 375 200 412 200 c 1,13,-1
 412 700 l 1,14,-1
 488 700 l 1,15,-1
 488 0 l 1,16,-1
 375 0 l 1,17,-1
 375 100 l 1,18,19
 375 100 375 100 338 100 c 1,20,-1
 338 200 l 1,21,-1
 300 200 l 1,22,-1
 300 300 l 1,23,-1
 262 300 l 1,24,-1
 262 400 l 1,25,-1
 225 400 l 1,26,-1
 225 500 l 1,27,28
 225 500 225 500 188 500 c 1,29,-1
 188 0 l 1,30,-1
 112 0 l 1,31,-1
 112 700 l 1,0,-1
EndSplineSet
Validated: 1
EndChar

StartChar: O
Encoding: 79 79 50
Width: 600
GlyphClass: 2
Flags: W
LayerCount: 2
Back
Fore
SplineSet
375 100 m 1,0,-1
 375 200 l 1,1,2
 375 200 375 200 412 200 c 1,3,-1
 412 500 l 1,4,-1
 375 500 l 1,5,-1
 375 600 l 1,6,-1
 225 600 l 1,7,-1
 225 500 l 1,8,9
 225 500 225 500 188 500 c 1,10,-1
 188 200 l 1,11,-1
 225 200 l 1,12,-1
 225 100 l 1,13,-1
 375 100 l 1,0,-1
412 0 m 1,14,-1
 188 0 l 1,15,-1
 188 100 l 1,16,-1
 150 100 l 1,17,-1
 150 200 l 1,18,-1
 112 200 l 1,19,-1
 112 500 l 1,20,-1
 150 500 l 1,21,-1
 150 600 l 1,22,-1
 188 600 l 1,23,-1
 188 700 l 1,24,-1
 412 700 l 1,25,-1
 412 600 l 1,26,-1
 450 600 l 1,27,-1
 450 500 l 1,28,-1
 488 500 l 1,29,-1
 488 200 l 1,30,-1
 450 200 l 1,31,-1
 450 100 l 1,32,-1
 412 100 l 1,33,-1
 412 0 l 1,14,-1
EndSplineSet
Validated: 1
EndChar

StartChar: P
Encoding: 80 80 51
Width: 600
GlyphClass: 2
Flags: W
LayerCount: 2
Back
Fore
SplineSet
231 600 m 1,0,-1
 231 400 l 1,1,-1
 419 400 l 1,2,-1
 419 600 l 1,3,-1
 231 600 l 1,0,-1
156 700 m 1,4,-1
 456 700 l 1,5,-1
 456 650 l 1,6,-1
 494 650 l 1,7,-1
 494 400 l 1,8,-1
 456 400 l 1,9,-1
 456 300 l 1,10,-1
 231 300 l 1,11,-1
 231 0 l 1,12,-1
 156 0 l 1,13,-1
 156 700 l 1,4,-1
EndSplineSet
Validated: 1
EndChar

StartChar: Q
Encoding: 81 81 52
Width: 600
GlyphClass: 2
Flags: W
LayerCount: 2
Back
Fore
SplineSet
188 600 m 1,0,-1
 188 100 l 1,1,-1
 300 100 l 1,2,-1
 300 200 l 1,3,-1
 375 200 l 1,4,-1
 375 100 l 1,5,6
 375 100 375 100 412 100 c 1,7,-1
 412 600 l 1,8,-1
 188 600 l 1,0,-1
150 700 m 1,9,-1
 450 700 l 1,10,-1
 450 600 l 1,11,-1
 488 600 l 1,12,-1
 488 100 l 1,13,-1
 450 100 l 1,14,-1
 450 0 l 1,15,-1
 412 0 l 1,16,-1
 412 -100 l 1,17,-1
 488 -100 l 1,18,-1
 488 -200 l 1,19,-1
 375 -200 l 1,20,-1
 375 -100 l 1,21,22
 375 -100 375 -100 338 -100 c 1,23,-1
 338 0 l 1,24,-1
 150 0 l 1,25,-1
 150 100 l 1,26,-1
 112 100 l 1,27,-1
 112 600 l 1,28,-1
 150 600 l 1,29,-1
 150 700 l 1,9,-1
EndSplineSet
Validated: 1
EndChar

StartChar: R
Encoding: 82 82 53
Width: 600
GlyphClass: 2
Flags: W
LayerCount: 2
Back
Fore
SplineSet
231 600 m 1,0,-1
 231 400 l 1,1,-1
 419 400 l 1,2,-1
 419 600 l 1,3,-1
 231 600 l 1,0,-1
156 700 m 1,4,-1
 456 700 l 1,5,-1
 456 650 l 1,6,-1
 494 650 l 1,7,-1
 494 400 l 1,8,-1
 456 400 l 1,9,-1
 456 300 l 1,10,-1
 381 300 l 1,11,-1
 381 200 l 1,12,-1
 419 200 l 1,13,-1
 419 100 l 1,14,-1
 494 100 l 1,15,-1
 494 0 l 1,16,-1
 381 0 l 1,17,-1
 381 100 l 1,18,-1
 344 100 l 1,19,-1
 344 200 l 1,20,-1
 306 200 l 1,21,-1
 306 300 l 1,22,-1
 231 300 l 1,23,-1
 231 0 l 1,24,-1
 156 0 l 1,25,-1
 156 700 l 1,4,-1
EndSplineSet
Validated: 1
EndChar

StartChar: S
Encoding: 83 83 54
Width: 600
GlyphClass: 2
Flags: W
LayerCount: 2
Back
Fore
SplineSet
194 600 m 1,0,-1
 194 700 l 1,1,-1
 456 700 l 1,2,-1
 456 600 l 1,3,-1
 231 600 l 1,4,-1
 231 400 l 1,5,-1
 456 400 l 1,6,-1
 456 300 l 1,7,-1
 494 300 l 1,8,-1
 494 100 l 1,9,-1
 456 100 l 1,10,-1
 456 0 l 1,11,-1
 194 0 l 1,12,-1
 194 100 l 1,13,-1
 419 100 l 1,14,-1
 419 300 l 1,15,-1
 194 300 l 1,16,-1
 194 400 l 1,17,-1
 156 400 l 1,18,-1
 156 600 l 1,19,-1
 194 600 l 1,0,-1
EndSplineSet
Validated: 1
EndChar

StartChar: T
Encoding: 84 84 55
Width: 600
GlyphClass: 2
Flags: W
LayerCount: 2
Back
Fore
SplineSet
112 700 m 1,0,-1
 488 700 l 1,1,-1
 488 600 l 1,2,-1
 338 600 l 1,3,-1
 338 0 l 1,4,-1
 262 0 l 1,5,-1
 262 600 l 1,6,-1
 112 600 l 1,7,-1
 112 700 l 1,0,-1
EndSplineSet
Validated: 1
EndChar

StartChar: U
Encoding: 85 85 56
Width: 600
GlyphClass: 2
Flags: W
LayerCount: 2
Back
Fore
SplineSet
156 700 m 1,0,-1
 231 700 l 1,1,-1
 231 100 l 1,2,-1
 419 100 l 1,3,-1
 419 700 l 1,4,-1
 494 700 l 1,5,-1
 494 100 l 1,6,-1
 456 100 l 1,7,-1
 456 0 l 1,8,-1
 194 0 l 1,9,-1
 194 100 l 1,10,-1
 156 100 l 1,11,-1
 156 700 l 1,0,-1
EndSplineSet
Validated: 1
EndChar

StartChar: V
Encoding: 86 86 57
Width: 600
GlyphClass: 2
Flags: W
LayerCount: 2
Back
Fore
SplineSet
162 700 m 1,0,-1
 238 700 l 1,1,-1
 238 500 l 1,2,-1
 275 500 l 1,3,-1
 275 300 l 1,4,5
 275 300 275 300 312 300 c 1,6,-1
 312 200 l 1,7,-1
 388 200 l 1,8,-1
 388 300 l 1,9,-1
 425 300 l 1,10,-1
 425 500 l 1,11,12
 425 500 425 500 462 500 c 1,13,-1
 462 700 l 1,14,-1
 538 700 l 1,15,-1
 538 500 l 1,16,-1
 500 500 l 1,17,-1
 500 300 l 1,18,-1
 462 300 l 1,19,-1
 462 200 l 1,20,-1
 425 200 l 1,21,-1
 425 100 l 1,22,23
 425 100 425 100 388 100 c 1,24,-1
 388 0 l 1,25,-1
 312 0 l 1,26,-1
 312 100 l 1,27,-1
 275 100 l 1,28,-1
 275 200 l 1,29,30
 275 200 275 200 238 200 c 1,31,-1
 238 300 l 1,32,-1
 200 300 l 1,33,-1
 200 500 l 1,34,-1
 162 500 l 1,35,-1
 162 700 l 1,0,-1
EndSplineSet
Validated: 1
EndChar

StartChar: W
Encoding: 87 87 58
Width: 600
GlyphClass: 2
Flags: W
LayerCount: 2
Back
Fore
SplineSet
112 700 m 1,0,-1
 188 700 l 1,1,-1
 188 200 l 1,2,-1
 225 200 l 1,3,-1
 225 300 l 1,4,5
 225 300 225 300 262 300 c 1,6,-1
 262 400 l 1,7,-1
 338 400 l 1,8,-1
 338 300 l 1,9,-1
 375 300 l 1,10,-1
 375 200 l 1,11,12
 375 200 375 200 412 200 c 1,13,-1
 412 700 l 1,14,-1
 488 700 l 1,15,-1
 488 200 l 1,16,-1
 450 200 l 1,17,-1
 450 0 l 1,18,-1
 375 0 l 1,19,-1
 375 100 l 1,20,21
 375 100 375 100 338 100 c 1,22,-1
 338 200 l 1,23,-1
 262 200 l 1,24,-1
 262 100 l 1,25,-1
 225 100 l 1,26,-1
 225 0 l 1,27,-1
 150 0 l 1,28,-1
 150 200 l 1,29,-1
 112 200 l 1,30,-1
 112 700 l 1,0,-1
EndSplineSet
Validated: 1
EndChar

StartChar: X
Encoding: 88 88 59
Width: 600
GlyphClass: 2
Flags: W
LayerCount: 2
Back
Fore
SplineSet
150 700 m 1,0,-1
 225 700 l 1,1,-1
 225 600 l 1,2,3
 225 600 225 600 262 600 c 1,4,-1
 262 500 l 1,5,-1
 338 500 l 1,6,-1
 338 600 l 1,7,-1
 375 600 l 1,8,-1
 375 700 l 1,9,-1
 450 700 l 1,10,-1
 450 600 l 1,11,-1
 412 600 l 1,12,-1
 412 500 l 1,13,-1
 375 500 l 1,14,-1
 375 400 l 1,15,16
 375 400 375 400 338 400 c 1,17,-1
 338 300 l 1,18,-1
 375 300 l 1,19,-1
 375 200 l 1,20,21
 375 200 375 200 412 200 c 1,22,-1
 412 100 l 1,23,-1
 450 100 l 1,24,-1
 450 0 l 1,25,-1
 375 0 l 1,26,-1
 375 100 l 1,27,28
 375 100 375 100 338 100 c 1,29,-1
 338 200 l 1,30,-1
 262 200 l 1,31,-1
 262 100 l 1,32,-1
 225 100 l 1,33,-1
 225 0 l 1,34,-1
 150 0 l 1,35,-1
 150 100 l 1,36,-1
 188 100 l 1,37,-1
 188 200 l 1,38,-1
 225 200 l 1,39,-1
 225 300 l 1,40,41
 225 300 225 300 262 300 c 1,42,-1
 262 400 l 1,43,-1
 225 400 l 1,44,-1
 225 500 l 1,45,46
 225 500 225 500 188 500 c 1,47,-1
 188 600 l 1,48,-1
 150 600 l 1,49,-1
 150 700 l 1,0,-1
EndSplineSet
Validated: 1
EndChar

StartChar: Y
Encoding: 89 89 60
Width: 600
GlyphClass: 2
Flags: W
LayerCount: 2
Back
Fore
SplineSet
112 700 m 1,0,-1
 188 700 l 1,1,-1
 188 600 l 1,2,-1
 225 600 l 1,3,-1
 225 500 l 1,4,5
 225 500 225 500 262 500 c 1,6,-1
 262 400 l 1,7,-1
 338 400 l 1,8,-1
 338 500 l 1,9,-1
 375 500 l 1,10,-1
 375 600 l 1,11,12
 375 600 375 600 412 600 c 1,13,-1
 412 700 l 1,14,-1
 488 700 l 1,15,-1
 488 600 l 1,16,-1
 450 600 l 1,17,-1
 450 500 l 1,18,-1
 412 500 l 1,19,-1
 412 400 l 1,20,-1
 375 400 l 1,21,-1
 375 300 l 1,22,23
 375 300 375 300 338 300 c 1,24,-1
 338 0 l 1,25,-1
 262 0 l 1,26,-1
 262 300 l 1,27,-1
 225 300 l 1,28,-1
 225 400 l 1,29,30
 225 400 225 400 188 400 c 1,31,-1
 188 500 l 1,32,-1
 150 500 l 1,33,-1
 150 600 l 1,34,-1
 112 600 l 1,35,-1
 112 700 l 1,0,-1
EndSplineSet
Validated: 1
EndChar

StartChar: Z
Encoding: 90 90 61
Width: 600
GlyphClass: 2
Flags: W
LayerCount: 2
Back
Fore
SplineSet
150 700 m 1,0,-1
 450 700 l 1,1,-1
 450 600 l 1,2,-1
 412 600 l 1,3,-1
 412 500 l 1,4,-1
 375 500 l 1,5,-1
 375 400 l 1,6,7
 375 400 375 400 338 400 c 1,8,-1
 338 300 l 1,9,-1
 300 300 l 1,10,-1
 300 200 l 1,11,-1
 262 200 l 1,12,-1
 262 100 l 1,13,-1
 450 100 l 1,14,-1
 450 0 l 1,15,-1
 150 0 l 1,16,-1
 150 100 l 1,17,-1
 188 100 l 1,18,-1
 188 200 l 1,19,-1
 225 200 l 1,20,-1
 225 300 l 1,21,22
 225 300 225 300 262 300 c 1,23,-1
 262 400 l 1,24,-1
 300 400 l 1,25,-1
 300 500 l 1,26,-1
 338 500 l 1,27,-1
 338 600 l 1,28,-1
 150 600 l 1,29,-1
 150 700 l 1,0,-1
EndSplineSet
Validated: 1
EndChar

StartChar: bracketleft
Encoding: 91 91 62
Width: 600
GlyphClass: 2
Flags: W
LayerCount: 2
Back
Fore
SplineSet
375 600 m 1,0,-1
 300 600 l 1,1,-1
 300 100 l 1,2,-1
 375 100 l 1,3,-1
 375 0 l 1,4,-1
 225 0 l 1,5,-1
 225 700 l 1,6,-1
 375 700 l 1,7,-1
 375 600 l 1,0,-1
EndSplineSet
Validated: 1
EndChar

StartChar: backslash
Encoding: 92 92 63
Width: 600
GlyphClass: 2
Flags: W
LayerCount: 2
Back
Fore
SplineSet
150 600 m 1,0,-1
 150 700 l 1,1,-1
 225 700 l 1,2,-1
 225 600 l 1,3,4
 225 600 225 600 262 600 c 1,5,-1
 262 500 l 1,6,-1
 300 500 l 1,7,-1
 300 400 l 1,8,-1
 338 400 l 1,9,-1
 338 300 l 1,10,-1
 375 300 l 1,11,-1
 375 200 l 1,12,13
 375 200 375 200 412 200 c 1,14,-1
 412 100 l 1,15,-1
 450 100 l 1,16,-1
 450 0 l 1,17,-1
 375 0 l 1,18,-1
 375 100 l 1,19,20
 375 100 375 100 338 100 c 1,21,-1
 338 200 l 1,22,-1
 300 200 l 1,23,-1
 300 300 l 1,24,-1
 262 300 l 1,25,-1
 262 400 l 1,26,-1
 225 400 l 1,27,-1
 225 500 l 1,28,29
 225 500 225 500 188 500 c 1,30,-1
 188 600 l 1,31,-1
 150 600 l 1,0,-1
EndSplineSet
Validated: 1
EndChar

StartChar: bracketright
Encoding: 93 93 64
Width: 600
GlyphClass: 2
Flags: W
LayerCount: 2
Back
Fore
SplineSet
225 700 m 1,0,-1
 374 700 l 1,1,-1
 375 0 l 1,2,-1
 225 0 l 1,3,-1
 225 100 l 1,4,-1
 300 100 l 1,5,-1
 300 600 l 1,6,-1
 225 600 l 1,7,-1
 225 700 l 1,0,-1
EndSplineSet
Validated: 1
EndChar

StartChar: asciicircum
Encoding: 94 94 65
Width: 600
GlyphClass: 2
Flags: W
LayerCount: 2
Back
Fore
SplineSet
194 400 m 1,0,-1
 194 500 l 1,1,-1
 231 500 l 1,2,-1
 231 600 l 1,3,-1
 269 600 l 1,4,-1
 269 700 l 1,5,-1
 381 700 l 1,6,-1
 381 600 l 1,7,-1
 419 600 l 1,8,-1
 419 500 l 1,9,-1
 456 500 l 1,10,-1
 456 400 l 1,11,-1
 381 400 l 1,12,-1
 381 500 l 1,13,-1
 344 500 l 1,14,-1
 344 600 l 1,15,-1
 306 600 l 1,16,-1
 306 500 l 1,17,-1
 269 500 l 1,18,-1
 269 400 l 1,19,-1
 194 400 l 1,0,-1
EndSplineSet
Validated: 1
EndChar

StartChar: underscore
Encoding: 95 95 66
Width: 600
GlyphClass: 2
Flags: W
LayerCount: 2
Back
Fore
SplineSet
112 -100 m 1,0,-1
 112 0 l 1,1,-1
 488 0 l 1,2,-1
 488 -100 l 1,3,-1
 112 -100 l 1,0,-1
EndSplineSet
Validated: 1
EndChar

StartChar: grave
Encoding: 96 96 67
Width: 600
GlyphClass: 2
Flags: W
LayerCount: 2
Back
Fore
SplineSet
175 700 m 1,0,-1
 250 700 l 1,1,-1
 250 600 l 1,2,-1
 288 600 l 1,3,-1
 288 500 l 1,4,-1
 325 500 l 1,5,-1
 325 400 l 1,6,-1
 250 400 l 1,7,-1
 250 500 l 1,8,-1
 212 500 l 1,9,-1
 212 600 l 1,10,-1
 175 600 l 1,11,-1
 175 700 l 1,0,-1
EndSplineSet
Validated: 1
EndChar

StartChar: a
Encoding: 97 97 68
Width: 600
GlyphClass: 2
Flags: W
LayerCount: 2
Back
Fore
SplineSet
188 200 m 1,0,-1
 188 100 l 1,1,-1
 375 100 l 1,2,-1
 375 200 l 1,3,-1
 188 200 l 1,0,-1
150 500 m 1,4,-1
 412 500 l 1,5,-1
 412 400 l 1,6,-1
 450 400 l 1,7,-1
 450 100 l 1,8,-1
 487 100 l 2,9,10
 488 100 488 100 488 0 c 1,11,-1
 150 0 l 1,12,-1
 150 100 l 1,13,-1
 112 100 l 1,14,-1
 112 200 l 1,15,-1
 150 200 l 1,16,-1
 150 300 l 1,17,-1
 375 300 l 1,18,-1
 375 400 l 1,19,-1
 150 400 l 1,20,-1
 150 500 l 1,4,-1
EndSplineSet
Validated: 1
EndChar

StartChar: b
Encoding: 98 98 69
Width: 600
GlyphClass: 2
Flags: W
LayerCount: 2
Back
Fore
SplineSet
419 400 m 1,0,-1
 269 400 l 1,1,-1
 269 300 l 1,2,-1
 231 300 l 1,3,-1
 231 100 l 1,4,-1
 419 100 l 1,5,-1
 419 400 l 1,0,-1
156 700 m 1,6,-1
 231 700 l 1,7,-1
 231 400 l 1,8,-1
 269 400 l 1,9,-1
 269 500 l 1,10,-1
 456 500 l 1,11,-1
 456 400 l 1,12,-1
 494 400 l 1,13,-1
 494 100 l 1,14,-1
 456 100 l 1,15,-1
 456 0 l 1,16,-1
 156 0 l 1,17,-1
 156 700 l 1,6,-1
EndSplineSet
Validated: 5
EndChar

StartChar: c
Encoding: 99 99 70
Width: 600
GlyphClass: 2
Flags: W
LayerCount: 2
Back
Fore
SplineSet
231 500 m 1,0,-1
 494 500 l 1,1,-1
 494 400 l 1,2,-1
 269 400 l 1,3,-1
 269 300 l 1,4,-1
 231 300 l 1,5,-1
 231 200 l 1,6,-1
 269 200 l 1,7,-1
 269 100 l 1,8,-1
 494 100 l 1,9,-1
 494 0 l 1,10,-1
 231 0 l 1,11,-1
 231 100 l 1,12,-1
 194 100 l 1,13,-1
 194 200 l 1,14,-1
 156 200 l 1,15,-1
 156 300 l 1,16,-1
 194 300 l 1,17,-1
 194 400 l 1,18,-1
 231 400 l 1,19,-1
 231 500 l 1,0,-1
EndSplineSet
Validated: 1
EndChar

StartChar: d
Encoding: 100 100 71
Width: 600
GlyphClass: 2
Flags: W
LayerCount: 2
Back
Fore
SplineSet
231 100 m 1,0,-1
 419 100 l 1,1,-1
 419 300 l 1,2,-1
 381 300 l 1,3,-1
 381 400 l 1,4,-1
 231 400 l 1,5,-1
 231 100 l 1,0,-1
419 700 m 1,6,-1
 494 700 l 1,7,-1
 494 0 l 1,8,-1
 194 0 l 1,9,-1
 194 100 l 1,10,-1
 156 100 l 1,11,-1
 156 400 l 1,12,-1
 194 400 l 1,13,-1
 194 500 l 1,14,-1
 381 500 l 1,15,-1
 381 400 l 1,16,-1
 419 400 l 1,17,-1
 419 700 l 1,6,-1
EndSplineSet
Validated: 5
EndChar

StartChar: e
Encoding: 101 101 72
Width: 600
GlyphClass: 2
Flags: W
LayerCount: 2
Back
Fore
SplineSet
231 400 m 1,0,-1
 231 300 l 1,1,-1
 419 300 l 1,2,-1
 419 400 l 1,3,-1
 231 400 l 1,0,-1
194 400 m 1,4,-1
 194 500 l 1,5,-1
 456 500 l 1,6,-1
 456 400 l 1,7,-1
 494 400 l 1,8,-1
 494 200 l 1,9,-1
 231 200 l 1,10,-1
 231 100 l 1,11,-1
 456 100 l 1,12,-1
 456 0 l 1,13,-1
 194 0 l 1,14,-1
 194 100 l 1,15,-1
 156 100 l 1,16,-1
 156 400 l 1,17,-1
 194 400 l 1,4,-1
EndSplineSet
Validated: 1
EndChar

StartChar: f
Encoding: 102 102 73
Width: 600
GlyphClass: 2
Flags: W
LayerCount: 2
Back
Fore
SplineSet
269 600 m 1,0,-1
 269 700 l 1,1,-1
 494 700 l 1,2,-1
 494 600 l 1,3,-1
 306 600 l 1,4,-1
 306 400 l 1,5,-1
 419 400 l 1,6,-1
 419 300 l 1,7,-1
 306 300 l 1,8,-1
 306 0 l 1,9,-1
 231 0 l 1,10,-1
 231 300 l 1,11,-1
 156 300 l 1,12,-1
 156 400 l 1,13,-1
 231 400 l 1,14,-1
 231 600 l 1,15,-1
 269 600 l 1,0,-1
EndSplineSet
Validated: 1
EndChar

StartChar: g
Encoding: 103 103 74
Width: 600
GlyphClass: 2
Flags: W
LayerCount: 2
Back
Fore
SplineSet
231 400 m 1,0,-1
 231 100 l 1,1,-1
 381 100 l 1,2,-1
 381 200 l 1,3,-1
 419 200 l 1,4,-1
 419 300 l 1,5,-1
 381 300 l 1,6,-1
 381 400 l 1,7,-1
 231 400 l 1,0,-1
194 400 m 1,8,-1
 194 498 l 1,9,-1
 381 500 l 1,10,-1
 381 400 l 1,11,-1
 419 400 l 1,12,-1
 419 500 l 1,13,-1
 494 500 l 1,14,-1
 494 -100 l 1,15,-1
 456 -100 l 1,16,-1
 456 -200 l 1,17,-1
 194 -200 l 1,18,-1
 194 -100 l 1,19,-1
 419 -100 l 1,20,-1
 419 100 l 1,21,-1
 381 100 l 1,22,-1
 381 0 l 1,23,-1
 194 0 l 1,24,-1
 194 100 l 1,25,-1
 156 100 l 1,26,-1
 156 400 l 1,27,-1
 194 400 l 1,8,-1
EndSplineSet
Validated: 5
EndChar

StartChar: h
Encoding: 104 104 75
Width: 600
GlyphClass: 2
Flags: W
LayerCount: 2
Back
Fore
SplineSet
156 700 m 1,0,-1
 231 700 l 1,1,-1
 231 400 l 1,2,-1
 269 400 l 1,3,-1
 269 500 l 1,4,-1
 456 500 l 1,5,-1
 456 400 l 1,6,-1
 494 400 l 1,7,-1
 494 0 l 1,8,-1
 419 0 l 1,9,-1
 419 400 l 1,10,-1
 269 400 l 1,11,-1
 269 300 l 1,12,-1
 231 300 l 1,13,-1
 231 0 l 1,14,-1
 156 0 l 1,15,-1
 156 700 l 1,0,-1
EndSplineSet
Validated: 5
EndChar

StartChar: i
Encoding: 105 105 76
Width: 600
GlyphClass: 2
Flags: W
LayerCount: 2
Back
Fore
SplineSet
225 500 m 1,0,1
 225 500 225 500 338 500 c 1,2,-1
 337 100 l 1,3,4
 337 100 337 100 412 100 c 1,5,-1
 412 0 l 1,6,-1
 188 0 l 1,7,-1
 188 100 l 1,8,-1
 262 100 l 1,9,-1
 262 400 l 1,10,-1
 225 400 l 1,11,-1
 225 500 l 1,0,1
225 700 m 1,12,13
 225 700 225 700 338 700 c 1,14,-1
 338 600 l 1,15,-1
 225 600 l 1,16,-1
 225 700 l 1,12,13
EndSplineSet
Validated: 1
EndChar

StartChar: j
Encoding: 106 106 77
Width: 600
GlyphClass: 2
Flags: W
LayerCount: 2
Back
Fore
SplineSet
381 400 m 1,0,-1
 381 500 l 1,1,-1
 494 500 l 1,2,-1
 494 -100 l 1,3,-1
 456 -100 l 1,4,-1
 456 -200 l 1,5,-1
 194 -200 l 1,6,-1
 194 -100 l 1,7,-1
 156 -100 l 1,8,-1
 156 0 l 1,9,-1
 231 0 l 1,10,-1
 231 -100 l 1,11,-1
 419 -100 l 1,12,-1
 419 400 l 1,13,-1
 381 400 l 1,0,-1
381 700 m 1,14,-1
 493 700 l 1,15,-1
 494 600 l 1,16,-1
 381 600 l 1,17,-1
 381 700 l 1,14,-1
EndSplineSet
Validated: 1
EndChar

StartChar: k
Encoding: 107 107 78
Width: 600
GlyphClass: 2
Flags: W
LayerCount: 2
Back
Fore
SplineSet
150 700 m 1,0,-1
 225 700 l 1,1,-1
 225 300 l 1,2,-1
 300 300 l 1,3,-1
 300 400 l 1,4,-1
 338 400 l 1,5,-1
 338 500 l 1,6,-1
 450 500 l 1,7,-1
 450 400 l 1,8,-1
 375 400 l 1,9,-1
 375 300 l 1,10,11
 375 300 375 300 338 300 c 1,12,-1
 338 200 l 1,13,-1
 375 200 l 1,14,-1
 375 100 l 1,15,-1
 450 100 l 1,16,-1
 450 0 l 1,17,-1
 338 0 l 1,18,-1
 338 100 l 1,19,-1
 300 100 l 1,20,-1
 300 200 l 1,21,-1
 225 200 l 1,22,-1
 225 0 l 1,23,-1
 150 0 l 1,24,-1
 150 700 l 1,0,-1
EndSplineSet
Validated: 1
EndChar

StartChar: l
Encoding: 108 108 79
Width: 600
GlyphClass: 2
Flags: W
LayerCount: 2
Back
Fore
SplineSet
188 750 m 1,0,-1
 338 750 l 1,1,-1
 338 100 l 1,2,-1
 450 100 l 1,3,-1
 450 0 l 1,4,-1
 150 0 l 1,5,-1
 150 100 l 1,6,-1
 262 100 l 1,7,-1
 262 650 l 1,8,-1
 188 650 l 1,9,-1
 188 750 l 1,0,-1
EndSplineSet
Validated: 1
EndChar

StartChar: m
Encoding: 109 109 80
Width: 600
GlyphClass: 2
Flags: W
LayerCount: 2
Back
Fore
SplineSet
112 0 m 1,0,-1
 112 500 l 1,1,-1
 449 500 l 1,2,-1
 450 400 l 1,3,-1
 488 400 l 1,4,-1
 488 0 l 1,5,-1
 412 0 l 1,6,-1
 412 400 l 1,7,-1
 338 400 l 1,8,-1
 338 0 l 1,9,-1
 262 0 l 1,10,-1
 262 400 l 1,11,-1
 188 400 l 1,12,-1
 188 0 l 1,13,-1
 112 0 l 1,0,-1
EndSplineSet
Validated: 1
EndChar

StartChar: n
Encoding: 110 110 81
Width: 600
GlyphClass: 2
Flags: W
LayerCount: 2
Back
Fore
SplineSet
156 0 m 1,0,-1
 156 500 l 1,1,-1
 231 500 l 1,2,-1
 231 400 l 1,3,-1
 269 400 l 1,4,-1
 269 500 l 1,5,-1
 456 500 l 1,6,-1
 456 400 l 1,7,-1
 494 400 l 1,8,-1
 494 0 l 1,9,-1
 419 0 l 1,10,-1
 419 400 l 1,11,-1
 269 400 l 1,12,-1
 269 300 l 1,13,-1
 231 300 l 1,14,-1
 231 0 l 1,15,-1
 156 0 l 1,0,-1
EndSplineSet
Validated: 5
EndChar

StartChar: o
Encoding: 111 111 82
Width: 600
GlyphClass: 2
Flags: W
LayerCount: 2
Back
Fore
SplineSet
231 400 m 1,0,-1
 231 100 l 1,1,-1
 419 100 l 1,2,-1
 419 400 l 1,3,-1
 231 400 l 1,0,-1
194 500 m 1,4,-1
 456 500 l 1,5,-1
 456 400 l 1,6,-1
 494 400 l 1,7,-1
 494 100 l 1,8,-1
 456 100 l 1,9,-1
 456 0 l 1,10,-1
 194 0 l 1,11,-1
 194 100 l 1,12,-1
 156 100 l 1,13,-1
 156 400 l 1,14,-1
 194 400 l 1,15,-1
 194 500 l 1,4,-1
EndSplineSet
Validated: 1
EndChar

StartChar: p
Encoding: 112 112 83
Width: 600
GlyphClass: 2
Flags: W
LayerCount: 2
Back
Fore
SplineSet
269 300 m 1,0,-1
 231 300 l 1,1,-1
 231 200 l 1,2,-1
 269 200 l 1,3,-1
 269 100 l 1,4,-1
 419 100 l 1,5,-1
 419 400 l 1,6,-1
 269 400 l 1,7,-1
 269 300 l 1,0,-1
156 500 m 1,8,-1
 231 500 l 1,9,-1
 231 400 l 1,10,-1
 269 400 l 1,11,-1
 269 500 l 1,12,-1
 456 500 l 1,13,-1
 456 400 l 1,14,-1
 494 400 l 1,15,-1
 494 100 l 1,16,-1
 456 100 l 1,17,-1
 456 0 l 1,18,-1
 269 0 l 1,19,-1
 269 100 l 1,20,-1
 231 100 l 1,21,-1
 231 -200 l 1,22,-1
 156 -200 l 1,23,-1
 156 500 l 1,8,-1
EndSplineSet
Validated: 5
EndChar

StartChar: q
Encoding: 113 113 84
Width: 600
GlyphClass: 2
Flags: W
LayerCount: 2
Back
Fore
SplineSet
231 400 m 1,0,-1
 231 100 l 1,1,-1
 381 100 l 1,2,-1
 381 200 l 1,3,-1
 419 200 l 1,4,-1
 419 300 l 1,5,-1
 381 300 l 1,6,-1
 381 400 l 1,7,-1
 231 400 l 1,0,-1
194 500 m 1,8,-1
 381 500 l 1,9,-1
 381 400 l 1,10,-1
 419 400 l 1,11,-1
 419 500 l 1,12,-1
 494 500 l 1,13,-1
 494 -200 l 1,14,-1
 419 -200 l 1,15,-1
 419 100 l 1,16,-1
 381 100 l 1,17,-1
 381 0 l 1,18,-1
 194 0 l 1,19,-1
 194 100 l 1,20,-1
 156 100 l 1,21,-1
 156 400 l 1,22,-1
 194 400 l 1,23,-1
 194 500 l 1,8,-1
EndSplineSet
Validated: 5
EndChar

StartChar: r
Encoding: 114 114 85
Width: 600
GlyphClass: 2
Flags: W
LayerCount: 2
Back
Fore
SplineSet
156 0 m 1,0,-1
 156 500 l 1,1,-1
 231 500 l 1,2,-1
 231 400 l 1,3,-1
 306 400 l 1,4,-1
 306 500 l 1,5,-1
 494 500 l 1,6,-1
 494 400 l 1,7,-1
 306 400 l 1,8,-1
 306 300 l 1,9,-1
 231 300 l 1,10,-1
 231 0 l 1,11,-1
 156 0 l 1,0,-1
EndSplineSet
Validated: 5
EndChar

StartChar: s
Encoding: 115 115 86
Width: 600
GlyphClass: 2
Flags: W
LayerCount: 2
Back
Fore
SplineSet
456 400 m 1,0,-1
 231 400 l 1,1,-1
 231 300 l 1,2,-1
 456 300 l 1,3,-1
 456 200 l 1,4,-1
 494 200 l 1,5,-1
 494 100 l 1,6,-1
 456 100 l 1,7,-1
 456 0 l 1,8,-1
 194 0 l 1,9,-1
 194 100 l 1,10,-1
 419 100 l 1,11,-1
 419 200 l 1,12,-1
 194 200 l 1,13,-1
 194 300 l 1,14,-1
 156 300 l 1,15,-1
 156 400 l 1,16,-1
 194 400 l 1,17,-1
 194 500 l 1,18,-1
 456 500 l 1,19,-1
 456 400 l 1,0,-1
EndSplineSet
Validated: 1
EndChar

StartChar: t
Encoding: 116 116 87
Width: 600
GlyphClass: 2
Flags: W
LayerCount: 2
Back
Fore
SplineSet
231 700 m 1,0,-1
 306 700 l 1,1,-1
 306 500 l 1,2,-1
 419 500 l 1,3,-1
 419 400 l 1,4,-1
 306 400 l 1,5,-1
 306 100 l 1,6,-1
 494 100 l 1,7,-1
 494 0 l 1,8,-1
 269 0 l 1,9,-1
 269 100 l 1,10,-1
 231 100 l 1,11,-1
 231 400 l 1,12,-1
 156 400 l 1,13,-1
 156 500 l 1,14,-1
 231 500 l 1,15,-1
 231 700 l 1,0,-1
EndSplineSet
Validated: 1
EndChar

StartChar: u
Encoding: 117 117 88
Width: 600
GlyphClass: 2
Flags: W
LayerCount: 2
Back
Fore
SplineSet
156 500 m 1,0,-1
 231 500 l 1,1,-1
 231 100 l 1,2,-1
 381 100 l 1,3,-1
 381 200 l 1,4,-1
 419 200 l 1,5,-1
 419 500 l 1,6,-1
 494 500 l 1,7,-1
 494 0 l 1,8,-1
 419 0 l 1,9,-1
 419 100 l 1,10,-1
 381 100 l 1,11,-1
 381 0 l 1,12,-1
 194 0 l 1,13,-1
 194 100 l 1,14,-1
 156 100 l 1,15,-1
 156 500 l 1,0,-1
EndSplineSet
Validated: 5
EndChar

StartChar: v
Encoding: 118 118 89
Width: 600
GlyphClass: 2
Flags: W
LayerCount: 2
Back
Fore
SplineSet
112 500 m 1,0,-1
 188 500 l 1,1,-1
 188 400 l 1,2,-1
 225 400 l 1,3,-1
 225 300 l 1,4,5
 225 300 225 300 262 300 c 1,6,-1
 262 200 l 1,7,-1
 338 200 l 1,8,-1
 338 300 l 1,9,-1
 375 300 l 1,10,-1
 375 400 l 1,11,12
 375 400 375 400 412 400 c 1,13,-1
 412 500 l 1,14,-1
 488 500 l 1,15,-1
 488 400 l 1,16,-1
 450 400 l 1,17,-1
 450 300 l 1,18,-1
 412 300 l 1,19,-1
 412 200 l 1,20,-1
 375 200 l 1,21,-1
 375 100 l 1,22,23
 375 100 375 100 338 100 c 1,24,-1
 338 0 l 1,25,-1
 262 0 l 1,26,-1
 262 100 l 1,27,-1
 225 100 l 1,28,-1
 225 200 l 1,29,30
 225 200 225 200 188 200 c 1,31,-1
 188 300 l 1,32,-1
 150 300 l 1,33,-1
 150 400 l 1,34,-1
 112 400 l 1,35,-1
 112 500 l 1,0,-1
EndSplineSet
Validated: 1
EndChar

StartChar: w
Encoding: 119 119 90
Width: 600
GlyphClass: 2
Flags: W
LayerCount: 2
Back
Fore
SplineSet
412 500 m 1,0,-1
 488 500 l 1,1,-1
 488 200 l 1,2,-1
 450 200 l 1,3,-1
 450 100 l 1,4,-1
 412 100 l 1,5,-1
 412 0 l 1,6,-1
 338 0 l 1,7,-1
 338 100 l 1,8,-1
 262 100 l 1,9,-1
 262 0 l 1,10,-1
 188 0 l 1,11,-1
 188 100 l 1,12,-1
 150 100 l 1,13,-1
 150 200 l 1,14,-1
 112 200 l 1,15,-1
 112 500 l 1,16,-1
 188 500 l 1,17,-1
 188 200 l 1,18,-1
 225 200 l 1,19,-1
 225 100 l 1,20,21
 225 100 225 100 262 100 c 1,22,-1
 262 400 l 1,23,-1
 338 400 l 1,24,-1
 338 100 l 1,25,-1
 375 100 l 1,26,-1
 375 200 l 1,27,28
 375 200 375 200 412 200 c 1,29,-1
 412 500 l 1,0,-1
EndSplineSet
Validated: 5
EndChar

StartChar: x
Encoding: 120 120 91
Width: 600
GlyphClass: 2
Flags: W
LayerCount: 2
Back
Fore
SplineSet
112 500 m 1,0,-1
 225 500 l 1,1,-1
 225 400 l 1,2,3
 225 400 225 400 262 400 c 1,4,-1
 262 300 l 1,5,-1
 338 300 l 1,6,-1
 338 400 l 1,7,-1
 375 400 l 1,8,-1
 375 500 l 1,9,10
 375 500 375 500 488 500 c 1,11,-1
 488 400 l 1,12,-1
 412 400 l 1,13,-1
 412 300 l 1,14,-1
 375 300 l 1,15,-1
 375 200 l 1,16,17
 375 200 375 200 412 200 c 1,18,-1
 412 100 l 1,19,-1
 488 100 l 1,20,-1
 488 0 l 1,21,-1
 375 0 l 1,22,-1
 375 100 l 1,23,24
 375 100 375 100 338 100 c 1,25,-1
 338 200 l 1,26,-1
 262 200 l 1,27,-1
 262 100 l 1,28,-1
 225 100 l 1,29,-1
 225 0 l 1,30,31
 225 0 225 0 112 0 c 1,32,-1
 112 100 l 1,33,-1
 188 100 l 1,34,-1
 188 200 l 1,35,-1
 225 200 l 1,36,-1
 225 300 l 1,37,38
 225 300 225 300 188 300 c 1,39,-1
 188 400 l 1,40,-1
 112 400 l 1,41,-1
 112 500 l 1,0,-1
EndSplineSet
Validated: 1
EndChar

StartChar: y
Encoding: 121 121 92
Width: 600
GlyphClass: 2
Flags: W
LayerCount: 2
Back
Fore
SplineSet
156 500 m 1,0,-1
 231 500 l 1,1,-1
 231 400 l 1,2,-1
 269 400 l 1,3,-1
 269 300 l 1,4,-1
 306 300 l 1,5,-1
 306 200 l 1,6,-1
 344 200 l 1,7,-1
 344 300 l 1,8,-1
 381 300 l 1,9,-1
 381 400 l 1,10,-1
 419 400 l 1,11,-1
 419 500 l 1,12,-1
 494 500 l 1,13,-1
 494 400 l 1,14,-1
 456 400 l 1,15,-1
 456 300 l 1,16,-1
 419 300 l 1,17,-1
 419 200 l 1,18,-1
 381 200 l 1,19,-1
 381 100 l 1,20,-1
 344 100 l 1,21,-1
 344 0 l 1,22,-1
 306 0 l 1,23,-1
 306 -100 l 1,24,-1
 269 -100 l 1,25,-1
 269 -200 l 1,26,-1
 156 -200 l 1,27,-1
 156 -100 l 1,28,-1
 231 -100 l 1,29,-1
 231 0 l 1,30,-1
 269 0 l 1,31,-1
 269 200 l 1,32,-1
 231 200 l 1,33,-1
 231 300 l 1,34,-1
 194 300 l 1,35,-1
 194 400 l 1,36,-1
 156 400 l 1,37,-1
 156 500 l 1,0,-1
EndSplineSet
Validated: 1
EndChar

StartChar: z
Encoding: 122 122 93
Width: 600
GlyphClass: 2
Flags: W
LayerCount: 2
Back
Fore
SplineSet
150 500 m 1,0,-1
 450 500 l 1,1,-1
 450 400 l 1,2,-1
 375 400 l 1,3,-1
 375 300 l 1,4,5
 375 300 375 300 338 300 c 1,6,-1
 338 200 l 1,7,-1
 300 200 l 1,8,-1
 300 100 l 1,9,-1
 450 100 l 1,10,-1
 450 0 l 1,11,-1
 150 0 l 1,12,-1
 150 100 l 1,13,-1
 225 100 l 1,14,-1
 225 200 l 1,15,16
 225 200 225 200 262 200 c 1,17,-1
 262 300 l 1,18,-1
 300 300 l 1,19,-1
 300 400 l 1,20,-1
 150 400 l 1,21,-1
 150 500 l 1,0,-1
EndSplineSet
Validated: 1
EndChar

StartChar: braceleft
Encoding: 123 123 94
Width: 600
GlyphClass: 2
Flags: W
LayerCount: 2
Back
Fore
SplineSet
412 700 m 1,0,-1
 412 600 l 1,1,-1
 338 600 l 1,2,-1
 338 400 l 1,3,-1
 300 400 l 1,4,-1
 300 300 l 1,5,-1
 338 300 l 1,6,-1
 338 100 l 1,7,-1
 412 100 l 1,8,-1
 412 0 l 1,9,-1
 300 0 l 1,10,-1
 300 100 l 1,11,-1
 262 100 l 1,12,-1
 262 300 l 1,13,-1
 188 300 l 1,14,-1
 188 400 l 1,15,-1
 262 400 l 1,16,-1
 262 600 l 1,17,-1
 300 600 l 1,18,-1
 300 700 l 1,19,-1
 412 700 l 1,0,-1
EndSplineSet
Validated: 1
EndChar

StartChar: bar
Encoding: 124 124 95
Width: 600
GlyphClass: 2
Flags: W
LayerCount: 2
Back
Fore
SplineSet
262 700 m 1,0,-1
 338 700 l 1,1,-1
 338 0 l 1,2,-1
 262 0 l 1,3,-1
 262 700 l 1,0,-1
EndSplineSet
Validated: 1
EndChar

StartChar: braceright
Encoding: 125 125 96
Width: 600
GlyphClass: 2
Flags: W
LayerCount: 2
Back
Fore
SplineSet
188 700 m 1,0,-1
 300 700 l 1,1,-1
 300 600 l 1,2,-1
 338 600 l 1,3,-1
 338 400 l 1,4,-1
 412 400 l 1,5,-1
 412 300 l 1,6,-1
 338 300 l 1,7,-1
 338 100 l 1,8,-1
 300 100 l 1,9,-1
 300 0 l 1,10,-1
 188 0 l 1,11,-1
 188 100 l 1,12,-1
 262 100 l 1,13,-1
 262 300 l 1,14,-1
 300 300 l 1,15,-1
 300 400 l 1,16,-1
 262 400 l 1,17,-1
 262 600 l 1,18,-1
 188 600 l 1,19,-1
 188 700 l 1,0,-1
EndSplineSet
Validated: 1
EndChar

StartChar: asciitilde
Encoding: 126 126 97
Width: 600
GlyphClass: 2
Flags: W
LayerCount: 2
Back
Fore
SplineSet
156 600 m 1,0,-1
 194 600 l 1,1,-1
 194 700 l 1,2,-1
 344 700 l 1,3,-1
 344 600 l 1,4,-1
 419 600 l 1,5,-1
 419 700 l 1,6,-1
 494 700 l 1,7,-1
 494 600 l 1,8,-1
 456 600 l 1,9,-1
 456 500 l 1,10,-1
 306 500 l 1,11,-1
 306 600 l 1,12,-1
 231 600 l 1,13,-1
 231 500 l 1,14,-1
 156 501 l 1,15,-1
 156 600 l 1,0,-1
EndSplineSet
Validated: 1
EndChar

StartChar: exclamdown
Encoding: 161 161 111
Width: 600
GlyphClass: 2
Flags: W
LayerCount: 2
Back
Fore
SplineSet
262 500 m 1,0,-1
 338 500 l 1,1,-1
 338 0 l 1,2,-1
 262 0 l 1,3,-1
 262 500 l 1,0,-1
338 600 m 1,4,-1
 262 600 l 1,5,-1
 262 700 l 1,6,-1
 338 700 l 1,7,-1
 338 600 l 1,4,-1
EndSplineSet
Validated: 1
EndChar

StartChar: cent
Encoding: 162 162 112
Width: 600
GlyphClass: 2
Flags: W
LayerCount: 2
Back
Fore
SplineSet
231 500 m 1,0,-1
 494 500 l 1,1,-1
 494 400 l 1,2,-1
 269 400 l 1,3,-1
 269 300 l 1,4,-1
 231 300 l 1,5,-1
 231 200 l 1,6,-1
 269 200 l 1,7,-1
 269 100 l 1,8,-1
 494 100 l 1,9,-1
 494 0 l 1,10,-1
 231 0 l 1,11,-1
 231 100 l 1,12,-1
 194 100 l 1,13,-1
 194 200 l 1,14,-1
 156 200 l 1,15,-1
 156 300 l 1,16,-1
 194 300 l 1,17,-1
 194 400 l 1,18,-1
 231 400 l 1,19,-1
 231 500 l 1,0,-1
EndSplineSet
Validated: 1
EndChar

StartChar: sterling
Encoding: 163 163 113
Width: 600
GlyphClass: 2
Flags: W
LayerCount: 2
Back
Fore
SplineSet
156 0 m 1,0,-1
 156 100 l 1,1,-1
 194 100 l 1,2,-1
 194 200 l 1,3,-1
 231 200 l 1,4,-1
 231 300 l 1,5,-1
 156 300 l 1,6,-1
 156 400 l 1,7,-1
 231 400 l 1,8,-1
 231 600 l 1,9,-1
 269 600 l 1,10,-1
 269 700 l 1,11,-1
 419 700 l 1,12,-1
 419 600 l 1,13,-1
 456 600 l 1,14,-1
 456 500 l 1,15,-1
 381 500 l 1,16,-1
 381 600 l 1,17,-1
 306 600 l 1,18,-1
 306 400 l 1,19,-1
 381 400 l 1,20,-1
 381 300 l 1,21,-1
 306 300 l 1,22,-1
 306 200 l 1,23,-1
 269 200 l 1,24,-1
 269 100 l 1,25,-1
 494 100 l 1,26,-1
 494 0 l 1,27,-1
 156 0 l 1,0,-1
EndSplineSet
Validated: 1
EndChar

StartChar: currency
Encoding: 164 164 114
Width: 600
GlyphClass: 2
Flags: W
LayerCount: 2
Back
Fore
SplineSet
225 300 m 1,0,-1
 375 300 l 1,1,-1
 375 500 l 1,2,-1
 225 500 l 1,3,-1
 225 300 l 1,0,-1
75 700 m 1,4,-1
 75 800 l 1,5,-1
 150 800 l 1,6,-1
 150 700 l 1,7,-1
 188 700 l 1,8,-1
 188 600 l 1,9,-1
 412 600 l 1,10,-1
 412 700 l 1,11,-1
 450 700 l 1,12,-1
 450 800 l 1,13,-1
 525 800 l 1,14,-1
 525 700 l 1,15,16
 525 700 525 700 488 700 c 1,17,-1
 488 600 l 1,18,-1
 450 600 l 1,19,-1
 450 200 l 1,20,-1
 488 200 l 1,21,-1
 488 100 l 1,22,-1
 525 100 l 1,23,-1
 525 0 l 1,24,-1
 450 0 l 1,25,-1
 450 100 l 1,26,-1
 412 100 l 1,27,-1
 412 200 l 1,28,-1
 188 200 l 1,29,-1
 188 100 l 1,30,-1
 150 100 l 1,31,-1
 150 0 l 1,32,-1
 75 0 l 1,33,-1
 75 100 l 1,34,35
 75 100 75 100 112 100 c 1,36,-1
 112 200 l 1,37,-1
 150 200 l 1,38,-1
 150 600 l 1,39,-1
 112 600 l 1,40,-1
 112 700 l 1,41,-1
 75 700 l 1,4,-1
EndSplineSet
Validated: 1
EndChar

StartChar: yen
Encoding: 165 165 115
Width: 600
GlyphClass: 2
Flags: W
LayerCount: 2
Back
Fore
SplineSet
150 600 m 1,0,-1
 150 700 l 1,1,-1
 225 700 l 1,2,-1
 225 600 l 1,3,4
 225 600 225 600 262 600 c 1,5,-1
 262 500 l 1,6,-1
 338 500 l 1,7,-1
 338 600 l 1,8,-1
 375 600 l 1,9,-1
 375 700 l 1,10,-1
 450 700 l 1,11,-1
 450 600 l 1,12,-1
 412 600 l 1,13,-1
 412 500 l 1,14,-1
 375 500 l 1,15,-1
 375 400 l 1,16,17
 375 400 375 400 338 400 c 1,18,-1
 338 300 l 1,19,-1
 488 300 l 1,20,-1
 488 200 l 1,21,-1
 338 200 l 1,22,-1
 338 0 l 1,23,-1
 262 0 l 1,24,-1
 262 200 l 1,25,-1
 112 200 l 1,26,-1
 112 300 l 1,27,-1
 262 300 l 1,28,-1
 262 400 l 1,29,-1
 225 400 l 1,30,-1
 225 500 l 1,31,32
 225 500 225 500 188 500 c 1,33,-1
 188 600 l 1,34,-1
 150 600 l 1,0,-1
EndSplineSet
Validated: 1
EndChar

StartChar: brokenbar
Encoding: 166 166 116
Width: 600
GlyphClass: 2
Flags: W
LayerCount: 2
Back
Fore
SplineSet
262 700 m 1,0,-1
 338 700 l 1,1,-1
 338 0 l 1,2,-1
 262 0 l 1,3,-1
 262 700 l 1,0,-1
EndSplineSet
Validated: 1
EndChar

StartChar: section
Encoding: 167 167 117
Width: 600
GlyphClass: 2
Flags: W
LayerCount: 2
Back
Fore
SplineSet
338 400 m 1,0,-1
 262 400 l 1,1,-1
 262 300 l 1,2,-1
 338 300 l 1,3,-1
 338 400 l 1,0,-1
412 500 m 1,4,-1
 412 600 l 1,5,-1
 300 600 l 1,6,-1
 300 500 l 1,7,-1
 375 500 l 1,8,-1
 375 400 l 1,9,10
 375 400 375 400 412 400 c 1,11,-1
 412 300 l 1,12,-1
 375 300 l 1,13,-1
 375 100 l 1,14,15
 375 100 375 100 338 100 c 1,16,-1
 338 0 l 1,17,-1
 150 0 l 1,18,-1
 150 100 l 1,19,-1
 112 100 l 1,20,-1
 112 200 l 1,21,-1
 188 200 l 1,22,-1
 188 100 l 1,23,-1
 300 100 l 1,24,-1
 300 200 l 1,25,-1
 225 200 l 1,26,-1
 225 300 l 1,27,28
 225 300 225 300 188 300 c 1,29,-1
 188 400 l 1,30,-1
 225 400 l 1,31,-1
 225 600 l 1,32,33
 225 600 225 600 262 600 c 1,34,-1
 262 700 l 1,35,-1
 450 700 l 1,36,-1
 450 600 l 1,37,-1
 488 600 l 1,38,-1
 488 500 l 1,39,-1
 412 500 l 1,4,-1
EndSplineSet
Validated: 1
EndChar

StartChar: copyright
Encoding: 169 169 118
Width: 600
GlyphClass: 2
Flags: W
LayerCount: 2
Back
Fore
SplineSet
225 400 m 1,0,-1
 225 500 l 1,1,-1
 375 500 l 1,2,-1
 375 400 l 1,3,4
 375 400 375 400 262 400 c 1,5,-1
 262 300 l 1,6,-1
 375 300 l 1,7,-1
 375 200 l 1,8,-1
 225 200 l 1,9,-1
 225 300 l 1,10,11
 225 300 225 300 188 300 c 1,12,-1
 188 400 l 1,13,-1
 225 400 l 1,0,-1
188 500 m 1,14,-1
 150 500 l 1,15,-1
 150 200 l 1,16,-1
 188 200 l 1,17,-1
 188 100 l 1,18,-1
 412 100 l 1,19,-1
 412 200 l 1,20,-1
 450 200 l 1,21,-1
 450 500 l 1,22,-1
 412 500 l 1,23,-1
 412 600 l 1,24,-1
 188 600 l 1,25,-1
 188 500 l 1,14,-1
150 600 m 1,26,-1
 150 700 l 1,27,-1
 450 700 l 1,28,-1
 450 600 l 1,29,-1
 488 600 l 1,30,-1
 488 500 l 1,31,-1
 525 500 l 1,32,-1
 525 200 l 1,33,34
 525 200 525 200 488 200 c 1,35,-1
 488 100 l 1,36,-1
 450 100 l 1,37,-1
 450 0 l 1,38,-1
 150 0 l 1,39,-1
 150 100 l 1,40,-1
 112 100 l 1,41,-1
 112 200 l 1,42,-1
 75 200 l 1,43,-1
 75 500 l 1,44,45
 75 500 75 500 112 500 c 1,46,-1
 112 600 l 1,47,-1
 150 600 l 1,26,-1
EndSplineSet
Validated: 1
EndChar

StartChar: guillemotleft
Encoding: 171 171 120
Width: 600
GlyphClass: 2
Flags: W
LayerCount: 2
Back
Fore
SplineSet
412 0 m 1,0,-1
 412 100 l 1,1,-1
 338 100 l 1,2,-1
 338 200 l 1,3,-1
 300 200 l 1,4,-1
 300 300 l 1,5,-1
 338 300 l 1,6,-1
 338 400 l 1,7,-1
 412 400 l 1,8,-1
 412 500 l 1,9,-1
 525 500 l 1,10,-1
 525 400 l 1,11,-1
 450 400 l 1,12,-1
 450 300 l 1,13,-1
 375 300 l 1,14,-1
 375 200 l 1,15,-1
 450 200 l 1,16,-1
 450 100 l 1,17,-1
 525 100 l 1,18,-1
 525 0 l 1,19,-1
 412 0 l 1,0,-1
300 0 m 1,20,-1
 188 0 l 1,21,-1
 188 100 l 1,22,-1
 112 100 l 1,23,-1
 112 200 l 1,24,-1
 75 200 l 1,25,-1
 75 300 l 1,26,27
 75 300 75 300 112 300 c 1,28,-1
 112 400 l 1,29,-1
 188 400 l 1,30,-1
 188 500 l 1,31,-1
 300 500 l 1,32,-1
 300 400 l 1,33,-1
 225 400 l 1,34,-1
 225 300 l 1,35,-1
 150 300 l 1,36,-1
 150 200 l 1,37,-1
 225 200 l 1,38,-1
 225 100 l 1,39,-1
 300 100 l 1,40,-1
 300 0 l 1,20,-1
EndSplineSet
Validated: 1
EndChar

StartChar: logicalnot
Encoding: 172 172 121
Width: 600
GlyphClass: 2
Flags: W
LayerCount: 2
Back
Fore
SplineSet
112 -100 m 1,0,-1
 112 0 l 1,1,-1
 488 0 l 1,2,-1
 488 -100 l 1,3,-1
 112 -100 l 1,0,-1
EndSplineSet
Validated: 1
EndChar

StartChar: registered
Encoding: 174 174 123
Width: 600
GlyphClass: 2
Flags: W
LayerCount: 2
Back
Fore
SplineSet
225 200 m 1,0,-1
 225 500 l 1,1,-1
 375 500 l 1,2,-1
 375 400 l 1,3,4
 375 400 375 400 338 400 c 1,5,-1
 338 300 l 1,6,-1
 412 300 l 1,7,-1
 412 200 l 1,8,-1
 338 200 l 1,9,-1
 338 300 l 1,10,-1
 300 300 l 1,11,-1
 300 200 l 1,12,-1
 225 200 l 1,0,-1
188 500 m 1,13,-1
 150 500 l 1,14,-1
 150 200 l 1,15,-1
 188 200 l 1,16,-1
 188 100 l 1,17,-1
 412 100 l 1,18,-1
 412 200 l 1,19,-1
 450 200 l 1,20,-1
 450 500 l 1,21,-1
 412 500 l 1,22,-1
 412 600 l 1,23,-1
 188 600 l 1,24,-1
 188 500 l 1,13,-1
150 600 m 1,25,-1
 150 700 l 1,26,-1
 450 700 l 1,27,-1
 450 600 l 1,28,-1
 488 600 l 1,29,-1
 488 500 l 1,30,-1
 525 500 l 1,31,-1
 525 200 l 1,32,33
 525 200 525 200 488 200 c 1,34,-1
 488 100 l 1,35,-1
 450 100 l 1,36,-1
 450 0 l 1,37,-1
 150 0 l 1,38,-1
 150 100 l 1,39,-1
 112 100 l 1,40,-1
 112 200 l 1,41,-1
 75 200 l 1,42,-1
 75 500 l 1,43,44
 75 500 75 500 112 500 c 1,45,-1
 112 600 l 1,46,-1
 150 600 l 1,25,-1
EndSplineSet
Validated: 5
EndChar

StartChar: degree
Encoding: 176 176 124
Width: 600
GlyphClass: 2
Flags: W
LayerCount: 2
Back
Fore
SplineSet
262 600 m 1,0,-1
 262 500 l 1,1,-1
 338 500 l 1,2,-1
 338 600 l 1,3,-1
 262 600 l 1,0,-1
225 600 m 1,4,-1
 225 700 l 1,5,-1
 375 700 l 1,6,-1
 375 600 l 1,7,8
 375 600 375 600 412 600 c 1,9,-1
 412 500 l 1,10,-1
 375 500 l 1,11,-1
 375 400 l 1,12,-1
 225 400 l 1,13,-1
 225 500 l 1,14,15
 225 500 225 500 188 500 c 1,16,-1
 188 600 l 1,17,-1
 225 600 l 1,4,-1
EndSplineSet
Validated: 1
EndChar

StartChar: plusminus
Encoding: 177 177 125
Width: 600
GlyphClass: 2
Flags: W
LayerCount: 2
Back
Fore
SplineSet
150 200 m 1,0,-1
 450 200 l 1,1,-1
 450 101 l 1,2,-1
 150 100 l 1,3,-1
 150 200 l 1,0,-1
150 550 m 1,4,-1
 262 550 l 1,5,-1
 262 700 l 1,6,-1
 338 700 l 1,7,-1
 338 550 l 1,8,-1
 450 551 l 1,9,-1
 450 450 l 1,10,-1
 338 450 l 1,11,-1
 338 300 l 1,12,-1
 262 300 l 1,13,-1
 262 451 l 1,14,-1
 150 451 l 1,15,-1
 150 550 l 1,4,-1
EndSplineSet
Validated: 1
EndChar

StartChar: uni00B2
Encoding: 178 178 126
Width: 600
GlyphClass: 2
Flags: W
LayerCount: 2
Back
Fore
SplineSet
225 700 m 1,0,-1
 225 800 l 1,1,-1
 375 800 l 1,2,-1
 375 700 l 1,3,4
 375 700 375 700 412 700 c 1,5,-1
 412 600 l 1,6,-1
 375 600 l 1,7,-1
 375 500 l 1,8,-1
 300 500 l 1,9,-1
 300 400 l 1,10,-1
 412 400 l 1,11,-1
 412 300 l 1,12,-1
 188 300 l 1,13,-1
 188 400 l 1,14,-1
 225 400 l 1,15,-1
 225 500 l 1,16,-1
 300 500 l 1,17,-1
 300 600 l 1,18,-1
 338 600 l 1,19,-1
 338 700 l 1,20,-1
 262 700 l 1,21,-1
 262 600 l 1,22,-1
 188 600 l 1,23,-1
 188 700 l 1,24,-1
 225 700 l 1,0,-1
EndSplineSet
Validated: 5
EndChar

StartChar: uni00B3
Encoding: 179 179 127
Width: 600
GlyphClass: 2
Flags: W
LayerCount: 2
Back
Fore
SplineSet
188 700 m 1,0,-1
 188 800 l 1,1,-1
 412 800 l 1,2,-1
 412 600 l 1,3,-1
 375 600 l 1,4,-1
 375 500 l 1,5,6
 375 500 375 500 412 500 c 1,7,-1
 412 400 l 1,8,-1
 375 400 l 1,9,-1
 375 300 l 1,10,11
 375 300 375 300 188 300 c 1,12,-1
 188 400 l 1,13,-1
 338 400 l 1,14,-1
 338 500 l 1,15,-1
 262 500 l 1,16,-1
 262 600 l 1,17,-1
 338 600 l 1,18,-1
 338 700 l 1,19,-1
 188 700 l 1,0,-1
EndSplineSet
Validated: 1
EndChar

StartChar: acute
Encoding: 180 180 128
Width: 600
GlyphClass: 2
Flags: W
LayerCount: 2
Back
Fore
SplineSet
250 600 m 1,0,-1
 250 700 l 1,1,-1
 325 700 l 1,2,-1
 325 600 l 1,3,4
 325 600 325 600 288 600 c 1,5,-1
 288 500 l 1,6,-1
 250 500 l 1,7,-1
 250 400 l 1,8,-1
 175 400 l 1,9,-1
 175 500 l 1,10,11
 175 500 175 500 212 500 c 1,12,-1
 212 600 l 1,13,-1
 250 600 l 1,0,-1
EndSplineSet
Validated: 1
EndChar

StartChar: mu
Encoding: 181 181 129
Width: 600
GlyphClass: 2
Flags: W
LayerCount: 2
Back
Fore
SplineSet
156 -200 m 1,0,-1
 156 500 l 1,1,-1
 231 500 l 1,2,-1
 231 200 l 1,3,-1
 269 200 l 1,4,-1
 269 100 l 1,5,-1
 381 100 l 1,6,-1
 381 200 l 1,7,-1
 419 200 l 1,8,-1
 419 500 l 1,9,-1
 494 500 l 1,10,-1
 494 0 l 1,11,-1
 419 0 l 1,12,-1
 419 100 l 1,13,-1
 381 100 l 1,14,-1
 381 0 l 1,15,-1
 269 0 l 1,16,-1
 269 100 l 1,17,-1
 231 100 l 1,18,-1
 231 -200 l 1,19,-1
 156 -200 l 1,0,-1
EndSplineSet
Validated: 5
EndChar

StartChar: periodcentered
Encoding: 183 183 131
Width: 600
GlyphClass: 2
Flags: W
LayerCount: 2
Back
Fore
SplineSet
250 600 m 1,0,-1
 250 700 l 1,1,-1
 325 700 l 1,2,-1
 325 600 l 1,3,4
 325 600 325 600 288 600 c 1,5,-1
 288 500 l 1,6,-1
 250 500 l 1,7,-1
 250 400 l 1,8,-1
 175 400 l 1,9,-1
 175 500 l 1,10,11
 175 500 175 500 212 500 c 1,12,-1
 212 600 l 1,13,-1
 250 600 l 1,0,-1
EndSplineSet
Validated: 1
EndChar

StartChar: uni00B9
Encoding: 185 185 132
Width: 600
GlyphClass: 2
Flags: W
LayerCount: 2
Back
Fore
SplineSet
306 700 m 1,0,-1
 306 800 l 1,1,-1
 381 800 l 1,2,-1
 381 400 l 1,3,-1
 306 400 l 1,4,-1
 306 600 l 1,5,-1
 269 600 l 1,6,-1
 269 700 l 1,7,-1
 306 700 l 1,0,-1
EndSplineSet
Validated: 1
EndChar

StartChar: guillemotright
Encoding: 187 187 133
Width: 600
GlyphClass: 2
Flags: W
LayerCount: 2
Back
Fore
SplineSet
300 400 m 1,0,-1
 300 500 l 1,1,-1
 412 500 l 1,2,-1
 412 400 l 1,3,-1
 488 400 l 1,4,-1
 488 300 l 1,5,-1
 525 300 l 1,6,-1
 525 200 l 1,7,8
 525 200 525 200 488 200 c 1,9,-1
 488 100 l 1,10,-1
 412 100 l 1,11,-1
 412 0 l 1,12,-1
 300 0 l 1,13,-1
 300 100 l 1,14,-1
 375 100 l 1,15,-1
 375 200 l 1,16,17
 375 200 375 200 412 200 c 1,18,-1
 412 300 l 1,19,-1
 375 300 l 1,20,-1
 375 400 l 1,21,-1
 300 400 l 1,0,-1
75 400 m 1,22,-1
 75 500 l 1,23,24
 75 500 75 500 188 500 c 1,25,-1
 188 400 l 1,26,-1
 262 400 l 1,27,-1
 262 300 l 1,28,-1
 300 300 l 1,29,-1
 300 200 l 1,30,-1
 262 200 l 1,31,-1
 262 100 l 1,32,-1
 188 100 l 1,33,-1
 188 0 l 1,34,-1
 75 0 l 1,35,-1
 75 100 l 1,36,-1
 150 100 l 1,37,-1
 150 200 l 1,38,-1
 188 200 l 1,39,-1
 188 300 l 1,40,-1
 150 300 l 1,41,-1
 150 400 l 1,42,-1
 75 400 l 1,22,-1
EndSplineSet
Validated: 1
EndChar

StartChar: onequarter
Encoding: 188 188 134
Width: 600
GlyphClass: 2
Flags: W
LayerCount: 2
Back
Fore
SplineSet
338 200 m 1,0,-1
 338 300 l 1,1,-1
 412 300 l 1,2,-1
 412 200 l 1,3,-1
 375 200 l 1,4,-1
 375 100 l 1,5,6
 375 100 375 100 338 100 c 1,7,-1
 338 0 l 1,8,-1
 412 0 l 1,9,-1
 412 100 l 1,10,-1
 488 100 l 1,11,-1
 488 -200 l 1,12,-1
 412 -200 l 1,13,-1
 412 -100 l 1,14,-1
 262 -100 l 1,15,-1
 262 100 l 1,16,-1
 300 100 l 1,17,-1
 300 200 l 1,18,-1
 338 200 l 1,0,-1
150 600 m 1,19,-1
 150 700 l 1,20,-1
 225 700 l 1,21,-1
 225 200 l 1,22,-1
 150 200 l 1,23,-1
 150 500 l 1,24,-1
 112 500 l 1,25,-1
 112 600 l 1,26,-1
 150 600 l 1,19,-1
EndSplineSet
Validated: 1
EndChar

StartChar: onehalf
Encoding: 189 189 135
Width: 600
GlyphClass: 2
Flags: W
LayerCount: 2
Back
Fore
SplineSet
262 100 m 1,0,-1
 262 200 l 1,1,-1
 300 200 l 1,2,-1
 300 300 l 1,3,-1
 450 300 l 1,4,-1
 450 200 l 1,5,-1
 488 200 l 1,6,-1
 488 100 l 1,7,-1
 450 100 l 1,8,-1
 450 0 l 1,9,-1
 375 0 l 1,10,-1
 375 -100 l 1,11,12
 375 -100 375 -100 488 -100 c 1,13,-1
 488 -200 l 1,14,-1
 262 -200 l 1,15,-1
 262 -100 l 1,16,-1
 300 -100 l 1,17,-1
 300 0 l 1,18,-1
 375 0 l 1,19,-1
 375 100 l 1,20,21
 375 100 375 100 412 100 c 1,22,-1
 412 200 l 1,23,-1
 338 200 l 1,24,-1
 338 100 l 1,25,-1
 262 100 l 1,0,-1
150 600 m 1,26,-1
 150 700 l 1,27,-1
 225 700 l 1,28,-1
 225 200 l 1,29,-1
 150 200 l 1,30,-1
 150 500 l 1,31,-1
 112 500 l 1,32,-1
 112 600 l 1,33,-1
 150 600 l 1,26,-1
EndSplineSet
Validated: 5
EndChar

StartChar: threequarters
Encoding: 190 190 136
Width: 600
GlyphClass: 2
Flags: W
LayerCount: 2
Back
Fore
SplineSet
381 200 m 1,0,-1
 381 300 l 1,1,-1
 456 300 l 1,2,-1
 456 200 l 1,3,-1
 419 200 l 1,4,-1
 419 100 l 1,5,-1
 381 100 l 1,6,-1
 381 0 l 1,7,-1
 456 0 l 1,8,-1
 456 100 l 1,9,-1
 531 100 l 1,10,-1
 531 -200 l 1,11,-1
 456 -200 l 1,12,-1
 456 -100 l 1,13,-1
 306 -100 l 1,14,-1
 306 100 l 1,15,-1
 344 100 l 1,16,-1
 344 200 l 1,17,-1
 381 200 l 1,0,-1
119 600 m 1,18,-1
 119 700 l 1,19,-1
 306 700 l 1,20,-1
 306 500 l 1,21,-1
 269 500 l 1,22,-1
 269 400 l 1,23,-1
 306 400 l 1,24,-1
 306 300 l 1,25,-1
 269 300 l 1,26,-1
 269 200 l 1,27,-1
 119 200 l 1,28,-1
 119 300 l 1,29,-1
 231 300 l 1,30,-1
 231 400 l 1,31,-1
 156 400 l 1,32,-1
 156 500 l 1,33,-1
 231 500 l 1,34,-1
 231 600 l 1,35,-1
 119 600 l 1,18,-1
EndSplineSet
Validated: 1
EndChar

StartChar: questiondown
Encoding: 191 191 137
Width: 600
GlyphClass: 2
Flags: W
LayerCount: 2
Back
Fore
SplineSet
269 600 m 1,0,-1
 269 700 l 1,1,-1
 344 700 l 1,2,-1
 344 600 l 1,3,-1
 269 600 l 1,0,-1
194 0 m 1,4,-1
 194 100 l 1,5,-1
 156 100 l 1,6,-1
 156 300 l 1,7,-1
 194 300 l 1,8,-1
 194 400 l 1,9,-1
 269 400 l 1,10,-1
 269 500 l 1,11,-1
 344 500 l 1,12,-1
 344 400 l 1,13,-1
 269 400 l 1,14,-1
 269 300 l 1,15,-1
 231 300 l 1,16,-1
 231 100 l 1,17,-1
 419 100 l 1,18,-1
 419 300 l 1,19,-1
 494 300 l 1,20,-1
 494 100 l 1,21,-1
 456 100 l 1,22,-1
 456 0 l 1,23,-1
 194 0 l 1,4,-1
EndSplineSet
Validated: 5
EndChar

StartChar: Agrave
Encoding: 192 192 138
Width: 600
GlyphClass: 2
Flags: W
LayerCount: 2
Back
Fore
SplineSet
338 700 m 1,0,-1
 338 800 l 1,1,-1
 412 800 l 1,2,-1
 412 700 l 1,3,-1
 338 700 l 1,0,-1
188 700 m 1,4,-1
 188 800 l 1,5,-1
 262 800 l 1,6,-1
 262 700 l 1,7,-1
 188 700 l 1,4,-1
188 300 m 1,8,-1
 412 300 l 1,9,-1
 412 400 l 1,10,-1
 375 400 l 1,11,-1
 374 500 l 1,12,-1
 225 500 l 1,13,-1
 224 400 l 1,14,-1
 188 400 l 1,15,-1
 188 300 l 1,8,-1
112 0 m 1,16,-1
 112 400 l 1,17,-1
 150 400 l 1,18,-1
 150 500 l 1,19,-1
 188 500 l 1,20,-1
 188 600 l 1,21,-1
 412 600 l 1,22,-1
 412 500 l 1,23,-1
 450 500 l 1,24,-1
 450 400 l 1,25,-1
 488 400 l 1,26,-1
 488 0 l 1,27,-1
 412 0 l 1,28,-1
 412 200 l 1,29,-1
 188 200 l 1,30,-1
 188 0 l 1,31,-1
 112 0 l 1,16,-1
EndSplineSet
Validated: 1
EndChar

StartChar: Aacute
Encoding: 193 193 139
Width: 600
GlyphClass: 2
Flags: W
LayerCount: 2
Back
Fore
SplineSet
338 700 m 1,0,-1
 338 800 l 1,1,-1
 412 800 l 1,2,-1
 412 700 l 1,3,-1
 338 700 l 1,0,-1
188 700 m 1,4,-1
 188 800 l 1,5,-1
 262 800 l 1,6,-1
 262 700 l 1,7,-1
 188 700 l 1,4,-1
188 300 m 1,8,-1
 412 300 l 1,9,-1
 412 400 l 1,10,-1
 375 400 l 1,11,-1
 374 500 l 1,12,-1
 225 500 l 1,13,-1
 224 400 l 1,14,-1
 188 400 l 1,15,-1
 188 300 l 1,8,-1
112 0 m 1,16,-1
 112 400 l 1,17,-1
 150 400 l 1,18,-1
 150 500 l 1,19,-1
 188 500 l 1,20,-1
 188 600 l 1,21,-1
 412 600 l 1,22,-1
 412 500 l 1,23,-1
 450 500 l 1,24,-1
 450 400 l 1,25,-1
 488 400 l 1,26,-1
 488 0 l 1,27,-1
 412 0 l 1,28,-1
 412 200 l 1,29,-1
 188 200 l 1,30,-1
 188 0 l 1,31,-1
 112 0 l 1,16,-1
EndSplineSet
Validated: 1
EndChar

StartChar: Acircumflex
Encoding: 194 194 140
Width: 600
GlyphClass: 2
Flags: W
LayerCount: 2
Back
Fore
SplineSet
262 600 m 1,0,-1
 338 600 l 1,1,-1
 338 700 l 1,2,-1
 262 700 l 1,3,-1
 262 600 l 1,0,-1
188 300 m 1,4,-1
 412 300 l 1,5,-1
 412 400 l 1,6,-1
 375 400 l 1,7,-1
 375 500 l 1,8,-1
 225 500 l 1,9,-1
 225 400 l 1,10,11
 225 400 225 400 188 400 c 1,12,-1
 188 300 l 1,4,-1
412 500 m 1,13,-1
 450 500 l 1,14,-1
 450 400 l 1,15,-1
 488 400 l 1,16,-1
 488 0 l 1,17,-1
 412 0 l 1,18,-1
 412 200 l 1,19,-1
 188 200 l 1,20,-1
 188 0 l 1,21,-1
 112 0 l 1,22,-1
 112 400 l 1,23,-1
 150 400 l 1,24,-1
 150 500 l 1,25,-1
 188 500 l 1,26,-1
 188 800 l 1,27,-1
 412 800 l 1,28,-1
 412 500 l 1,13,-1
EndSplineSet
Validated: 1
EndChar

StartChar: Atilde
Encoding: 195 195 141
Width: 600
GlyphClass: 2
Flags: W
LayerCount: 2
Back
Fore
SplineSet
188 700 m 1,0,-1
 188 800 l 1,1,-1
 412 800 l 1,2,-1
 412 700 l 1,3,-1
 188 700 l 1,0,-1
188 300 m 1,4,-1
 412 300 l 1,5,-1
 412 400 l 1,6,-1
 375 400 l 1,7,-1
 375 500 l 1,8,-1
 225 500 l 1,9,-1
 225 400 l 1,10,11
 225 400 225 400 188 400 c 1,12,-1
 188 300 l 1,4,-1
112 0 m 1,13,-1
 112 400 l 1,14,-1
 150 400 l 1,15,-1
 150 500 l 1,16,-1
 188 500 l 1,17,-1
 188 600 l 1,18,-1
 412 600 l 1,19,-1
 412 500 l 1,20,-1
 450 500 l 1,21,-1
 450 400 l 1,22,-1
 488 400 l 1,23,-1
 488 0 l 1,24,-1
 412 0 l 1,25,-1
 412 200 l 1,26,-1
 188 200 l 1,27,-1
 188 0 l 1,28,-1
 112 0 l 1,13,-1
EndSplineSet
Validated: 1
EndChar

StartChar: Adieresis
Encoding: 196 196 142
Width: 600
GlyphClass: 2
Flags: W
LayerCount: 2
Back
Fore
SplineSet
338 700 m 1,0,-1
 338 800 l 1,1,-1
 412 800 l 1,2,-1
 412 700 l 1,3,-1
 338 700 l 1,0,-1
188 700 m 1,4,-1
 188 800 l 1,5,-1
 262 800 l 1,6,-1
 262 700 l 1,7,-1
 188 700 l 1,4,-1
188 300 m 1,8,-1
 412 300 l 1,9,-1
 412 400 l 1,10,-1
 375 400 l 1,11,-1
 375 500 l 1,12,-1
 225 500 l 1,13,-1
 225 400 l 1,14,15
 225 400 225 400 188 400 c 1,16,-1
 188 300 l 1,8,-1
112 0 m 1,17,-1
 112 400 l 1,18,-1
 150 400 l 1,19,-1
 150 500 l 1,20,-1
 188 500 l 1,21,-1
 188 600 l 1,22,-1
 412 600 l 1,23,-1
 412 500 l 1,24,-1
 450 500 l 1,25,-1
 450 400 l 1,26,-1
 488 400 l 1,27,-1
 488 0 l 1,28,-1
 412 0 l 1,29,-1
 412 200 l 1,30,-1
 188 200 l 1,31,-1
 188 0 l 1,32,-1
 112 0 l 1,17,-1
EndSplineSet
Validated: 1
EndChar

StartChar: Aring
Encoding: 197 197 143
Width: 600
GlyphClass: 2
Flags: W
LayerCount: 2
Back
Fore
SplineSet
338 600 m 1,0,-1
 338 700 l 1,1,-1
 262 700 l 1,2,-1
 262 600 l 1,3,-1
 338 600 l 1,0,-1
188 300 m 1,4,-1
 412 300 l 1,5,-1
 412 400 l 1,6,-1
 375 400 l 1,7,-1
 375 500 l 1,8,-1
 225 500 l 1,9,-1
 225 400 l 1,10,11
 225 400 225 400 188 400 c 1,12,-1
 188 300 l 1,4,-1
412 500 m 1,13,-1
 450 500 l 1,14,-1
 450 400 l 1,15,-1
 488 400 l 1,16,-1
 488 0 l 1,17,-1
 412 0 l 1,18,-1
 412 200 l 1,19,-1
 188 200 l 1,20,-1
 188 0 l 1,21,-1
 112 0 l 1,22,-1
 112 400 l 1,23,-1
 150 400 l 1,24,-1
 150 500 l 1,25,-1
 188 500 l 1,26,-1
 188 700 l 1,27,-1
 225 700 l 1,28,-1
 225 800 l 1,29,-1
 375 800 l 1,30,-1
 375 700 l 1,31,32
 375 700 375 700 412 700 c 1,33,-1
 412 500 l 1,13,-1
EndSplineSet
Validated: 1
EndChar

StartChar: AE
Encoding: 198 198 144
Width: 600
GlyphClass: 2
Flags: W
LayerCount: 2
Back
Fore
SplineSet
262 600 m 1,0,-1
 262 500 l 1,1,-1
 225 500 l 1,2,-1
 225 400 l 1,3,4
 225 400 225 400 188 400 c 1,5,-1
 188 300 l 1,6,-1
 300 300 l 1,7,-1
 300 600 l 1,8,-1
 262 600 l 1,0,-1
188 200 m 1,9,-1
 188 0 l 1,10,-1
 112 0 l 1,11,-1
 112 400 l 1,12,-1
 150 400 l 1,13,-1
 150 500 l 1,14,-1
 188 500 l 1,15,-1
 188 600 l 1,16,-1
 225 600 l 1,17,-1
 225 700 l 1,18,19
 225 700 225 700 488 700 c 1,20,-1
 488 600 l 1,21,-1
 375 600 l 1,22,-1
 375 400 l 1,23,24
 375 400 375 400 488 400 c 1,25,-1
 488 300 l 1,26,-1
 375 300 l 1,27,-1
 375 100 l 1,28,29
 375 100 375 100 488 100 c 1,30,-1
 488 0 l 1,31,-1
 300 0 l 1,32,-1
 300 200 l 1,33,-1
 188 200 l 1,9,-1
EndSplineSet
Validated: 1
EndChar

StartChar: Ccedilla
Encoding: 199 199 145
Width: 600
GlyphClass: 2
Flags: W
LayerCount: 2
Back
Fore
SplineSet
231 700 m 1,0,-1
 456 700 l 1,1,-1
 456 600 l 1,2,-1
 494 600 l 1,3,-1
 494 500 l 1,4,-1
 419 500 l 1,5,-1
 419 600 l 1,6,-1
 269 600 l 1,7,-1
 269 500 l 1,8,-1
 231 500 l 1,9,-1
 231 200 l 1,10,-1
 269 200 l 1,11,-1
 269 100 l 1,12,-1
 419 100 l 1,13,-1
 419 200 l 1,14,-1
 494 200 l 1,15,-1
 494 100 l 1,16,-1
 456 100 l 1,17,-1
 456 0 l 1,18,-1
 231 0 l 1,19,-1
 231 100 l 1,20,-1
 194 100 l 1,21,-1
 194 200 l 1,22,-1
 156 200 l 1,23,-1
 156 500 l 1,24,-1
 194 500 l 1,25,-1
 194 600 l 1,26,-1
 231 600 l 1,27,-1
 231 700 l 1,0,-1
EndSplineSet
Validated: 1
EndChar

StartChar: Egrave
Encoding: 200 200 146
Width: 600
GlyphClass: 2
Flags: W
LayerCount: 2
Back
Fore
SplineSet
381 700 m 1,0,-1
 381 800 l 1,1,-1
 456 800 l 1,2,-1
 456 700 l 1,3,-1
 381 700 l 1,0,-1
194 700 m 1,4,-1
 194 800 l 1,5,-1
 269 800 l 1,6,-1
 269 700 l 1,7,-1
 194 700 l 1,4,-1
494 500 m 1,8,-1
 231 500 l 1,9,-1
 231 400 l 1,10,-1
 419 400 l 1,11,-1
 419 300 l 1,12,-1
 231 300 l 1,13,-1
 231 100 l 1,14,-1
 494 100 l 1,15,-1
 494 0 l 1,16,-1
 156 0 l 1,17,-1
 156 600 l 1,18,-1
 494 600 l 1,19,-1
 494 500 l 1,8,-1
EndSplineSet
Validated: 1
EndChar

StartChar: Eacute
Encoding: 201 201 147
Width: 600
GlyphClass: 2
Flags: W
LayerCount: 2
Back
Fore
SplineSet
381 700 m 1,0,-1
 381 800 l 1,1,-1
 456 800 l 1,2,-1
 456 700 l 1,3,-1
 381 700 l 1,0,-1
194 700 m 1,4,-1
 194 800 l 1,5,-1
 269 800 l 1,6,-1
 269 700 l 1,7,-1
 194 700 l 1,4,-1
494 500 m 1,8,-1
 231 500 l 1,9,-1
 231 400 l 1,10,-1
 419 400 l 1,11,-1
 419 300 l 1,12,-1
 231 300 l 1,13,-1
 231 100 l 1,14,-1
 494 100 l 1,15,-1
 494 0 l 1,16,-1
 156 0 l 1,17,-1
 156 600 l 1,18,-1
 494 600 l 1,19,-1
 494 500 l 1,8,-1
EndSplineSet
Validated: 1
EndChar

StartChar: Ecircumflex
Encoding: 202 202 148
Width: 600
GlyphClass: 2
Flags: W
LayerCount: 2
Back
Fore
SplineSet
381 700 m 1,0,-1
 381 800 l 1,1,-1
 456 800 l 1,2,-1
 456 700 l 1,3,-1
 381 700 l 1,0,-1
194 700 m 1,4,-1
 194 800 l 1,5,-1
 269 800 l 1,6,-1
 269 700 l 1,7,-1
 194 700 l 1,4,-1
494 500 m 1,8,-1
 231 500 l 1,9,-1
 231 400 l 1,10,-1
 419 400 l 1,11,-1
 419 300 l 1,12,-1
 231 300 l 1,13,-1
 231 100 l 1,14,-1
 494 100 l 1,15,-1
 494 0 l 1,16,-1
 156 0 l 1,17,-1
 156 600 l 1,18,-1
 494 600 l 1,19,-1
 494 500 l 1,8,-1
EndSplineSet
Validated: 1
EndChar

StartChar: Edieresis
Encoding: 203 203 149
Width: 600
GlyphClass: 2
Flags: W
LayerCount: 2
Back
Fore
SplineSet
381 700 m 1,0,-1
 381 800 l 1,1,-1
 456 800 l 1,2,-1
 456 700 l 1,3,-1
 381 700 l 1,0,-1
194 700 m 1,4,-1
 194 800 l 1,5,-1
 269 800 l 1,6,-1
 269 700 l 1,7,-1
 194 700 l 1,4,-1
494 500 m 1,8,-1
 231 500 l 1,9,-1
 231 400 l 1,10,-1
 419 400 l 1,11,-1
 419 300 l 1,12,-1
 231 300 l 1,13,-1
 231 100 l 1,14,-1
 494 100 l 1,15,-1
 494 0 l 1,16,-1
 156 0 l 1,17,-1
 156 600 l 1,18,-1
 494 600 l 1,19,-1
 494 500 l 1,8,-1
EndSplineSet
Validated: 1
EndChar

StartChar: Igrave
Encoding: 204 204 150
Width: 600
GlyphClass: 2
Flags: W
LayerCount: 2
Back
Fore
SplineSet
150 700 m 1,0,-1
 450 700 l 1,1,-1
 450 600 l 1,2,-1
 338 600 l 1,3,-1
 338 100 l 1,4,-1
 450 100 l 1,5,-1
 450 0 l 1,6,-1
 150 0 l 1,7,-1
 150 100 l 1,8,-1
 262 100 l 1,9,-1
 262 600 l 1,10,-1
 150 600 l 1,11,-1
 150 700 l 1,0,-1
EndSplineSet
Validated: 1
EndChar

StartChar: Iacute
Encoding: 205 205 151
Width: 600
GlyphClass: 2
Flags: W
LayerCount: 2
Back
Fore
SplineSet
150 700 m 1,0,-1
 450 700 l 1,1,-1
 450 600 l 1,2,-1
 338 600 l 1,3,-1
 338 100 l 1,4,-1
 450 100 l 1,5,-1
 450 0 l 1,6,-1
 150 0 l 1,7,-1
 150 100 l 1,8,-1
 262 100 l 1,9,-1
 262 600 l 1,10,-1
 150 600 l 1,11,-1
 150 700 l 1,0,-1
EndSplineSet
Validated: 1
EndChar

StartChar: Icircumflex
Encoding: 206 206 152
Width: 600
GlyphClass: 2
Flags: W
LayerCount: 2
Back
Fore
SplineSet
150 700 m 1,0,-1
 450 700 l 1,1,-1
 450 600 l 1,2,-1
 338 600 l 1,3,-1
 338 100 l 1,4,-1
 450 100 l 1,5,-1
 450 0 l 1,6,-1
 150 0 l 1,7,-1
 150 100 l 1,8,-1
 262 100 l 1,9,-1
 262 600 l 1,10,-1
 150 600 l 1,11,-1
 150 700 l 1,0,-1
EndSplineSet
Validated: 1
EndChar

StartChar: Idieresis
Encoding: 207 207 153
Width: 600
GlyphClass: 2
Flags: W
LayerCount: 2
Back
Fore
SplineSet
150 700 m 1,0,-1
 450 700 l 1,1,-1
 450 600 l 1,2,-1
 338 600 l 1,3,-1
 338 100 l 1,4,-1
 450 100 l 1,5,-1
 450 0 l 1,6,-1
 150 0 l 1,7,-1
 150 100 l 1,8,-1
 262 100 l 1,9,-1
 262 600 l 1,10,-1
 150 600 l 1,11,-1
 150 700 l 1,0,-1
EndSplineSet
Validated: 1
EndChar

StartChar: Eth
Encoding: 208 208 154
Width: 600
GlyphClass: 2
Flags: W
LayerCount: 2
Back
Fore
SplineSet
231 600 m 1,0,-1
 231 100 l 1,1,-1
 381 100 l 1,2,-1
 381 200 l 1,3,-1
 419 200 l 1,4,-1
 419 500 l 1,5,-1
 381 500 l 1,6,-1
 381 600 l 1,7,-1
 231 600 l 1,0,-1
156 700 m 1,8,-1
 419 700 l 1,9,-1
 419 600 l 1,10,-1
 456 600 l 1,11,-1
 456 500 l 1,12,-1
 494 500 l 1,13,-1
 494 200 l 1,14,-1
 456 200 l 1,15,-1
 456 100 l 1,16,-1
 419 100 l 1,17,-1
 419 0 l 1,18,-1
 156 0 l 1,19,-1
 156 700 l 1,8,-1
EndSplineSet
Validated: 1
EndChar

StartChar: Ntilde
Encoding: 209 209 155
Width: 600
GlyphClass: 2
Flags: W
LayerCount: 2
Back
Fore
SplineSet
188 700 m 1,0,-1
 188 800 l 1,1,-1
 412 800 l 1,2,-1
 412 700 l 1,3,-1
 188 700 l 1,0,-1
112 0 m 1,4,-1
 112 600 l 1,5,-1
 262 600 l 1,6,-1
 262 500 l 1,7,-1
 300 500 l 1,8,-1
 300 400 l 1,9,-1
 338 400 l 1,10,-1
 338 200 l 1,11,-1
 375 200 l 1,12,-1
 375 100 l 1,13,14
 375 100 375 100 412 100 c 1,15,-1
 412 600 l 1,16,-1
 488 600 l 1,17,-1
 488 0 l 1,18,-1
 338 0 l 1,19,-1
 338 100 l 1,20,-1
 300 100 l 1,21,-1
 300 200 l 1,22,-1
 262 200 l 1,23,-1
 262 400 l 1,24,-1
 225 400 l 1,25,-1
 225 500 l 1,26,27
 225 500 225 500 188 500 c 1,28,-1
 188 0 l 1,29,-1
 112 0 l 1,4,-1
EndSplineSet
Validated: 1
EndChar

StartChar: Ograve
Encoding: 210 210 156
Width: 600
GlyphClass: 2
Flags: W
LayerCount: 2
Back
Fore
SplineSet
225 500 m 1,0,-1
 225 400 l 1,1,2
 225 400 225 400 188 400 c 1,3,-1
 188 200 l 1,4,-1
 225 200 l 1,5,-1
 225 100 l 1,6,-1
 375 100 l 1,7,-1
 375 200 l 1,8,9
 375 200 375 200 412 200 c 1,10,-1
 412 400 l 1,11,-1
 375 400 l 1,12,-1
 375 500 l 1,13,-1
 225 500 l 1,0,-1
412 500 m 1,14,-1
 450 500 l 1,15,-1
 450 400 l 1,16,-1
 488 400 l 1,17,-1
 488 200 l 1,18,-1
 450 200 l 1,19,-1
 450 100 l 1,20,-1
 412 100 l 1,21,-1
 412 0 l 1,22,-1
 188 0 l 1,23,-1
 188 100 l 1,24,-1
 150 100 l 1,25,-1
 150 200 l 1,26,-1
 112 200 l 1,27,-1
 112 400 l 1,28,-1
 150 400 l 1,29,-1
 150 500 l 1,30,-1
 188 500 l 1,31,-1
 188 600 l 1,32,-1
 262 600 l 1,33,-1
 262 700 l 1,34,-1
 225 700 l 1,35,-1
 225 800 l 1,36,-1
 300 800 l 1,37,-1
 300 700 l 1,38,-1
 338 700 l 1,39,-1
 338 600 l 1,40,-1
 412 600 l 1,41,-1
 412 500 l 1,14,-1
EndSplineSet
Validated: 1
EndChar

StartChar: Oacute
Encoding: 211 211 157
Width: 600
GlyphClass: 2
Flags: W
LayerCount: 2
Back
Fore
SplineSet
225 500 m 1,0,-1
 225 400 l 1,1,2
 225 400 225 400 188 400 c 1,3,-1
 188 200 l 1,4,-1
 225 200 l 1,5,-1
 225 100 l 1,6,-1
 375 100 l 1,7,-1
 375 200 l 1,8,9
 375 200 375 200 412 200 c 1,10,-1
 412 400 l 1,11,-1
 375 400 l 1,12,-1
 375 500 l 1,13,-1
 225 500 l 1,0,-1
412 500 m 1,14,-1
 450 500 l 1,15,-1
 450 400 l 1,16,-1
 488 400 l 1,17,-1
 488 200 l 1,18,-1
 450 200 l 1,19,-1
 450 100 l 1,20,-1
 412 100 l 1,21,-1
 412 0 l 1,22,-1
 188 0 l 1,23,-1
 188 100 l 1,24,-1
 150 100 l 1,25,-1
 150 200 l 1,26,-1
 112 200 l 1,27,-1
 112 400 l 1,28,-1
 150 400 l 1,29,-1
 150 500 l 1,30,-1
 188 500 l 1,31,-1
 188 600 l 1,32,-1
 262 600 l 1,33,-1
 262 700 l 1,34,-1
 300 700 l 1,35,-1
 300 800 l 1,36,-1
 375 800 l 1,37,-1
 375 700 l 1,38,39
 375 700 375 700 338 700 c 1,40,-1
 338 600 l 1,41,-1
 412 600 l 1,42,-1
 412 500 l 1,14,-1
EndSplineSet
Validated: 1
EndChar

StartChar: Ocircumflex
Encoding: 212 212 158
Width: 600
GlyphClass: 2
Flags: W
LayerCount: 2
Back
Fore
SplineSet
225 500 m 1,0,-1
 225 400 l 1,1,2
 225 400 225 400 188 400 c 1,3,-1
 188 200 l 1,4,-1
 225 200 l 1,5,-1
 225 100 l 1,6,-1
 375 100 l 1,7,-1
 375 200 l 1,8,9
 375 200 375 200 412 200 c 1,10,-1
 412 400 l 1,11,-1
 375 400 l 1,12,-1
 375 500 l 1,13,-1
 225 500 l 1,0,-1
188 600 m 1,14,-1
 412 600 l 1,15,-1
 412 500 l 1,16,-1
 450 500 l 1,17,-1
 450 400 l 1,18,-1
 488 400 l 1,19,-1
 488 200 l 1,20,-1
 450 200 l 1,21,-1
 450 100 l 1,22,-1
 412 100 l 1,23,-1
 412 0 l 1,24,-1
 188 0 l 1,25,-1
 188 100 l 1,26,-1
 150 100 l 1,27,-1
 150 200 l 1,28,-1
 112 200 l 1,29,-1
 112 400 l 1,30,-1
 150 400 l 1,31,-1
 150 500 l 1,32,-1
 188 500 l 1,33,-1
 188 600 l 1,14,-1
262 700 m 1,34,-1
 262 800 l 1,35,-1
 338 800 l 1,36,-1
 338 700 l 1,37,-1
 262 700 l 1,34,-1
EndSplineSet
Validated: 1
EndChar

StartChar: Otilde
Encoding: 213 213 159
Width: 600
GlyphClass: 2
Flags: W
LayerCount: 2
Back
Fore
SplineSet
225 500 m 1,0,-1
 225 400 l 1,1,2
 225 400 225 400 188 400 c 1,3,-1
 188 200 l 1,4,-1
 225 200 l 1,5,-1
 225 100 l 1,6,-1
 375 100 l 1,7,-1
 375 200 l 1,8,9
 375 200 375 200 412 200 c 1,10,-1
 412 400 l 1,11,-1
 375 400 l 1,12,-1
 375 500 l 1,13,-1
 225 500 l 1,0,-1
188 600 m 1,14,-1
 412 600 l 1,15,-1
 412 500 l 1,16,-1
 450 500 l 1,17,-1
 450 400 l 1,18,-1
 488 400 l 1,19,-1
 488 200 l 1,20,-1
 450 200 l 1,21,-1
 450 100 l 1,22,-1
 412 100 l 1,23,-1
 412 0 l 1,24,-1
 188 0 l 1,25,-1
 188 100 l 1,26,-1
 150 100 l 1,27,-1
 150 200 l 1,28,-1
 112 200 l 1,29,-1
 112 400 l 1,30,-1
 150 400 l 1,31,-1
 150 500 l 1,32,-1
 188 500 l 1,33,-1
 188 600 l 1,14,-1
188 700 m 1,34,-1
 188 800 l 1,35,-1
 412 800 l 1,36,-1
 412 700 l 1,37,-1
 188 700 l 1,34,-1
EndSplineSet
Validated: 1
EndChar

StartChar: Odieresis
Encoding: 214 214 160
Width: 600
GlyphClass: 2
Flags: W
LayerCount: 2
Back
Fore
SplineSet
225 500 m 1,0,-1
 225 400 l 1,1,2
 225 400 225 400 188 400 c 1,3,-1
 188 200 l 1,4,-1
 225 200 l 1,5,-1
 225 100 l 1,6,-1
 375 100 l 1,7,-1
 375 200 l 1,8,9
 375 200 375 200 412 200 c 1,10,-1
 412 400 l 1,11,-1
 375 400 l 1,12,-1
 375 500 l 1,13,-1
 225 500 l 1,0,-1
188 600 m 1,14,-1
 412 600 l 1,15,-1
 412 500 l 1,16,-1
 450 500 l 1,17,-1
 450 400 l 1,18,-1
 488 400 l 1,19,-1
 488 200 l 1,20,-1
 450 200 l 1,21,-1
 450 100 l 1,22,-1
 412 100 l 1,23,-1
 412 0 l 1,24,-1
 188 0 l 1,25,-1
 188 100 l 1,26,-1
 150 100 l 1,27,-1
 150 200 l 1,28,-1
 112 200 l 1,29,-1
 112 400 l 1,30,-1
 150 400 l 1,31,-1
 150 500 l 1,32,-1
 188 500 l 1,33,-1
 188 600 l 1,14,-1
338 700 m 1,34,-1
 338 800 l 1,35,-1
 412 800 l 1,36,-1
 412 700 l 1,37,-1
 338 700 l 1,34,-1
188 700 m 1,38,-1
 188 800 l 1,39,-1
 262 800 l 1,40,-1
 262 700 l 1,41,-1
 188 700 l 1,38,-1
EndSplineSet
Validated: 1
EndChar

StartChar: multiply
Encoding: 215 215 161
Width: 600
GlyphClass: 2
Flags: W
LayerCount: 2
Back
Fore
SplineSet
188 200 m 1,0,-1
 188 300 l 1,1,-1
 262 300 l 1,2,-1
 262 400 l 1,3,-1
 188 400 l 1,4,-1
 188 500 l 1,5,-1
 262 500 l 1,6,-1
 262 400 l 1,7,-1
 338 400 l 1,8,-1
 338 500 l 1,9,-1
 412 500 l 1,10,-1
 412 400 l 1,11,-1
 338 400 l 1,12,-1
 338 300 l 1,13,-1
 412 300 l 1,14,-1
 412 200 l 1,15,-1
 338 200 l 1,16,-1
 338 300 l 1,17,-1
 262 300 l 1,18,-1
 262 200 l 1,19,-1
 188 200 l 1,0,-1
EndSplineSet
Validated: 5
EndChar

StartChar: Oslash
Encoding: 216 216 162
Width: 600
GlyphClass: 2
Flags: W
LayerCount: 2
Back
Fore
SplineSet
375 100 m 1,0,-1
 375 200 l 1,1,2
 375 200 375 200 412 200 c 1,3,-1
 412 500 l 1,4,-1
 375 500 l 1,5,-1
 375 600 l 1,6,-1
 225 600 l 1,7,-1
 225 500 l 1,8,9
 225 500 225 500 188 500 c 1,10,-1
 188 200 l 1,11,-1
 225 200 l 1,12,-1
 225 100 l 1,13,-1
 375 100 l 1,0,-1
412 0 m 1,14,-1
 188 0 l 1,15,-1
 188 100 l 1,16,-1
 150 100 l 1,17,-1
 150 200 l 1,18,-1
 112 200 l 1,19,-1
 112 500 l 1,20,-1
 150 500 l 1,21,-1
 150 600 l 1,22,-1
 188 600 l 1,23,-1
 188 700 l 1,24,-1
 412 700 l 1,25,-1
 412 600 l 1,26,-1
 450 600 l 1,27,-1
 450 500 l 1,28,-1
 488 500 l 1,29,-1
 488 200 l 1,30,-1
 450 200 l 1,31,-1
 450 100 l 1,32,-1
 412 100 l 1,33,-1
 412 0 l 1,14,-1
EndSplineSet
Validated: 1
EndChar

StartChar: Ugrave
Encoding: 217 217 163
Width: 600
GlyphClass: 2
Flags: W
LayerCount: 2
Back
Fore
SplineSet
306 600 m 1,0,-1
 306 700 l 1,1,-1
 269 700 l 1,2,-1
 269 800 l 1,3,-1
 344 800 l 1,4,-1
 344 700 l 1,5,-1
 381 700 l 1,6,-1
 381 600 l 1,7,-1
 306 600 l 1,0,-1
156 600 m 1,8,-1
 231 600 l 1,9,-1
 231 100 l 1,10,-1
 419 100 l 1,11,-1
 419 600 l 1,12,-1
 494 600 l 1,13,-1
 494 100 l 1,14,-1
 456 100 l 1,15,-1
 456 0 l 1,16,-1
 194 0 l 1,17,-1
 194 100 l 1,18,-1
 156 100 l 1,19,-1
 156 600 l 1,8,-1
EndSplineSet
Validated: 1
EndChar

StartChar: Uacute
Encoding: 218 218 164
Width: 600
GlyphClass: 2
Flags: W
LayerCount: 2
Back
Fore
SplineSet
156 600 m 1,0,-1
 231 600 l 1,1,-1
 231 100 l 1,2,-1
 419 100 l 1,3,-1
 419 600 l 1,4,-1
 494 600 l 1,5,-1
 494 100 l 1,6,-1
 456 100 l 1,7,-1
 456 0 l 1,8,-1
 194 0 l 1,9,-1
 194 100 l 1,10,-1
 156 100 l 1,11,-1
 156 600 l 1,0,-1
EndSplineSet
Validated: 1
EndChar

StartChar: Ucircumflex
Encoding: 219 219 165
Width: 600
GlyphClass: 2
Flags: W
LayerCount: 2
Back
Fore
SplineSet
381 800 m 1,0,-1
 456 800 l 1,1,-1
 456 700 l 1,2,-1
 381 700 l 1,3,-1
 381 800 l 1,0,-1
194 700 m 1,4,-1
 194 800 l 1,5,-1
 269 800 l 1,6,-1
 269 700 l 1,7,-1
 194 700 l 1,4,-1
156 600 m 1,8,-1
 231 600 l 1,9,-1
 231 100 l 1,10,-1
 419 100 l 1,11,-1
 419 600 l 1,12,-1
 494 600 l 1,13,-1
 494 100 l 1,14,-1
 456 100 l 1,15,-1
 456 0 l 1,16,-1
 194 0 l 1,17,-1
 194 100 l 1,18,-1
 156 100 l 1,19,-1
 156 600 l 1,8,-1
EndSplineSet
Validated: 1
EndChar

StartChar: Udieresis
Encoding: 220 220 166
Width: 600
GlyphClass: 2
Flags: W
LayerCount: 2
Back
Fore
SplineSet
381 800 m 1,0,-1
 456 800 l 1,1,-1
 456 700 l 1,2,-1
 381 700 l 1,3,-1
 381 800 l 1,0,-1
194 700 m 1,4,-1
 194 800 l 1,5,-1
 269 800 l 1,6,-1
 269 700 l 1,7,-1
 194 700 l 1,4,-1
156 600 m 1,8,-1
 231 600 l 1,9,-1
 231 100 l 1,10,-1
 419 100 l 1,11,-1
 419 600 l 1,12,-1
 494 600 l 1,13,-1
 494 100 l 1,14,-1
 456 100 l 1,15,-1
 456 0 l 1,16,-1
 194 0 l 1,17,-1
 194 100 l 1,18,-1
 156 100 l 1,19,-1
 156 600 l 1,8,-1
EndSplineSet
Validated: 1
EndChar

StartChar: germandbls
Encoding: 223 223 167
Width: 600
GlyphClass: 2
Flags: W
LayerCount: 2
Back
Fore
SplineSet
231 600 m 1,0,-1
 231 700 l 1,1,-1
 419 700 l 1,2,-1
 419 600 l 1,3,-1
 456 600 l 1,4,-1
 456 400 l 1,5,-1
 419 400 l 1,6,-1
 419 300 l 1,7,-1
 494 300 l 1,8,-1
 494 100 l 1,9,-1
 456 100 l 1,10,-1
 456 0 l 1,11,-1
 269 0 l 1,12,-1
 269 100 l 1,13,-1
 419 100 l 1,14,-1
 419 300 l 1,15,-1
 306 300 l 1,16,-1
 306 400 l 1,17,-1
 381 400 l 1,18,-1
 381 600 l 1,19,-1
 269 600 l 1,20,-1
 269 500 l 1,21,-1
 231 500 l 1,22,-1
 231 0 l 1,23,-1
 156 0 l 1,24,-1
 156 500 l 1,25,-1
 194 500 l 1,26,-1
 194 600 l 1,27,-1
 231 600 l 1,0,-1
EndSplineSet
Validated: 5
EndChar

StartChar: agrave
Encoding: 224 224 168
Width: 600
GlyphClass: 2
Flags: W
LayerCount: 2
Back
Fore
SplineSet
262 600 m 1,0,-1
 262 700 l 1,1,-1
 225 700 l 1,2,-1
 225 800 l 1,3,-1
 300 800 l 1,4,-1
 300 700 l 1,5,-1
 338 700 l 1,6,-1
 338 600 l 1,7,-1
 262 600 l 1,0,-1
188 200 m 1,8,-1
 188 100 l 1,9,-1
 375 100 l 1,10,-1
 375 200 l 1,11,-1
 188 200 l 1,8,-1
150 500 m 1,12,-1
 412 500 l 1,13,-1
 412 400 l 1,14,-1
 450 400 l 1,15,-1
 450 100 l 1,16,-1
 487 100 l 2,17,18
 488 100 488 100 488 0 c 1,19,-1
 150 0 l 1,20,-1
 150 100 l 1,21,-1
 112 100 l 1,22,-1
 112 200 l 1,23,-1
 150 200 l 1,24,-1
 150 300 l 1,25,-1
 375 300 l 1,26,-1
 375 400 l 1,27,-1
 150 400 l 1,28,-1
 150 500 l 1,12,-1
EndSplineSet
Validated: 1
EndChar

StartChar: aacute
Encoding: 225 225 169
Width: 600
GlyphClass: 2
Flags: W
LayerCount: 2
Back
Fore
SplineSet
225 600 m 1,0,-1
 225 700 l 1,1,2
 225 700 225 700 262 700 c 1,3,-1
 262 800 l 1,4,-1
 338 800 l 1,5,-1
 338 700 l 1,6,-1
 300 700 l 1,7,-1
 300 600 l 1,8,-1
 225 600 l 1,0,-1
188 200 m 1,9,-1
 188 100 l 1,10,-1
 375 100 l 1,11,-1
 375 200 l 1,12,-1
 188 200 l 1,9,-1
150 500 m 1,13,-1
 412 500 l 1,14,-1
 412 400 l 1,15,-1
 450 400 l 1,16,-1
 450 100 l 1,17,-1
 487 100 l 2,18,19
 488 100 488 100 488 0 c 1,20,-1
 150 0 l 1,21,-1
 150 100 l 1,22,-1
 112 100 l 1,23,-1
 112 200 l 1,24,-1
 150 200 l 1,25,-1
 150 300 l 1,26,-1
 375 300 l 1,27,-1
 375 400 l 1,28,-1
 150 400 l 1,29,-1
 150 500 l 1,13,-1
EndSplineSet
Validated: 1
EndChar

StartChar: acircumflex
Encoding: 226 226 170
Width: 600
GlyphClass: 2
Flags: W
LayerCount: 2
Back
Fore
SplineSet
188 600 m 1,0,-1
 188 700 l 1,1,-1
 225 700 l 1,2,-1
 225 800 l 1,3,4
 225 800 225 800 338 800 c 1,5,-1
 338 700 l 1,6,-1
 375 700 l 1,7,-1
 375 600 l 1,8,-1
 300 600 l 1,9,-1
 300 700 l 1,10,-1
 262 700 l 1,11,-1
 262 600 l 1,12,-1
 188 600 l 1,0,-1
188 200 m 1,13,-1
 188 100 l 1,14,-1
 375 100 l 1,15,-1
 375 200 l 1,16,-1
 188 200 l 1,13,-1
150 500 m 1,17,-1
 412 500 l 1,18,-1
 412 400 l 1,19,-1
 450 400 l 1,20,-1
 450 100 l 1,21,-1
 487 100 l 2,22,23
 488 100 488 100 488 0 c 1,24,-1
 150 0 l 1,25,-1
 150 100 l 1,26,-1
 112 100 l 1,27,-1
 112 200 l 1,28,-1
 150 200 l 1,29,-1
 150 300 l 1,30,-1
 375 300 l 1,31,-1
 375 400 l 1,32,-1
 150 400 l 1,33,-1
 150 500 l 1,17,-1
EndSplineSet
Validated: 1
EndChar

StartChar: atilde
Encoding: 227 227 171
Width: 600
GlyphClass: 2
Flags: W
LayerCount: 2
Back
Fore
SplineSet
150 600 m 1,0,-1
 150 700 l 1,1,-1
 188 700 l 1,2,-1
 188 800 l 1,3,-1
 300 800 l 1,4,-1
 300 700 l 1,5,-1
 338 700 l 1,6,-1
 338 800 l 1,7,-1
 412 800 l 1,8,-1
 412 700 l 1,9,-1
 375 700 l 1,10,-1
 375 600 l 1,11,12
 375 600 375 600 262 600 c 1,13,-1
 262 700 l 1,14,-1
 225 700 l 1,15,-1
 225 600 l 1,16,-1
 150 600 l 1,0,-1
188 200 m 1,17,-1
 188 100 l 1,18,-1
 375 100 l 1,19,-1
 375 200 l 1,20,-1
 188 200 l 1,17,-1
150 500 m 1,21,-1
 412 500 l 1,22,-1
 412 400 l 1,23,-1
 450 400 l 1,24,-1
 450 100 l 1,25,-1
 487 100 l 2,26,27
 488 100 488 100 488 0 c 1,28,-1
 150 0 l 1,29,-1
 150 100 l 1,30,-1
 112 100 l 1,31,-1
 112 200 l 1,32,-1
 150 200 l 1,33,-1
 150 300 l 1,34,-1
 375 300 l 1,35,-1
 375 400 l 1,36,-1
 150 400 l 1,37,-1
 150 500 l 1,21,-1
EndSplineSet
Validated: 1
EndChar

StartChar: adieresis
Encoding: 228 228 172
Width: 600
GlyphClass: 2
Flags: W
LayerCount: 2
Back
Fore
SplineSet
338 600 m 1,0,-1
 338 700 l 1,1,-1
 412 700 l 1,2,-1
 412 600 l 1,3,-1
 338 600 l 1,0,-1
188 600 m 1,4,-1
 188 700 l 1,5,-1
 262 700 l 1,6,-1
 262 600 l 1,7,-1
 188 600 l 1,4,-1
188 200 m 1,8,-1
 188 100 l 1,9,-1
 375 100 l 1,10,-1
 375 200 l 1,11,-1
 188 200 l 1,8,-1
150 500 m 1,12,-1
 412 500 l 1,13,-1
 412 400 l 1,14,-1
 450 400 l 1,15,-1
 450 100 l 1,16,-1
 487 100 l 2,17,18
 488 100 488 100 488 0 c 1,19,-1
 150 0 l 1,20,-1
 150 100 l 1,21,-1
 112 100 l 1,22,-1
 112 200 l 1,23,-1
 150 200 l 1,24,-1
 150 300 l 1,25,-1
 375 300 l 1,26,-1
 375 400 l 1,27,-1
 150 400 l 1,28,-1
 150 500 l 1,12,-1
EndSplineSet
Validated: 1
EndChar

StartChar: aring
Encoding: 229 229 173
Width: 600
GlyphClass: 2
Flags: W
LayerCount: 2
Back
Fore
SplineSet
338 600 m 1,0,-1
 338 700 l 1,1,-1
 412 700 l 1,2,-1
 412 600 l 1,3,-1
 338 600 l 1,0,-1
188 600 m 1,4,-1
 188 700 l 1,5,-1
 262 700 l 1,6,-1
 262 600 l 1,7,-1
 188 600 l 1,4,-1
188 200 m 1,8,-1
 188 100 l 1,9,-1
 375 100 l 1,10,-1
 375 200 l 1,11,-1
 188 200 l 1,8,-1
150 500 m 1,12,-1
 412 500 l 1,13,-1
 412 400 l 1,14,-1
 450 400 l 1,15,-1
 450 100 l 1,16,-1
 487 100 l 2,17,18
 488 100 488 100 488 0 c 1,19,-1
 150 0 l 1,20,-1
 150 100 l 1,21,-1
 112 100 l 1,22,-1
 112 200 l 1,23,-1
 150 200 l 1,24,-1
 150 300 l 1,25,-1
 375 300 l 1,26,-1
 375 400 l 1,27,-1
 150 400 l 1,28,-1
 150 500 l 1,12,-1
EndSplineSet
Validated: 1
EndChar

StartChar: ae
Encoding: 230 230 174
Width: 600
GlyphClass: 2
Flags: W
LayerCount: 2
Back
Fore
SplineSet
381 300 m 1,0,-1
 456 300 l 1,1,-1
 456 400 l 1,2,-1
 381 400 l 1,3,-1
 381 300 l 1,0,-1
194 100 m 1,4,-1
 269 100 l 1,5,-1
 269 200 l 1,6,-1
 194 200 l 1,7,-1
 194 100 l 1,4,-1
156 0 m 1,8,-1
 156 100 l 1,9,-1
 119 100 l 1,10,-1
 119 200 l 1,11,-1
 156 200 l 1,12,-1
 156 300 l 1,13,-1
 269 300 l 1,14,-1
 269 400 l 1,15,-1
 156 400 l 1,16,-1
 156 500 l 1,17,-1
 306 500 l 1,18,-1
 306 400 l 1,19,-1
 381 400 l 1,20,-1
 381 500 l 1,21,-1
 494 500 l 1,22,-1
 494 400 l 1,23,-1
 531 400 l 1,24,-1
 531 200 l 1,25,-1
 381 200 l 1,26,-1
 381 100 l 1,27,-1
 531 100 l 1,28,-1
 531 0 l 1,29,-1
 344 0 l 1,30,-1
 344 100 l 1,31,-1
 306 100 l 1,32,-1
 306 0 l 1,33,-1
 156 0 l 1,8,-1
EndSplineSet
Validated: 5
EndChar

StartChar: ccedilla
Encoding: 231 231 175
Width: 600
GlyphClass: 2
Flags: W
LayerCount: 2
Back
Fore
SplineSet
231 100 m 1,0,-1
 194 100 l 1,1,-1
 194 200 l 1,2,-1
 156 200 l 1,3,-1
 156 300 l 1,4,-1
 194 300 l 1,5,-1
 194 400 l 1,6,-1
 231 400 l 1,7,-1
 231 500 l 1,8,-1
 494 500 l 1,9,-1
 494 400 l 1,10,-1
 269 400 l 1,11,-1
 269 300 l 1,12,-1
 231 300 l 1,13,-1
 231 200 l 1,14,-1
 269 200 l 1,15,-1
 269 100 l 1,16,-1
 494 100 l 1,17,-1
 494 0 l 1,18,-1
 381 0 l 1,19,-1
 381 -100 l 1,20,-1
 456 -100 l 1,21,-1
 456 -200 l 1,22,-1
 344 -200 l 1,23,-1
 344 -100 l 1,24,-1
 306 -100 l 1,25,-1
 306 0 l 1,26,-1
 231 0 l 1,27,-1
 231 100 l 1,0,-1
EndSplineSet
Validated: 1
EndChar

StartChar: egrave
Encoding: 232 232 176
Width: 600
GlyphClass: 2
Flags: W
LayerCount: 2
Back
Fore
SplineSet
231 400 m 1,0,-1
 231 300 l 1,1,-1
 419 300 l 1,2,-1
 419 400 l 1,3,-1
 231 400 l 1,0,-1
194 400 m 1,4,-1
 194 500 l 1,5,-1
 456 500 l 1,6,-1
 456 400 l 1,7,-1
 494 400 l 1,8,-1
 494 200 l 1,9,-1
 231 200 l 1,10,-1
 231 100 l 1,11,-1
 456 100 l 1,12,-1
 456 0 l 1,13,-1
 194 0 l 1,14,-1
 194 100 l 1,15,-1
 156 100 l 1,16,-1
 156 400 l 1,17,-1
 194 400 l 1,4,-1
EndSplineSet
Validated: 1
EndChar

StartChar: eacute
Encoding: 233 233 177
Width: 600
GlyphClass: 2
Flags: W
LayerCount: 2
Back
Fore
SplineSet
269 600 m 1,0,-1
 269 700 l 1,1,-1
 306 700 l 1,2,-1
 306 800 l 1,3,-1
 381 800 l 1,4,-1
 381 700 l 1,5,-1
 344 700 l 1,6,-1
 344 600 l 1,7,-1
 269 600 l 1,0,-1
231 400 m 1,8,-1
 231 300 l 1,9,-1
 419 300 l 1,10,-1
 419 400 l 1,11,-1
 231 400 l 1,8,-1
194 400 m 1,12,-1
 194 500 l 1,13,-1
 456 500 l 1,14,-1
 456 400 l 1,15,-1
 494 400 l 1,16,-1
 494 200 l 1,17,-1
 231 200 l 1,18,-1
 231 100 l 1,19,-1
 456 100 l 1,20,-1
 456 0 l 1,21,-1
 194 0 l 1,22,-1
 194 100 l 1,23,-1
 156 100 l 1,24,-1
 156 400 l 1,25,-1
 194 400 l 1,12,-1
EndSplineSet
Validated: 1
EndChar

StartChar: ecircumflex
Encoding: 234 234 178
Width: 600
GlyphClass: 2
Flags: W
LayerCount: 2
Back
Fore
SplineSet
231 600 m 1,0,-1
 231 700 l 1,1,-1
 269 700 l 1,2,-1
 269 800 l 1,3,-1
 381 800 l 1,4,-1
 381 700 l 1,5,-1
 419 700 l 1,6,-1
 419 600 l 1,7,-1
 344 600 l 1,8,-1
 344 700 l 1,9,-1
 306 700 l 1,10,-1
 306 600 l 1,11,-1
 231 600 l 1,0,-1
231 400 m 1,12,-1
 231 300 l 1,13,-1
 419 300 l 1,14,-1
 419 400 l 1,15,-1
 231 400 l 1,12,-1
194 400 m 1,16,-1
 194 500 l 1,17,-1
 456 500 l 1,18,-1
 456 400 l 1,19,-1
 494 400 l 1,20,-1
 494 200 l 1,21,-1
 231 200 l 1,22,-1
 231 100 l 1,23,-1
 456 100 l 1,24,-1
 456 0 l 1,25,-1
 194 0 l 1,26,-1
 194 100 l 1,27,-1
 156 100 l 1,28,-1
 156 400 l 1,29,-1
 194 400 l 1,16,-1
EndSplineSet
Validated: 1
EndChar

StartChar: edieresis
Encoding: 235 235 179
Width: 600
GlyphClass: 2
Flags: W
LayerCount: 2
Back
Fore
SplineSet
381 700 m 1,0,-1
 456 700 l 1,1,-1
 456 600 l 1,2,-1
 381 600 l 1,3,-1
 381 700 l 1,0,-1
194 700 m 1,4,-1
 269 700 l 1,5,-1
 269 600 l 1,6,-1
 194 600 l 1,7,-1
 194 700 l 1,4,-1
231 400 m 1,8,-1
 231 300 l 1,9,-1
 419 300 l 1,10,-1
 419 400 l 1,11,-1
 231 400 l 1,8,-1
194 400 m 1,12,-1
 194 500 l 1,13,-1
 456 500 l 1,14,-1
 456 400 l 1,15,-1
 494 400 l 1,16,-1
 494 200 l 1,17,-1
 231 200 l 1,18,-1
 231 100 l 1,19,-1
 456 100 l 1,20,-1
 456 0 l 1,21,-1
 194 0 l 1,22,-1
 194 100 l 1,23,-1
 156 100 l 1,24,-1
 156 400 l 1,25,-1
 194 400 l 1,12,-1
EndSplineSet
Validated: 1
EndChar

StartChar: igrave
Encoding: 236 236 180
Width: 600
GlyphClass: 2
Flags: W
LayerCount: 2
Back
Fore
SplineSet
262 600 m 1,0,-1
 262 700 l 1,1,-1
 225 700 l 1,2,-1
 225 800 l 1,3,-1
 300 800 l 1,4,-1
 300 700 l 1,5,-1
 338 700 l 1,6,-1
 338 600 l 1,7,-1
 262 600 l 1,0,-1
225 500 m 1,8,9
 225 500 225 500 338 500 c 1,10,-1
 337 100 l 1,11,12
 337 100 337 100 412 100 c 1,13,-1
 412 0 l 1,14,-1
 188 0 l 1,15,-1
 188 100 l 1,16,-1
 262 100 l 1,17,-1
 262 400 l 1,18,-1
 225 400 l 1,19,-1
 225 500 l 1,8,9
EndSplineSet
Validated: 1
EndChar

StartChar: iacute
Encoding: 237 237 181
Width: 600
GlyphClass: 2
Flags: W
LayerCount: 2
Back
Fore
SplineSet
225 500 m 1,0,1
 225 500 225 500 338 500 c 1,2,-1
 337 100 l 1,3,4
 337 100 337 100 412 100 c 1,5,-1
 412 0 l 1,6,-1
 188 0 l 1,7,-1
 188 100 l 1,8,-1
 262 100 l 1,9,-1
 262 400 l 1,10,-1
 225 400 l 1,11,-1
 225 500 l 1,0,1
EndSplineSet
Validated: 1
EndChar

StartChar: icircumflex
Encoding: 238 238 182
Width: 600
GlyphClass: 2
Flags: W
LayerCount: 2
Back
Fore
SplineSet
188 600 m 1,0,-1
 188 700 l 1,1,-1
 225 700 l 1,2,-1
 225 800 l 1,3,4
 225 800 225 800 338 800 c 1,5,-1
 338 700 l 1,6,-1
 375 700 l 1,7,-1
 375 600 l 1,8,-1
 300 600 l 1,9,-1
 300 700 l 1,10,-1
 262 700 l 1,11,-1
 262 600 l 1,12,-1
 188 600 l 1,0,-1
225 500 m 1,13,14
 225 500 225 500 338 500 c 1,15,-1
 337 100 l 1,16,17
 337 100 337 100 412 100 c 1,18,-1
 412 0 l 1,19,-1
 188 0 l 1,20,-1
 188 100 l 1,21,-1
 262 100 l 1,22,-1
 262 400 l 1,23,-1
 225 400 l 1,24,-1
 225 500 l 1,13,14
EndSplineSet
Validated: 1
EndChar

StartChar: idieresis
Encoding: 239 239 183
Width: 600
GlyphClass: 2
Flags: W
LayerCount: 2
Back
Fore
SplineSet
225 500 m 1,0,1
 225 500 225 500 338 500 c 1,2,-1
 337 100 l 1,3,4
 337 100 337 100 412 100 c 1,5,-1
 412 0 l 1,6,-1
 188 0 l 1,7,-1
 188 100 l 1,8,-1
 262 100 l 1,9,-1
 262 400 l 1,10,-1
 225 400 l 1,11,-1
 225 500 l 1,0,1
225 700 m 1,12,13
 225 700 225 700 338 700 c 1,14,-1
 338 600 l 1,15,-1
 225 600 l 1,16,-1
 225 700 l 1,12,13
EndSplineSet
Validated: 1
EndChar

StartChar: eth
Encoding: 240 240 184
Width: 600
GlyphClass: 2
Flags: W
LayerCount: 2
Back
Fore
SplineSet
225 100 m 1,0,1
 225 100 225 100 338 100 c 1,2,-1
 338 200 l 1,3,-1
 375 200 l 1,4,-1
 375 300 l 1,5,-1
 300 300 l 1,6,-1
 300 400 l 1,7,-1
 225 400 l 1,8,-1
 225 300 l 1,9,10
 225 300 225 300 188 300 c 1,11,-1
 188 200 l 1,12,-1
 225 200 l 1,13,-1
 225 100 l 1,0,1
188 0 m 1,14,-1
 188 100 l 1,15,-1
 150 100 l 1,16,-1
 150 200 l 1,17,-1
 112 200 l 1,18,-1
 112 300 l 1,19,-1
 150 300 l 1,20,-1
 150 400 l 1,21,-1
 188 400 l 1,22,-1
 188 500 l 1,23,-1
 338 500 l 1,24,-1
 338 400 l 1,25,-1
 375 400 l 1,26,-1
 375 500 l 1,27,28
 375 500 375 500 338 500 c 1,29,-1
 338 600 l 1,30,-1
 262 600 l 1,31,-1
 262 700 l 1,32,-1
 488 700 l 1,33,-1
 488 600 l 1,34,-1
 412 600 l 1,35,-1
 412 500 l 1,36,-1
 450 500 l 1,37,-1
 450 200 l 1,38,-1
 412 200 l 1,39,-1
 412 100 l 1,40,-1
 375 100 l 1,41,-1
 375 0 l 1,42,-1
 188 0 l 1,14,-1
EndSplineSet
Validated: 5
EndChar

StartChar: ntilde
Encoding: 241 241 185
Width: 600
GlyphClass: 2
Flags: W
LayerCount: 2
Back
Fore
SplineSet
194 600 m 1,0,-1
 194 700 l 1,1,-1
 231 700 l 1,2,-1
 231 800 l 1,3,-1
 344 800 l 1,4,-1
 344 700 l 1,5,-1
 381 700 l 1,6,-1
 381 800 l 1,7,-1
 456 800 l 1,8,-1
 456 700 l 1,9,-1
 419 700 l 1,10,-1
 419 600 l 1,11,-1
 306 600 l 1,12,-1
 306 700 l 1,13,-1
 269 700 l 1,14,-1
 269 600 l 1,15,-1
 194 600 l 1,0,-1
156 0 m 1,16,-1
 156 500 l 1,17,-1
 231 500 l 1,18,-1
 231 400 l 1,19,-1
 269 400 l 1,20,-1
 269 500 l 1,21,-1
 456 500 l 1,22,-1
 456 400 l 1,23,-1
 494 400 l 1,24,-1
 494 0 l 1,25,-1
 419 0 l 1,26,-1
 419 400 l 1,27,-1
 269 400 l 1,28,-1
 269 300 l 1,29,-1
 231 300 l 1,30,-1
 231 0 l 1,31,-1
 156 0 l 1,16,-1
EndSplineSet
Validated: 5
EndChar

StartChar: ograve
Encoding: 242 242 186
Width: 600
GlyphClass: 2
Flags: W
LayerCount: 2
Back
Fore
SplineSet
231 400 m 1,0,-1
 231 100 l 1,1,-1
 419 100 l 1,2,-1
 419 400 l 1,3,-1
 231 400 l 1,0,-1
194 500 m 1,4,-1
 456 500 l 1,5,-1
 456 400 l 1,6,-1
 494 400 l 1,7,-1
 494 100 l 1,8,-1
 456 100 l 1,9,-1
 456 0 l 1,10,-1
 194 0 l 1,11,-1
 194 100 l 1,12,-1
 156 100 l 1,13,-1
 156 400 l 1,14,-1
 194 400 l 1,15,-1
 194 500 l 1,4,-1
EndSplineSet
Validated: 1
EndChar

StartChar: oacute
Encoding: 243 243 187
Width: 600
GlyphClass: 2
Flags: W
LayerCount: 2
Back
Fore
SplineSet
269 600 m 1,0,-1
 269 700 l 1,1,-1
 306 700 l 1,2,-1
 306 800 l 1,3,-1
 381 800 l 1,4,-1
 381 700 l 1,5,-1
 344 700 l 1,6,-1
 344 600 l 1,7,-1
 269 600 l 1,0,-1
231 400 m 1,8,-1
 231 100 l 1,9,-1
 419 100 l 1,10,-1
 419 400 l 1,11,-1
 231 400 l 1,8,-1
194 500 m 1,12,-1
 456 500 l 1,13,-1
 456 400 l 1,14,-1
 494 400 l 1,15,-1
 494 100 l 1,16,-1
 456 100 l 1,17,-1
 456 0 l 1,18,-1
 194 0 l 1,19,-1
 194 100 l 1,20,-1
 156 100 l 1,21,-1
 156 400 l 1,22,-1
 194 400 l 1,23,-1
 194 500 l 1,12,-1
EndSplineSet
Validated: 1
EndChar

StartChar: ocircumflex
Encoding: 244 244 188
Width: 600
GlyphClass: 2
Flags: W
LayerCount: 2
Back
Fore
SplineSet
231 600 m 1,0,-1
 231 700 l 1,1,-1
 269 700 l 1,2,-1
 269 800 l 1,3,-1
 381 800 l 1,4,-1
 381 700 l 1,5,-1
 419 700 l 1,6,-1
 419 600 l 1,7,-1
 344 600 l 1,8,-1
 344 700 l 1,9,-1
 306 700 l 1,10,-1
 306 600 l 1,11,-1
 231 600 l 1,0,-1
231 400 m 1,12,-1
 231 100 l 1,13,-1
 419 100 l 1,14,-1
 419 400 l 1,15,-1
 231 400 l 1,12,-1
194 500 m 1,16,-1
 456 500 l 1,17,-1
 456 400 l 1,18,-1
 494 400 l 1,19,-1
 494 100 l 1,20,-1
 456 100 l 1,21,-1
 456 0 l 1,22,-1
 194 0 l 1,23,-1
 194 100 l 1,24,-1
 156 100 l 1,25,-1
 156 400 l 1,26,-1
 194 400 l 1,27,-1
 194 500 l 1,16,-1
EndSplineSet
Validated: 1
EndChar

StartChar: otilde
Encoding: 245 245 189
Width: 600
GlyphClass: 2
Flags: W
LayerCount: 2
Back
Fore
SplineSet
194 600 m 1,0,-1
 194 700 l 1,1,-1
 231 700 l 1,2,-1
 231 800 l 1,3,-1
 344 800 l 1,4,-1
 344 700 l 1,5,-1
 381 700 l 1,6,-1
 381 800 l 1,7,-1
 456 800 l 1,8,-1
 456 700 l 1,9,-1
 419 700 l 1,10,-1
 419 600 l 1,11,-1
 306 600 l 1,12,-1
 306 700 l 1,13,-1
 269 700 l 1,14,-1
 269 600 l 1,15,-1
 194 600 l 1,0,-1
231 400 m 1,16,-1
 231 100 l 1,17,-1
 419 100 l 1,18,-1
 419 400 l 1,19,-1
 231 400 l 1,16,-1
194 500 m 1,20,-1
 456 500 l 1,21,-1
 456 400 l 1,22,-1
 494 400 l 1,23,-1
 494 100 l 1,24,-1
 456 100 l 1,25,-1
 456 0 l 1,26,-1
 194 0 l 1,27,-1
 194 100 l 1,28,-1
 156 100 l 1,29,-1
 156 400 l 1,30,-1
 194 400 l 1,31,-1
 194 500 l 1,20,-1
EndSplineSet
Validated: 1
EndChar

StartChar: odieresis
Encoding: 246 246 190
Width: 600
GlyphClass: 2
Flags: W
LayerCount: 2
Back
Fore
SplineSet
381 600 m 1,0,-1
 381 700 l 1,1,-1
 456 700 l 1,2,-1
 456 600 l 1,3,-1
 381 600 l 1,0,-1
194 600 m 1,4,-1
 194 700 l 1,5,-1
 269 700 l 1,6,-1
 269 600 l 1,7,-1
 194 600 l 1,4,-1
231 400 m 1,8,-1
 231 100 l 1,9,-1
 419 100 l 1,10,-1
 419 400 l 1,11,-1
 231 400 l 1,8,-1
194 500 m 1,12,-1
 456 500 l 1,13,-1
 456 400 l 1,14,-1
 494 400 l 1,15,-1
 494 100 l 1,16,-1
 456 100 l 1,17,-1
 456 0 l 1,18,-1
 194 0 l 1,19,-1
 194 100 l 1,20,-1
 156 100 l 1,21,-1
 156 400 l 1,22,-1
 194 400 l 1,23,-1
 194 500 l 1,12,-1
EndSplineSet
Validated: 1
EndChar

StartChar: divide
Encoding: 247 247 191
Width: 600
GlyphClass: 2
Flags: W
LayerCount: 2
Back
Fore
SplineSet
262 100 m 1,0,-1
 262 200 l 1,1,-1
 338 200 l 1,2,-1
 338 100 l 1,3,-1
 262 100 l 1,0,-1
150 300 m 1,4,-1
 150 400 l 1,5,-1
 450 400 l 1,6,-1
 450 300 l 1,7,-1
 150 300 l 1,4,-1
262 500 m 1,8,-1
 262 600 l 1,9,-1
 338 600 l 1,10,-1
 338 500 l 1,11,-1
 262 500 l 1,8,-1
EndSplineSet
Validated: 1
EndChar

StartChar: oslash
Encoding: 248 248 192
Width: 600
GlyphClass: 2
Flags: W
LayerCount: 2
Back
Fore
SplineSet
231 400 m 1,0,-1
 231 100 l 1,1,-1
 419 100 l 1,2,-1
 419 400 l 1,3,-1
 231 400 l 1,0,-1
194 500 m 1,4,-1
 456 500 l 1,5,-1
 456 400 l 1,6,-1
 494 400 l 1,7,-1
 494 100 l 1,8,-1
 456 100 l 1,9,-1
 456 0 l 1,10,-1
 194 0 l 1,11,-1
 194 100 l 1,12,-1
 156 100 l 1,13,-1
 156 400 l 1,14,-1
 194 400 l 1,15,-1
 194 500 l 1,4,-1
EndSplineSet
Validated: 1
EndChar

StartChar: ugrave
Encoding: 249 249 193
Width: 600
GlyphClass: 2
Flags: W
LayerCount: 2
Back
Fore
SplineSet
156 500 m 1,0,-1
 231 500 l 1,1,-1
 231 100 l 1,2,-1
 381 100 l 1,3,-1
 381 200 l 1,4,-1
 419 200 l 1,5,-1
 419 500 l 1,6,-1
 494 500 l 1,7,-1
 494 0 l 1,8,-1
 419 0 l 1,9,-1
 419 100 l 1,10,-1
 381 100 l 1,11,-1
 381 0 l 1,12,-1
 194 0 l 1,13,-1
 194 100 l 1,14,-1
 156 100 l 1,15,-1
 156 500 l 1,0,-1
EndSplineSet
Validated: 5
EndChar

StartChar: uacute
Encoding: 250 250 194
Width: 600
GlyphClass: 2
Flags: W
LayerCount: 2
Back
Fore
SplineSet
269 600 m 1,0,-1
 269 700 l 1,1,-1
 306 700 l 1,2,-1
 306 800 l 1,3,-1
 381 800 l 1,4,-1
 381 700 l 1,5,-1
 344 700 l 1,6,-1
 344 600 l 1,7,-1
 269 600 l 1,0,-1
156 500 m 1,8,-1
 231 500 l 1,9,-1
 231 100 l 1,10,-1
 381 100 l 1,11,-1
 381 200 l 1,12,-1
 419 200 l 1,13,-1
 419 500 l 1,14,-1
 494 500 l 1,15,-1
 494 0 l 1,16,-1
 419 0 l 1,17,-1
 419 100 l 1,18,-1
 381 100 l 1,19,-1
 381 0 l 1,20,-1
 194 0 l 1,21,-1
 194 100 l 1,22,-1
 156 100 l 1,23,-1
 156 500 l 1,8,-1
EndSplineSet
Validated: 5
EndChar

StartChar: ucircumflex
Encoding: 251 251 195
Width: 600
GlyphClass: 2
Flags: W
LayerCount: 2
Back
Fore
SplineSet
231 600 m 1,0,-1
 231 700 l 1,1,-1
 269 700 l 1,2,-1
 269 800 l 1,3,-1
 381 800 l 1,4,-1
 381 700 l 1,5,-1
 419 700 l 1,6,-1
 419 600 l 1,7,-1
 344 600 l 1,8,-1
 344 700 l 1,9,-1
 306 700 l 1,10,-1
 306 600 l 1,11,-1
 231 600 l 1,0,-1
156 500 m 1,12,-1
 231 500 l 1,13,-1
 231 100 l 1,14,-1
 381 100 l 1,15,-1
 381 200 l 1,16,-1
 419 200 l 1,17,-1
 419 500 l 1,18,-1
 494 500 l 1,19,-1
 494 0 l 1,20,-1
 419 0 l 1,21,-1
 419 100 l 1,22,-1
 381 100 l 1,23,-1
 381 0 l 1,24,-1
 194 0 l 1,25,-1
 194 100 l 1,26,-1
 156 100 l 1,27,-1
 156 500 l 1,12,-1
EndSplineSet
Validated: 5
EndChar

StartChar: udieresis
Encoding: 252 252 196
Width: 600
GlyphClass: 2
Flags: W
LayerCount: 2
Back
Fore
SplineSet
156 500 m 1,0,-1
 231 500 l 1,1,-1
 231 100 l 1,2,-1
 381 100 l 1,3,-1
 381 200 l 1,4,-1
 419 200 l 1,5,-1
 419 500 l 1,6,-1
 494 500 l 1,7,-1
 494 0 l 1,8,-1
 419 0 l 1,9,-1
 419 100 l 1,10,-1
 381 100 l 1,11,-1
 381 0 l 1,12,-1
 194 0 l 1,13,-1
 194 100 l 1,14,-1
 156 100 l 1,15,-1
 156 500 l 1,0,-1
EndSplineSet
Validated: 5
EndChar

StartChar: yacute
Encoding: 253 253 197
Width: 600
GlyphClass: 2
Flags: W
LayerCount: 2
Back
Fore
SplineSet
269 600 m 1,0,-1
 269 700 l 1,1,-1
 306 700 l 1,2,-1
 306 800 l 1,3,-1
 381 800 l 1,4,-1
 381 700 l 1,5,-1
 344 700 l 1,6,-1
 344 600 l 1,7,-1
 269 600 l 1,0,-1
156 500 m 1,8,-1
 231 500 l 1,9,-1
 231 400 l 1,10,-1
 269 400 l 1,11,-1
 269 300 l 1,12,-1
 306 300 l 1,13,-1
 306 200 l 1,14,-1
 344 200 l 1,15,-1
 344 300 l 1,16,-1
 381 300 l 1,17,-1
 381 400 l 1,18,-1
 419 400 l 1,19,-1
 419 500 l 1,20,-1
 494 500 l 1,21,-1
 494 400 l 1,22,-1
 456 400 l 1,23,-1
 456 300 l 1,24,-1
 419 300 l 1,25,-1
 419 200 l 1,26,-1
 381 200 l 1,27,-1
 381 100 l 1,28,-1
 344 100 l 1,29,-1
 344 0 l 1,30,-1
 306 0 l 1,31,-1
 306 -100 l 1,32,-1
 269 -100 l 1,33,-1
 269 -200 l 1,34,-1
 156 -200 l 1,35,-1
 156 -100 l 1,36,-1
 231 -100 l 1,37,-1
 231 0 l 1,38,-1
 269 0 l 1,39,-1
 269 200 l 1,40,-1
 231 200 l 1,41,-1
 231 300 l 1,42,-1
 194 300 l 1,43,-1
 194 400 l 1,44,-1
 156 400 l 1,45,-1
 156 500 l 1,8,-1
EndSplineSet
Validated: 1
EndChar

StartChar: ydieresis
Encoding: 255 255 198
Width: 600
GlyphClass: 2
Flags: W
LayerCount: 2
Back
Fore
SplineSet
269 600 m 1,0,-1
 269 700 l 1,1,-1
 306 700 l 1,2,-1
 306 800 l 1,3,-1
 381 800 l 1,4,-1
 381 700 l 1,5,-1
 344 700 l 1,6,-1
 344 600 l 1,7,-1
 269 600 l 1,0,-1
156 500 m 1,8,-1
 231 500 l 1,9,-1
 231 400 l 1,10,-1
 269 400 l 1,11,-1
 269 300 l 1,12,-1
 306 300 l 1,13,-1
 306 200 l 1,14,-1
 344 200 l 1,15,-1
 344 300 l 1,16,-1
 381 300 l 1,17,-1
 381 400 l 1,18,-1
 419 400 l 1,19,-1
 419 500 l 1,20,-1
 494 500 l 1,21,-1
 494 400 l 1,22,-1
 456 400 l 1,23,-1
 456 300 l 1,24,-1
 419 300 l 1,25,-1
 419 200 l 1,26,-1
 381 200 l 1,27,-1
 381 100 l 1,28,-1
 344 100 l 1,29,-1
 344 0 l 1,30,-1
 306 0 l 1,31,-1
 306 -100 l 1,32,-1
 269 -100 l 1,33,-1
 269 -200 l 1,34,-1
 156 -200 l 1,35,-1
 156 -100 l 1,36,-1
 231 -100 l 1,37,-1
 231 0 l 1,38,-1
 269 0 l 1,39,-1
 269 200 l 1,40,-1
 231 200 l 1,41,-1
 231 300 l 1,42,-1
 194 300 l 1,43,-1
 194 400 l 1,44,-1
 156 400 l 1,45,-1
 156 500 l 1,8,-1
EndSplineSet
Validated: 1
EndChar

StartChar: Ccircumflex
Encoding: 264 264 199
Width: 600
GlyphClass: 2
Flags: W
LayerCount: 2
Back
Fore
SplineSet
231 700 m 1,0,-1
 231 800 l 1,1,-1
 456 800 l 1,2,-1
 456 700 l 1,3,-1
 231 700 l 1,0,-1
231 600 m 1,4,-1
 456 600 l 1,5,-1
 456 500 l 1,6,-1
 494 500 l 1,7,-1
 494 400 l 1,8,-1
 419 400 l 1,9,-1
 419 500 l 1,10,-1
 269 500 l 1,11,-1
 269 400 l 1,12,-1
 231 400 l 1,13,-1
 231 200 l 1,14,-1
 269 200 l 1,15,-1
 269 100 l 1,16,-1
 419 100 l 1,17,-1
 419 200 l 1,18,-1
 494 200 l 1,19,-1
 494 100 l 1,20,-1
 456 100 l 1,21,-1
 456 0 l 1,22,-1
 231 0 l 1,23,-1
 231 100 l 1,24,-1
 194 100 l 1,25,-1
 194 200 l 1,26,-1
 156 200 l 1,27,-1
 156 400 l 1,28,-1
 194 400 l 1,29,-1
 194 500 l 1,30,-1
 231 500 l 1,31,-1
 231 600 l 1,4,-1
EndSplineSet
Validated: 1
EndChar

StartChar: ccircumflex
Encoding: 265 265 200
Width: 600
GlyphClass: 2
Flags: W
LayerCount: 2
Back
Fore
SplineSet
269 600 m 1,0,-1
 269 700 l 1,1,-1
 306 700 l 1,2,-1
 306 800 l 1,3,-1
 419 800 l 1,4,-1
 419 700 l 1,5,-1
 456 700 l 1,6,-1
 456 600 l 1,7,-1
 381 600 l 1,8,-1
 381 700 l 1,9,-1
 344 700 l 1,10,-1
 344 600 l 1,11,-1
 269 600 l 1,0,-1
231 500 m 1,12,-1
 494 500 l 1,13,-1
 494 400 l 1,14,-1
 269 400 l 1,15,-1
 269 300 l 1,16,-1
 231 300 l 1,17,-1
 231 200 l 1,18,-1
 269 200 l 1,19,-1
 269 100 l 1,20,-1
 494 100 l 1,21,-1
 494 0 l 1,22,-1
 231 0 l 1,23,-1
 231 100 l 1,24,-1
 194 100 l 1,25,-1
 194 200 l 1,26,-1
 156 200 l 1,27,-1
 156 300 l 1,28,-1
 194 300 l 1,29,-1
 194 400 l 1,30,-1
 231 400 l 1,31,-1
 231 500 l 1,12,-1
EndSplineSet
Validated: 1
EndChar

StartChar: Cdotaccent
Encoding: 266 266 201
Width: 600
GlyphClass: 2
Flags: W
LayerCount: 2
Back
Fore
SplineSet
306 700 m 1,0,-1
 306 800 l 1,1,-1
 381 800 l 1,2,-1
 381 700 l 1,3,-1
 306 700 l 1,0,-1
231 600 m 1,4,-1
 456 600 l 1,5,-1
 456 500 l 1,6,-1
 494 500 l 1,7,-1
 494 400 l 1,8,-1
 419 400 l 1,9,-1
 419 500 l 1,10,-1
 269 500 l 1,11,-1
 269 400 l 1,12,-1
 231 400 l 1,13,-1
 231 200 l 1,14,-1
 269 200 l 1,15,-1
 269 100 l 1,16,-1
 419 100 l 1,17,-1
 419 200 l 1,18,-1
 494 200 l 1,19,-1
 494 100 l 1,20,-1
 456 100 l 1,21,-1
 456 0 l 1,22,-1
 231 0 l 1,23,-1
 231 100 l 1,24,-1
 194 100 l 1,25,-1
 194 200 l 1,26,-1
 156 200 l 1,27,-1
 156 400 l 1,28,-1
 194 400 l 1,29,-1
 194 500 l 1,30,-1
 231 500 l 1,31,-1
 231 600 l 1,4,-1
EndSplineSet
Validated: 1
EndChar

StartChar: cdotaccent
Encoding: 267 267 202
Width: 600
GlyphClass: 2
Flags: W
LayerCount: 2
Back
Fore
SplineSet
306 600 m 1,0,-1
 306 700 l 1,1,-1
 381 700 l 1,2,-1
 381 600 l 1,3,-1
 306 600 l 1,0,-1
231 500 m 1,4,-1
 494 500 l 1,5,-1
 494 400 l 1,6,-1
 269 400 l 1,7,-1
 269 300 l 1,8,-1
 231 300 l 1,9,-1
 231 200 l 1,10,-1
 269 200 l 1,11,-1
 269 100 l 1,12,-1
 494 100 l 1,13,-1
 494 0 l 1,14,-1
 231 0 l 1,15,-1
 231 100 l 1,16,-1
 194 100 l 1,17,-1
 194 200 l 1,18,-1
 156 200 l 1,19,-1
 156 300 l 1,20,-1
 194 300 l 1,21,-1
 194 400 l 1,22,-1
 231 400 l 1,23,-1
 231 500 l 1,4,-1
EndSplineSet
Validated: 1
EndChar

StartChar: Ccaron
Encoding: 268 268 203
Width: 600
GlyphClass: 2
Flags: W
LayerCount: 2
Back
Fore
SplineSet
231 500 m 1,0,-1
 231 600 l 1,1,-1
 269 600 l 1,2,-1
 269 700 l 1,3,-1
 231 700 l 1,4,-1
 231 800 l 1,5,-1
 306 800 l 1,6,-1
 306 700 l 1,7,-1
 344 700 l 1,8,-1
 344 800 l 1,9,-1
 419 800 l 1,10,-1
 419 700 l 1,11,-1
 381 700 l 1,12,-1
 381 600 l 1,13,-1
 456 600 l 1,14,-1
 456 500 l 1,15,-1
 494 500 l 1,16,-1
 494 400 l 1,17,-1
 419 400 l 1,18,-1
 419 500 l 1,19,-1
 269 500 l 1,20,-1
 269 400 l 1,21,-1
 231 400 l 1,22,-1
 231 200 l 1,23,-1
 269 200 l 1,24,-1
 269 100 l 1,25,-1
 419 100 l 1,26,-1
 419 200 l 1,27,-1
 494 200 l 1,28,-1
 494 100 l 1,29,-1
 456 100 l 1,30,-1
 456 0 l 1,31,-1
 231 0 l 1,32,-1
 231 100 l 1,33,-1
 194 100 l 1,34,-1
 194 200 l 1,35,-1
 156 200 l 1,36,-1
 156 400 l 1,37,-1
 194 400 l 1,38,-1
 194 500 l 1,39,-1
 231 500 l 1,0,-1
EndSplineSet
Validated: 1
EndChar

StartChar: ccaron
Encoding: 269 269 204
Width: 600
GlyphClass: 2
Flags: W
LayerCount: 2
Back
Fore
SplineSet
269 700 m 1,0,-1
 269 800 l 1,1,-1
 344 800 l 1,2,-1
 344 700 l 1,3,-1
 381 700 l 1,4,-1
 381 800 l 1,5,-1
 456 800 l 1,6,-1
 456 700 l 1,7,-1
 419 700 l 1,8,-1
 419 600 l 1,9,-1
 306 600 l 1,10,-1
 306 700 l 1,11,-1
 269 700 l 1,0,-1
231 500 m 1,12,-1
 494 500 l 1,13,-1
 494 400 l 1,14,-1
 269 400 l 1,15,-1
 269 300 l 1,16,-1
 231 300 l 1,17,-1
 231 200 l 1,18,-1
 269 200 l 1,19,-1
 269 100 l 1,20,-1
 494 100 l 1,21,-1
 494 0 l 1,22,-1
 231 0 l 1,23,-1
 231 100 l 1,24,-1
 194 100 l 1,25,-1
 194 200 l 1,26,-1
 156 200 l 1,27,-1
 156 300 l 1,28,-1
 194 300 l 1,29,-1
 194 400 l 1,30,-1
 231 400 l 1,31,-1
 231 500 l 1,12,-1
EndSplineSet
Validated: 1
EndChar

StartChar: Dcaron
Encoding: 270 270 205
Width: 600
GlyphClass: 2
Flags: W
LayerCount: 2
Back
Fore
SplineSet
231 500 m 1,0,-1
 231 100 l 1,1,-1
 381 100 l 1,2,-1
 381 200 l 1,3,-1
 419 200 l 1,4,-1
 419 400 l 1,5,-1
 381 400 l 1,6,-1
 381 500 l 1,7,-1
 231 500 l 1,0,-1
419 500 m 1,8,-1
 456 500 l 1,9,-1
 456 400 l 1,10,-1
 494 400 l 1,11,-1
 494 200 l 1,12,-1
 456 200 l 1,13,-1
 456 100 l 1,14,-1
 419 100 l 1,15,-1
 419 0 l 1,16,-1
 156 0 l 1,17,-1
 156 600 l 1,18,-1
 231 600 l 1,19,-1
 231 700 l 1,20,-1
 194 700 l 1,21,-1
 194 800 l 1,22,-1
 269 800 l 1,23,-1
 269 700 l 1,24,-1
 306 700 l 1,25,-1
 306 800 l 1,26,-1
 381 800 l 1,27,-1
 381 700 l 1,28,-1
 344 700 l 1,29,-1
 344 600 l 1,30,-1
 419 600 l 1,31,-1
 419 500 l 1,8,-1
EndSplineSet
Validated: 1
EndChar

StartChar: dcaron
Encoding: 271 271 206
Width: 600
GlyphClass: 2
Flags: W
LayerCount: 2
Back
Fore
SplineSet
456 600 m 1,0,-1
 456 800 l 1,1,-1
 531 800 l 1,2,-1
 531 600 l 1,3,-1
 456 600 l 1,0,-1
194 100 m 1,4,-1
 344 100 l 1,5,-1
 344 300 l 1,6,-1
 306 300 l 1,7,-1
 306 400 l 1,8,-1
 194 400 l 1,9,-1
 194 100 l 1,4,-1
344 700 m 1,10,-1
 419 700 l 1,11,-1
 419 0 l 1,12,-1
 156 0 l 1,13,-1
 156 100 l 1,14,-1
 119 100 l 1,15,-1
 119 400 l 1,16,-1
 156 400 l 1,17,-1
 156 500 l 1,18,-1
 306 500 l 1,19,-1
 306 400 l 1,20,-1
 344 400 l 1,21,-1
 344 700 l 1,10,-1
EndSplineSet
Validated: 5
EndChar

StartChar: Dcroat
Encoding: 272 272 207
Width: 600
GlyphClass: 2
Flags: W
LayerCount: 2
Back
Fore
SplineSet
369 100 m 1,0,-1
 369 200 l 1,1,-1
 406 200 l 1,2,-1
 406 500 l 1,3,-1
 369 500 l 1,4,-1
 369 600 l 1,5,-1
 219 600 l 1,6,-1
 219 400 l 1,7,-1
 294 400 l 1,8,-1
 294 300 l 1,9,-1
 219 300 l 1,10,-1
 219 100 l 1,11,-1
 369 100 l 1,0,-1
144 700 m 1,12,-1
 406 700 l 1,13,-1
 406 600 l 1,14,-1
 444 600 l 1,15,-1
 444 500 l 1,16,-1
 481 500 l 1,17,-1
 481 200 l 1,18,-1
 444 200 l 1,19,-1
 444 100 l 1,20,-1
 406 100 l 1,21,-1
 406 0 l 1,22,-1
 144 0 l 1,23,-1
 144 300 l 1,24,-1
 69 300 l 1,25,-1
 69 400 l 1,26,-1
 144 400 l 1,27,-1
 144 700 l 1,12,-1
EndSplineSet
Validated: 1
EndChar

StartChar: dcroat
Encoding: 273 273 208
Width: 600
GlyphClass: 2
Flags: W
LayerCount: 2
Back
Fore
SplineSet
194 100 m 1,0,-1
 381 100 l 1,1,-1
 381 300 l 1,2,-1
 194 300 l 1,3,-1
 194 100 l 1,0,-1
156 0 m 1,4,-1
 156 100 l 1,5,-1
 119 100 l 1,6,-1
 119 300 l 1,7,-1
 156 300 l 1,8,-1
 156 400 l 1,9,-1
 381 400 l 1,10,-1
 381 500 l 1,11,-1
 306 500 l 1,12,-1
 306 600 l 1,13,-1
 381 600 l 1,14,-1
 381 700 l 1,15,-1
 456 700 l 1,16,-1
 456 600 l 1,17,-1
 531 600 l 1,18,-1
 531 500 l 1,19,-1
 456 500 l 1,20,-1
 456 0 l 1,21,-1
 156 0 l 1,4,-1
EndSplineSet
Validated: 1
EndChar

StartChar: IJ
Encoding: 306 306 209
Width: 600
GlyphClass: 2
Flags: W
LayerCount: 2
Back
Fore
SplineSet
450 700 m 1,0,-1
 525 700 l 1,1,-1
 525 100 l 1,2,3
 525 100 525 100 488 100 c 1,4,-1
 488 0 l 1,5,-1
 338 0 l 1,6,-1
 338 100 l 1,7,-1
 300 100 l 1,8,-1
 300 200 l 1,9,-1
 375 200 l 1,10,-1
 375 100 l 1,11,-1
 450 100 l 1,12,-1
 450 700 l 1,0,-1
75 700 m 1,13,-1
 300 700 l 1,14,-1
 300 600 l 1,15,-1
 225 600 l 1,16,-1
 225 100 l 1,17,-1
 300 100 l 1,18,-1
 300 0 l 1,19,-1
 75 0 l 1,20,-1
 75 100 l 1,21,-1
 150 100 l 1,22,-1
 150 600 l 1,23,-1
 75 600 l 1,24,-1
 75 700 l 1,13,-1
EndSplineSet
Validated: 5
EndChar

StartChar: ij
Encoding: 307 307 210
Width: 600
GlyphClass: 2
Flags: W
LayerCount: 2
Back
Fore
SplineSet
488 600 m 1,0,-1
 375 600 l 1,1,-1
 375 700 l 1,2,-1
 488 700 l 1,3,-1
 488 600 l 1,0,-1
225 600 m 1,4,-1
 112 600 l 1,5,-1
 112 700 l 1,6,7
 112 700 112 700 225 700 c 1,8,9
 225 700 225 700 225 600 c 1,4,-1
262 0 m 1,10,-1
 338 0 l 1,11,-1
 338 -100 l 1,12,-1
 412 -100 l 1,13,-1
 412 400 l 1,14,-1
 375 400 l 1,15,-1
 375 500 l 1,16,17
 375 500 375 500 488 500 c 1,18,-1
 488 -100 l 1,19,-1
 450 -100 l 1,20,-1
 450 -200 l 1,21,-1
 300 -200 l 1,22,-1
 300 -100 l 1,23,-1
 262 -100 l 1,24,-1
 262 0 l 1,10,-1
112 0 m 1,25,-1
 112 100 l 1,26,-1
 150 100 l 1,27,-1
 150 400 l 1,28,-1
 112 400 l 1,29,-1
 112 500 l 1,30,-1
 225 500 l 1,31,-1
 225 100 l 1,32,33
 225 100 225 100 262 100 c 1,34,-1
 262 0 l 1,35,-1
 112 0 l 1,25,-1
EndSplineSet
Validated: 5
EndChar

StartChar: Rcaron
Encoding: 344 344 211
Width: 600
GlyphClass: 2
Flags: W
LayerCount: 2
Back
Fore
SplineSet
231 400 m 1,0,-1
 419 400 l 1,1,-1
 419 500 l 1,2,-1
 231 500 l 1,3,-1
 231 400 l 1,0,-1
156 0 m 1,4,-1
 156 600 l 1,5,-1
 269 600 l 1,6,-1
 269 700 l 1,7,-1
 231 700 l 1,8,-1
 231 800 l 1,9,-1
 306 800 l 1,10,-1
 306 700 l 1,11,-1
 344 700 l 1,12,-1
 344 800 l 1,13,-1
 419 800 l 1,14,-1
 419 700 l 1,15,-1
 381 700 l 1,16,-1
 381 600 l 1,17,-1
 456 600 l 1,18,-1
 456 500 l 1,19,-1
 494 500 l 1,20,-1
 494 400 l 1,21,-1
 456 400 l 1,22,-1
 456 300 l 1,23,-1
 381 300 l 1,24,-1
 381 200 l 1,25,-1
 419 200 l 1,26,-1
 419 100 l 1,27,-1
 494 100 l 1,28,-1
 494 0 l 1,29,-1
 381 0 l 1,30,-1
 381 100 l 1,31,-1
 344 100 l 1,32,-1
 344 200 l 1,33,-1
 306 200 l 1,34,-1
 306 300 l 1,35,-1
 231 300 l 1,36,-1
 231 0 l 1,37,-1
 156 0 l 1,4,-1
EndSplineSet
Validated: 1
EndChar

StartChar: rcaron
Encoding: 345 345 212
Width: 600
GlyphClass: 2
Flags: W
LayerCount: 2
Back
Fore
SplineSet
156 0 m 1,0,-1
 156 500 l 1,1,-1
 231 500 l 1,2,-1
 231 400 l 1,3,-1
 306 400 l 1,4,-1
 306 500 l 1,5,-1
 494 500 l 1,6,-1
 494 400 l 1,7,-1
 306 400 l 1,8,-1
 306 300 l 1,9,-1
 231 300 l 1,10,-1
 231 0 l 1,11,-1
 156 0 l 1,0,-1
EndSplineSet
Validated: 5
EndChar

StartChar: Scaron
Encoding: 352 352 213
Width: 600
GlyphClass: 2
Flags: W
LayerCount: 2
Back
Fore
SplineSet
156 400 m 1,0,-1
 156 500 l 1,1,-1
 194 500 l 1,2,-1
 194 600 l 1,3,-1
 269 600 l 1,4,-1
 269 700 l 1,5,-1
 231 700 l 1,6,-1
 231 800 l 1,7,-1
 306 800 l 1,8,-1
 306 700 l 1,9,-1
 344 700 l 1,10,-1
 344 800 l 1,11,-1
 419 800 l 1,12,-1
 419 700 l 1,13,-1
 381 700 l 1,14,-1
 381 600 l 1,15,-1
 456 600 l 1,16,-1
 456 500 l 1,17,-1
 269 500 l 1,18,-1
 269 400 l 1,19,-1
 344 400 l 1,20,-1
 344 300 l 1,21,-1
 456 300 l 1,22,-1
 456 200 l 1,23,-1
 494 200 l 1,24,-1
 494 100 l 1,25,-1
 456 100 l 1,26,-1
 456 0 l 1,27,-1
 194 0 l 1,28,-1
 194 100 l 1,29,-1
 381 100 l 1,30,-1
 381 200 l 1,31,-1
 306 200 l 1,32,-1
 306 300 l 1,33,-1
 194 300 l 1,34,-1
 194 400 l 1,35,-1
 156 400 l 1,0,-1
EndSplineSet
Validated: 1
EndChar

StartChar: scaron
Encoding: 353 353 214
Width: 600
GlyphClass: 2
Flags: W
LayerCount: 2
Back
Fore
SplineSet
231 700 m 1,0,-1
 231 800 l 1,1,-1
 306 800 l 1,2,-1
 306 700 l 1,3,-1
 344 700 l 1,4,-1
 344 800 l 1,5,-1
 419 800 l 1,6,-1
 419 700 l 1,7,-1
 381 700 l 1,8,-1
 381 600 l 1,9,-1
 269 600 l 1,10,-1
 269 700 l 1,11,-1
 231 700 l 1,0,-1
456 400 m 1,12,-1
 231 400 l 1,13,-1
 231 300 l 1,14,-1
 456 300 l 1,15,-1
 456 200 l 1,16,-1
 494 200 l 1,17,-1
 494 100 l 1,18,-1
 456 100 l 1,19,-1
 456 0 l 1,20,-1
 194 0 l 1,21,-1
 194 100 l 1,22,-1
 419 100 l 1,23,-1
 419 200 l 1,24,-1
 194 200 l 1,25,-1
 194 300 l 1,26,-1
 156 300 l 1,27,-1
 156 400 l 1,28,-1
 194 400 l 1,29,-1
 194 500 l 1,30,-1
 456 500 l 1,31,-1
 456 400 l 1,12,-1
EndSplineSet
Validated: 1
EndChar

StartChar: Tcaron
Encoding: 356 356 215
Width: 600
GlyphClass: 2
Flags: W
LayerCount: 2
Back
Fore
SplineSet
112 600 m 1,0,-1
 225 600 l 1,1,-1
 225 700 l 1,2,3
 225 700 225 700 188 700 c 1,4,-1
 188 800 l 1,5,-1
 262 800 l 1,6,-1
 262 700 l 1,7,-1
 338 700 l 1,8,-1
 338 800 l 1,9,-1
 412 800 l 1,10,-1
 412 700 l 1,11,-1
 375 700 l 1,12,-1
 375 600 l 1,13,14
 375 600 375 600 488 600 c 1,15,-1
 488 500 l 1,16,-1
 338 500 l 1,17,-1
 338 0 l 1,18,-1
 262 0 l 1,19,-1
 262 500 l 1,20,-1
 112 500 l 1,21,-1
 112 600 l 1,0,-1
EndSplineSet
Validated: 1
EndChar

StartChar: tcaron
Encoding: 357 357 216
Width: 600
GlyphClass: 2
Flags: W
LayerCount: 2
Back
Fore
SplineSet
419 600 m 1,0,-1
 419 800 l 1,1,-1
 494 800 l 1,2,-1
 494 600 l 1,3,-1
 419 600 l 1,0,-1
231 700 m 1,4,-1
 306 700 l 1,5,-1
 306 500 l 1,6,-1
 419 500 l 1,7,-1
 419 400 l 1,8,-1
 306 400 l 1,9,-1
 306 100 l 1,10,-1
 494 100 l 1,11,-1
 494 0 l 1,12,-1
 269 0 l 1,13,-1
 269 100 l 1,14,-1
 231 100 l 1,15,-1
 231 400 l 1,16,-1
 156 400 l 1,17,-1
 156 500 l 1,18,-1
 231 500 l 1,19,-1
 231 700 l 1,4,-1
EndSplineSet
Validated: 1
EndChar

StartChar: Uring
Encoding: 366 366 217
Width: 600
GlyphClass: 2
Flags: W
LayerCount: 2
Back
Fore
SplineSet
269 600 m 1,0,-1
 269 800 l 1,1,-1
 381 800 l 1,2,-1
 381 600 l 1,3,-1
 269 600 l 1,0,-1
156 600 m 1,4,-1
 231 600 l 1,5,-1
 231 100 l 1,6,-1
 419 100 l 1,7,-1
 419 600 l 1,8,-1
 494 600 l 1,9,-1
 494 100 l 1,10,-1
 456 100 l 1,11,-1
 456 0 l 1,12,-1
 194 0 l 1,13,-1
 194 100 l 1,14,-1
 156 100 l 1,15,-1
 156 600 l 1,4,-1
EndSplineSet
Validated: 1
EndChar

StartChar: uring
Encoding: 367 367 218
Width: 600
GlyphClass: 2
Flags: W
LayerCount: 2
Back
Fore
SplineSet
306 600 m 1,0,-1
 344 600 l 1,1,-1
 344 700 l 1,2,-1
 306 700 l 1,3,-1
 306 600 l 1,0,-1
269 500 m 1,4,-1
 269 600 l 1,5,-1
 231 600 l 1,6,-1
 231 700 l 1,7,-1
 269 700 l 1,8,-1
 269 800 l 1,9,-1
 381 800 l 1,10,-1
 381 700 l 1,11,-1
 419 700 l 1,12,-1
 419 600 l 1,13,-1
 381 600 l 1,14,-1
 381 500 l 1,15,-1
 269 500 l 1,4,-1
156 500 m 1,16,-1
 231 500 l 1,17,-1
 231 100 l 1,18,-1
 381 100 l 1,19,-1
 381 200 l 1,20,-1
 419 200 l 1,21,-1
 419 500 l 1,22,-1
 494 500 l 1,23,-1
 494 0 l 1,24,-1
 419 0 l 1,25,-1
 419 100 l 1,26,-1
 381 100 l 1,27,-1
 381 0 l 1,28,-1
 194 0 l 1,29,-1
 194 100 l 1,30,-1
 156 100 l 1,31,-1
 156 500 l 1,16,-1
EndSplineSet
Validated: 5
EndChar

StartChar: Uhungarumlaut
Encoding: 368 368 219
Width: 600
GlyphClass: 2
Flags: W
LayerCount: 2
Back
Fore
SplineSet
344 600 m 1,0,-1
 344 700 l 1,1,-1
 381 700 l 1,2,-1
 381 800 l 1,3,-1
 456 800 l 1,4,-1
 456 700 l 1,5,-1
 419 700 l 1,6,-1
 419 600 l 1,7,-1
 344 600 l 1,0,-1
194 600 m 1,8,-1
 194 700 l 1,9,-1
 231 700 l 1,10,-1
 231 800 l 1,11,-1
 306 800 l 1,12,-1
 306 700 l 1,13,-1
 269 700 l 1,14,-1
 269 600 l 1,15,-1
 194 600 l 1,8,-1
156 100 m 1,16,-1
 156 500 l 1,17,-1
 231 500 l 1,18,-1
 231 100 l 1,19,-1
 419 100 l 1,20,-1
 419 500 l 1,21,-1
 494 500 l 1,22,-1
 494 100 l 1,23,-1
 456 100 l 1,24,-1
 456 0 l 1,25,-1
 194 0 l 1,26,-1
 194 100 l 1,27,-1
 156 100 l 1,16,-1
EndSplineSet
Validated: 1
EndChar

StartChar: uhungarumlaut
Encoding: 369 369 220
Width: 600
GlyphClass: 2
Flags: W
LayerCount: 2
Back
Fore
SplineSet
344 600 m 1,0,-1
 344 700 l 1,1,-1
 381 700 l 1,2,-1
 381 800 l 1,3,-1
 456 800 l 1,4,-1
 456 700 l 1,5,-1
 419 700 l 1,6,-1
 419 600 l 1,7,-1
 344 600 l 1,0,-1
194 600 m 1,8,-1
 194 700 l 1,9,-1
 231 700 l 1,10,-1
 231 800 l 1,11,-1
 306 800 l 1,12,-1
 306 700 l 1,13,-1
 269 700 l 1,14,-1
 269 600 l 1,15,-1
 194 600 l 1,8,-1
156 500 m 1,16,-1
 231 500 l 1,17,-1
 231 100 l 1,18,-1
 381 100 l 1,19,-1
 381 200 l 1,20,-1
 419 200 l 1,21,-1
 419 500 l 1,22,-1
 494 500 l 1,23,-1
 494 0 l 1,24,-1
 419 0 l 1,25,-1
 419 100 l 1,26,-1
 381 100 l 1,27,-1
 381 0 l 1,28,-1
 194 0 l 1,29,-1
 194 100 l 1,30,-1
 156 100 l 1,31,-1
 156 500 l 1,16,-1
EndSplineSet
Validated: 5
EndChar

StartChar: Zacute
Encoding: 377 377 221
Width: 600
GlyphClass: 2
Flags: W
LayerCount: 2
Back
Fore
SplineSet
262 600 m 1,0,-1
 262 700 l 1,1,-1
 300 700 l 1,2,-1
 300 800 l 1,3,-1
 375 800 l 1,4,-1
 375 700 l 1,5,6
 375 700 375 700 338 700 c 1,7,-1
 338 600 l 1,8,-1
 262 600 l 1,0,-1
150 500 m 1,9,-1
 450 500 l 1,10,-1
 450 400 l 1,11,-1
 375 400 l 1,12,-1
 375 300 l 1,13,14
 375 300 375 300 338 300 c 1,15,-1
 338 200 l 1,16,-1
 300 200 l 1,17,-1
 300 100 l 1,18,-1
 450 100 l 1,19,-1
 450 0 l 1,20,-1
 150 0 l 1,21,-1
 150 100 l 1,22,-1
 225 100 l 1,23,-1
 225 200 l 1,24,25
 225 200 225 200 262 200 c 1,26,-1
 262 300 l 1,27,-1
 300 300 l 1,28,-1
 300 400 l 1,29,-1
 150 400 l 1,30,-1
 150 500 l 1,9,-1
EndSplineSet
Validated: 1
EndChar

StartChar: zacute
Encoding: 378 378 222
Width: 600
GlyphClass: 2
Flags: W
LayerCount: 2
Back
Fore
SplineSet
262 600 m 1,0,-1
 262 700 l 1,1,-1
 300 700 l 1,2,-1
 300 800 l 1,3,-1
 375 800 l 1,4,-1
 375 700 l 1,5,6
 375 700 375 700 338 700 c 1,7,-1
 338 600 l 1,8,-1
 262 600 l 1,0,-1
150 500 m 1,9,-1
 450 500 l 1,10,-1
 450 400 l 1,11,-1
 375 400 l 1,12,-1
 375 300 l 1,13,14
 375 300 375 300 338 300 c 1,15,-1
 338 200 l 1,16,-1
 300 200 l 1,17,-1
 300 100 l 1,18,-1
 450 100 l 1,19,-1
 450 0 l 1,20,-1
 150 0 l 1,21,-1
 150 100 l 1,22,-1
 225 100 l 1,23,-1
 225 200 l 1,24,25
 225 200 225 200 262 200 c 1,26,-1
 262 300 l 1,27,-1
 300 300 l 1,28,-1
 300 400 l 1,29,-1
 150 400 l 1,30,-1
 150 500 l 1,9,-1
EndSplineSet
Validated: 1
EndChar

StartChar: Zcaron
Encoding: 381 381 223
Width: 600
GlyphClass: 2
Flags: W
LayerCount: 2
Back
Fore
SplineSet
150 0 m 1,0,-1
 150 100 l 1,1,-1
 188 100 l 1,2,-1
 188 200 l 1,3,-1
 225 200 l 1,4,-1
 225 300 l 1,5,6
 225 300 225 300 262 300 c 1,7,-1
 262 400 l 1,8,-1
 300 400 l 1,9,-1
 300 500 l 1,10,-1
 150 500 l 1,11,-1
 150 600 l 1,12,-1
 262 600 l 1,13,-1
 262 700 l 1,14,-1
 225 700 l 1,15,-1
 225 800 l 1,16,-1
 300 800 l 1,17,-1
 300 700 l 1,18,-1
 338 700 l 1,19,-1
 338 800 l 1,20,-1
 412 800 l 1,21,-1
 412 700 l 1,22,-1
 375 700 l 1,23,-1
 375 600 l 1,24,-1
 450 600 l 1,25,-1
 450 500 l 1,26,-1
 375 500 l 1,27,-1
 375 400 l 1,28,29
 375 400 375 400 338 400 c 1,30,-1
 338 300 l 1,31,-1
 300 300 l 1,32,-1
 300 200 l 1,33,-1
 262 200 l 1,34,-1
 262 100 l 1,35,-1
 450 100 l 1,36,-1
 450 0 l 1,37,-1
 150 0 l 1,0,-1
EndSplineSet
Validated: 1
EndChar

StartChar: zcaron
Encoding: 382 382 224
Width: 600
GlyphClass: 2
Flags: W
LayerCount: 2
Back
Fore
SplineSet
188 700 m 1,0,-1
 188 800 l 1,1,-1
 262 800 l 1,2,-1
 262 700 l 1,3,-1
 300 700 l 1,4,-1
 300 800 l 1,5,-1
 375 800 l 1,6,-1
 375 700 l 1,7,8
 375 700 375 700 338 700 c 1,9,-1
 338 600 l 1,10,-1
 225 600 l 1,11,-1
 225 700 l 1,12,-1
 188 700 l 1,0,-1
150 500 m 1,13,-1
 450 500 l 1,14,-1
 450 400 l 1,15,-1
 375 400 l 1,16,-1
 375 300 l 1,17,18
 375 300 375 300 338 300 c 1,19,-1
 338 200 l 1,20,-1
 300 200 l 1,21,-1
 300 100 l 1,22,-1
 450 100 l 1,23,-1
 450 0 l 1,24,-1
 150 0 l 1,25,-1
 150 100 l 1,26,-1
 225 100 l 1,27,-1
 225 200 l 1,28,29
 225 200 225 200 262 200 c 1,30,-1
 262 300 l 1,31,-1
 300 300 l 1,32,-1
 300 400 l 1,33,-1
 150 400 l 1,34,-1
 150 500 l 1,13,-1
EndSplineSet
Validated: 1
EndChar

StartChar: uni01B5
Encoding: 437 437 225
Width: 600
GlyphClass: 2
Flags: W
LayerCount: 2
Back
Fore
SplineSet
150 600 m 1,0,-1
 150 700 l 1,1,-1
 450 700 l 1,2,-1
 450 600 l 1,3,-1
 412 600 l 1,4,-1
 412 500 l 1,5,-1
 375 500 l 1,6,-1
 375 400 l 1,7,8
 375 400 375 400 412 400 c 1,9,-1
 412 300 l 1,10,-1
 300 300 l 1,11,-1
 300 200 l 1,12,-1
 262 200 l 1,13,-1
 262 100 l 1,14,-1
 450 100 l 1,15,-1
 450 0 l 1,16,-1
 150 0 l 1,17,-1
 150 100 l 1,18,-1
 188 100 l 1,19,-1
 188 200 l 1,20,-1
 225 200 l 1,21,-1
 225 300 l 1,22,23
 225 300 225 300 188 300 c 1,24,-1
 188 400 l 1,25,-1
 300 400 l 1,26,-1
 300 500 l 1,27,-1
 338 500 l 1,28,-1
 338 600 l 1,29,-1
 150 600 l 1,0,-1
EndSplineSet
Validated: 1
EndChar

StartChar: uni01B6
Encoding: 438 438 226
Width: 600
GlyphClass: 2
Flags: W
LayerCount: 2
Back
Fore
SplineSet
150 0 m 1,0,-1
 150 100 l 1,1,-1
 225 100 l 1,2,-1
 225 200 l 1,3,4
 225 200 225 200 188 200 c 1,5,-1
 188 300 l 1,6,-1
 300 300 l 1,7,-1
 300 400 l 1,8,-1
 150 400 l 1,9,-1
 150 500 l 1,10,-1
 450 500 l 1,11,-1
 450 400 l 1,12,-1
 375 400 l 1,13,-1
 375 300 l 1,14,15
 375 300 375 300 412 300 c 1,16,-1
 412 200 l 1,17,-1
 300 200 l 1,18,-1
 300 100 l 1,19,-1
 450 100 l 1,20,-1
 450 0 l 1,21,-1
 150 0 l 1,0,-1
EndSplineSet
Validated: 1
EndChar

StartChar: Sigma
Encoding: 931 931 227
Width: 600
GlyphClass: 2
Flags: W
LayerCount: 2
Back
Fore
SplineSet
150 0 m 1,0,-1
 150 100 l 1,1,-1
 188 100 l 1,2,-1
 188 200 l 1,3,-1
 225 200 l 1,4,-1
 225 300 l 1,5,6
 225 300 225 300 262 300 c 1,7,-1
 262 400 l 1,8,-1
 225 400 l 1,9,-1
 225 500 l 1,10,11
 225 500 225 500 188 500 c 1,12,-1
 188 600 l 1,13,-1
 150 600 l 1,14,-1
 150 700 l 1,15,-1
 450 700 l 1,16,-1
 450 600 l 1,17,-1
 262 600 l 1,18,-1
 262 500 l 1,19,-1
 300 500 l 1,20,-1
 300 400 l 1,21,-1
 338 400 l 1,22,-1
 338 300 l 1,23,-1
 300 300 l 1,24,-1
 300 200 l 1,25,-1
 262 200 l 1,26,-1
 262 100 l 1,27,-1
 450 100 l 1,28,-1
 450 0 l 1,29,-1
 150 0 l 1,0,-1
EndSplineSet
Validated: 1
EndChar

StartChar: Psi
Encoding: 936 936 228
Width: 600
GlyphClass: 2
Flags: W
LayerCount: 2
Back
Fore
SplineSet
262 0 m 1,0,-1
 262 300 l 1,1,-1
 188 300 l 1,2,-1
 188 400 l 1,3,-1
 150 400 l 1,4,-1
 150 500 l 1,5,-1
 112 500 l 1,6,-1
 112 700 l 1,7,-1
 188 700 l 1,8,-1
 188 500 l 1,9,-1
 225 500 l 1,10,-1
 225 400 l 1,11,12
 225 400 225 400 262 400 c 1,13,-1
 262 700 l 1,14,-1
 338 700 l 1,15,-1
 338 400 l 1,16,-1
 375 400 l 1,17,-1
 375 500 l 1,18,19
 375 500 375 500 412 500 c 1,20,-1
 412 700 l 1,21,-1
 488 700 l 1,22,-1
 488 500 l 1,23,-1
 450 500 l 1,24,-1
 450 400 l 1,25,-1
 412 400 l 1,26,-1
 412 300 l 1,27,-1
 338 300 l 1,28,-1
 338 0 l 1,29,-1
 262 0 l 1,0,-1
EndSplineSet
Validated: 1
EndChar

StartChar: uni03A9
Encoding: 937 937 229
Width: 600
GlyphClass: 2
Flags: W
LayerCount: 2
Back
Fore
SplineSet
156 0 m 1,0,-1
 156 100 l 1,1,-1
 194 100 l 1,2,-1
 194 200 l 1,3,-1
 156 200 l 1,4,-1
 156 400 l 1,5,-1
 194 400 l 1,6,-1
 194 500 l 1,7,-1
 231 500 l 1,8,-1
 231 600 l 1,9,-1
 419 600 l 1,10,-1
 419 500 l 1,11,-1
 456 500 l 1,12,-1
 456 400 l 1,13,-1
 494 400 l 1,14,-1
 494 200 l 1,15,-1
 456 200 l 1,16,-1
 456 100 l 1,17,-1
 494 100 l 1,18,-1
 494 0 l 1,19,-1
 344 0 l 1,20,-1
 344 100 l 1,21,-1
 381 100 l 1,22,-1
 381 200 l 1,23,-1
 419 200 l 1,24,-1
 419 400 l 1,25,-1
 381 400 l 1,26,-1
 381 500 l 1,27,-1
 269 500 l 1,28,-1
 269 400 l 1,29,-1
 231 400 l 1,30,-1
 231 200 l 1,31,-1
 269 200 l 1,32,-1
 269 100 l 1,33,-1
 306 100 l 1,34,-1
 306 0 l 1,35,-1
 156 0 l 1,0,-1
EndSplineSet
Validated: 1
EndChar

StartChar: alpha
Encoding: 945 945 230
Width: 600
GlyphClass: 2
Flags: W
LayerCount: 2
Back
Fore
SplineSet
344 100 m 1,0,-1
 344 200 l 1,1,-1
 381 200 l 1,2,-1
 381 300 l 1,3,-1
 344 300 l 1,4,-1
 344 400 l 1,5,-1
 194 400 l 1,6,-1
 194 100 l 1,7,-1
 344 100 l 1,0,-1
381 0 m 1,8,-1
 156 0 l 1,9,-1
 156 100 l 1,10,-1
 119 100 l 1,11,-1
 119 400 l 1,12,-1
 156 400 l 1,13,-1
 156 500 l 1,14,-1
 381 500 l 1,15,-1
 381 400 l 1,16,-1
 456 400 l 1,17,-1
 456 500 l 1,18,-1
 531 500 l 1,19,-1
 531 400 l 1,20,-1
 494 400 l 1,21,-1
 494 300 l 1,22,-1
 456 300 l 1,23,-1
 456 100 l 1,24,-1
 531 100 l 1,25,-1
 531 0 l 1,26,-1
 419 0 l 1,27,-1
 419 100 l 1,28,-1
 381 100 l 1,29,-1
 381 0 l 1,8,-1
EndSplineSet
Validated: 1
EndChar

StartChar: beta
Encoding: 946 946 231
Width: 600
GlyphClass: 2
Flags: W
LayerCount: 2
Back
Fore
SplineSet
225 100 m 1,0,-1
 375 100 l 1,1,-1
 375 300 l 1,2,3
 375 300 375 300 262 300 c 1,4,-1
 262 400 l 1,5,-1
 375 400 l 1,6,-1
 375 600 l 1,7,-1
 225 600 l 1,8,-1
 225 100 l 1,0,-1
150 -200 m 1,9,-1
 150 600 l 1,10,-1
 188 600 l 1,11,-1
 188 700 l 1,12,-1
 412 700 l 1,13,-1
 412 600 l 1,14,-1
 450 600 l 1,15,-1
 450 400 l 1,16,-1
 412 400 l 1,17,-1
 412 300 l 1,18,-1
 450 300 l 1,19,-1
 450 100 l 1,20,-1
 412 100 l 1,21,-1
 412 0 l 1,22,-1
 225 0 l 1,23,-1
 225 -200 l 1,24,-1
 150 -200 l 1,9,-1
EndSplineSet
Validated: 1
EndChar

StartChar: gamma
Encoding: 947 947 232
Width: 600
GlyphClass: 2
Flags: W
LayerCount: 2
Back
Fore
SplineSet
306 -200 m 1,0,-1
 306 100 l 1,1,-1
 269 100 l 1,2,-1
 269 200 l 1,3,-1
 231 200 l 1,4,-1
 231 300 l 1,5,-1
 194 300 l 1,6,-1
 194 400 l 1,7,-1
 156 400 l 1,8,-1
 156 500 l 1,9,-1
 231 500 l 1,10,-1
 231 400 l 1,11,-1
 269 400 l 1,12,-1
 269 300 l 1,13,-1
 306 300 l 1,14,-1
 306 200 l 1,15,-1
 381 200 l 1,16,-1
 381 400 l 1,17,-1
 419 400 l 1,18,-1
 419 500 l 1,19,-1
 494 500 l 1,20,-1
 494 400 l 1,21,-1
 456 400 l 1,22,-1
 456 200 l 1,23,-1
 419 200 l 1,24,-1
 419 100 l 1,25,-1
 381 100 l 1,26,-1
 381 -200 l 1,27,-1
 306 -200 l 1,0,-1
EndSplineSet
Validated: 1
EndChar

StartChar: delta
Encoding: 948 948 233
Width: 600
GlyphClass: 2
Flags: W
LayerCount: 2
Back
Fore
SplineSet
225 100 m 1,0,-1
 375 100 l 1,1,-1
 375 300 l 1,2,-1
 300 300 l 1,3,-1
 300 400 l 1,4,-1
 262 400 l 1,5,-1
 262 300 l 1,6,-1
 225 300 l 1,7,-1
 225 100 l 1,0,-1
187 0 m 1,8,-1
 187 100 l 1,9,-1
 150 100 l 1,10,-1
 150 300 l 1,11,-1
 187 300 l 1,12,-1
 187 500 l 1,13,14
 187 500 187 500 149 500 c 1,15,16
 149 500 149 500 150 600 c 1,17,-1
 187 600 l 1,18,-1
 187 700 l 1,19,-1
 412 700 l 1,20,-1
 412 600 l 1,21,-1
 450 600 l 1,22,-1
 450 500 l 1,23,-1
 375 500 l 1,24,-1
 375 600 l 1,25,-1
 225 600 l 1,26,-1
 225 500 l 1,27,-1
 337 500 l 1,28,-1
 337 400 l 1,29,-1
 412 400 l 1,30,-1
 412 300 l 1,31,-1
 450 300 l 1,32,-1
 450 100 l 1,33,-1
 412 100 l 1,34,-1
 412 0 l 1,35,-1
 187 0 l 1,8,-1
EndSplineSet
Validated: 1
EndChar

StartChar: epsilon
Encoding: 949 949 234
Width: 600
GlyphClass: 2
Flags: W
LayerCount: 2
Back
Fore
SplineSet
194 0 m 1,0,-1
 194 100 l 1,1,-1
 156 100 l 1,2,-1
 156 200 l 1,3,-1
 194 200 l 1,4,-1
 194 300 l 1,5,-1
 156 300 l 1,6,-1
 156 400 l 1,7,-1
 194 400 l 1,8,-1
 194 500 l 1,9,-1
 456 500 l 1,10,-1
 456 400 l 1,11,-1
 494 400 l 1,12,-1
 494 300 l 1,13,-1
 419 300 l 1,14,-1
 419 400 l 1,15,-1
 231 400 l 1,16,-1
 231 300 l 1,17,-1
 344 300 l 1,18,-1
 344 200 l 1,19,-1
 231 200 l 1,20,-1
 231 100 l 1,21,-1
 419 100 l 1,22,-1
 419 200 l 1,23,-1
 494 200 l 1,24,-1
 494 100 l 1,25,-1
 456 100 l 1,26,-1
 456 0 l 1,27,-1
 194 0 l 1,0,-1
EndSplineSet
Validated: 1
EndChar

StartChar: lambda
Encoding: 955 955 235
Width: 600
GlyphClass: 2
Flags: W
LayerCount: 2
Back
Fore
SplineSet
106 0 m 1,0,-1
 106 100 l 1,1,-1
 144 100 l 1,2,-1
 144 200 l 1,3,-1
 181 200 l 1,4,-1
 181 300 l 1,5,-1
 219 300 l 1,6,-1
 219 500 l 1,7,-1
 181 500 l 1,8,-1
 181 600 l 1,9,-1
 106 600 l 1,10,-1
 106 700 l 1,11,-1
 219 700 l 1,12,-1
 219 600 l 1,13,-1
 256 600 l 1,14,-1
 256 500 l 1,15,-1
 294 500 l 1,16,-1
 294 400 l 1,17,-1
 331 400 l 1,18,-1
 331 300 l 1,19,-1
 369 300 l 1,20,-1
 369 200 l 1,21,-1
 406 200 l 1,22,-1
 406 100 l 1,23,-1
 444 100 l 1,24,-1
 444 0 l 1,25,-1
 369 0 l 1,26,-1
 369 100 l 1,27,-1
 331 100 l 1,28,-1
 331 200 l 1,29,-1
 294 200 l 1,30,-1
 294 300 l 1,31,-1
 256 300 l 1,32,-1
 256 200 l 1,33,-1
 219 200 l 1,34,-1
 219 100 l 1,35,-1
 181 100 l 1,36,-1
 181 0 l 1,37,-1
 106 0 l 1,0,-1
EndSplineSet
Validated: 1
EndChar

StartChar: uni03BC
Encoding: 956 956 236
Width: 600
GlyphClass: 2
Flags: W
LayerCount: 2
Back
Fore
SplineSet
275 100 m 1,0,-1
 388 100 l 1,1,-1
 388 200 l 1,2,3
 388 200 388 200 425 200 c 1,4,5
 425 200 425 200 425 500 c 1,6,-1
 500 500 l 1,7,-1
 500 100 l 1,8,-1
 538 100 l 1,9,-1
 538 0 l 1,10,-1
 462 0 l 1,11,-1
 462 100 l 1,12,13
 462 100 462 100 425 100 c 1,14,15
 425 100 425 100 425 0 c 1,16,-1
 275 0 l 1,17,-1
 275 100 l 1,0,-1
162 -200 m 1,18,-1
 162 500 l 1,19,-1
 238 500 l 1,20,-1
 238 200 l 1,21,-1
 275 200 l 1,22,-1
 275 100 l 1,23,24
 275 100 275 100 238 100 c 1,25,-1
 238 -200 l 1,26,-1
 162 -200 l 1,18,-1
EndSplineSet
Validated: 5
EndChar

StartChar: uni0400
Encoding: 1024 1024 237
Width: 600
GlyphClass: 2
Flags: W
LayerCount: 2
Back
Fore
SplineSet
494 500 m 1,0,-1
 231 500 l 1,1,-1
 231 400 l 1,2,-1
 419 400 l 1,3,-1
 419 300 l 1,4,-1
 231 300 l 1,5,-1
 231 100 l 1,6,-1
 494 100 l 1,7,-1
 494 0 l 1,8,-1
 156 0 l 1,9,-1
 156 600 l 1,10,-1
 269 600 l 1,11,-1
 269 700 l 1,12,-1
 231 700 l 1,13,-1
 231 800 l 1,14,-1
 306 800 l 1,15,-1
 306 700 l 1,16,-1
 344 700 l 1,17,-1
 344 600 l 1,18,-1
 494 600 l 1,19,-1
 494 500 l 1,0,-1
EndSplineSet
Validated: 1
EndChar

StartChar: uni0401
Encoding: 1025 1025 238
Width: 600
GlyphClass: 2
Flags: W
LayerCount: 2
Back
Fore
SplineSet
381 700 m 1,0,-1
 381 800 l 1,1,-1
 456 800 l 1,2,-1
 456 700 l 1,3,-1
 381 700 l 1,0,-1
194 700 m 1,4,-1
 194 800 l 1,5,-1
 269 800 l 1,6,-1
 269 700 l 1,7,-1
 194 700 l 1,4,-1
494 500 m 1,8,-1
 231 500 l 1,9,-1
 231 400 l 1,10,-1
 419 400 l 1,11,-1
 419 300 l 1,12,-1
 231 300 l 1,13,-1
 231 100 l 1,14,-1
 494 100 l 1,15,-1
 494 0 l 1,16,-1
 156 0 l 1,17,-1
 156 600 l 1,18,-1
 494 600 l 1,19,-1
 494 500 l 1,8,-1
EndSplineSet
Validated: 1
EndChar

StartChar: uni0402
Encoding: 1026 1026 239
Width: 600
GlyphClass: 2
Flags: W
LayerCount: 2
Back
Fore
SplineSet
231 0 m 1,0,-1
 231 600 l 1,1,-1
 119 600 l 1,2,-1
 119 700 l 1,3,-1
 419 700 l 1,4,-1
 419 600 l 1,5,-1
 306 600 l 1,6,-1
 306 400 l 1,7,-1
 494 400 l 1,8,-1
 494 300 l 1,9,-1
 531 300 l 1,10,-1
 531 100 l 1,11,-1
 494 100 l 1,12,-1
 494 0 l 1,13,-1
 344 0 l 1,14,-1
 344 100 l 1,15,-1
 456 100 l 1,16,-1
 456 300 l 1,17,-1
 306 300 l 1,18,-1
 306 0 l 1,19,-1
 231 0 l 1,0,-1
EndSplineSet
Validated: 1
EndChar

StartChar: uni0403
Encoding: 1027 1027 240
Width: 600
GlyphClass: 2
Flags: W
LayerCount: 2
Back
Fore
SplineSet
156 0 m 1,0,-1
 156 600 l 1,1,-1
 269 600 l 1,2,-1
 269 700 l 1,3,-1
 306 700 l 1,4,-1
 306 800 l 1,5,-1
 381 800 l 1,6,-1
 381 700 l 1,7,-1
 344 700 l 1,8,-1
 344 600 l 1,9,-1
 494 600 l 1,10,-1
 494 500 l 1,11,-1
 231 500 l 1,12,-1
 231 0 l 1,13,-1
 156 0 l 1,0,-1
EndSplineSet
Validated: 1
EndChar

StartChar: uni0404
Encoding: 1028 1028 241
Width: 600
GlyphClass: 2
Flags: W
LayerCount: 2
Back
Fore
SplineSet
219 500 m 1,0,-1
 181 500 l 1,1,-1
 181 400 l 1,2,-1
 331 400 l 1,3,-1
 331 300 l 1,4,-1
 181 300 l 1,5,-1
 181 200 l 1,6,-1
 219 200 l 1,7,-1
 219 100 l 1,8,-1
 369 100 l 1,9,-1
 369 200 l 1,10,-1
 444 200 l 1,11,-1
 444 100 l 1,12,-1
 406 100 l 1,13,-1
 406 0 l 1,14,-1
 181 0 l 1,15,-1
 181 100 l 1,16,-1
 144 100 l 1,17,-1
 144 200 l 1,18,-1
 106 200 l 1,19,-1
 106 500 l 1,20,-1
 144 500 l 1,21,-1
 144 600 l 1,22,-1
 181 600 l 1,23,-1
 181 700 l 1,24,-1
 406 700 l 1,25,-1
 406 600 l 1,26,-1
 444 600 l 1,27,-1
 444 500 l 1,28,-1
 369 500 l 1,29,-1
 369 600 l 1,30,-1
 219 600 l 1,31,-1
 219 500 l 1,0,-1
EndSplineSet
Validated: 1
EndChar

StartChar: uni0405
Encoding: 1029 1029 242
Width: 600
GlyphClass: 2
Flags: W
LayerCount: 2
Back
Fore
SplineSet
194 600 m 1,0,-1
 194 700 l 1,1,-1
 456 700 l 1,2,-1
 456 600 l 1,3,-1
 231 600 l 1,4,-1
 231 400 l 1,5,-1
 456 400 l 1,6,-1
 456 300 l 1,7,-1
 494 300 l 1,8,-1
 494 100 l 1,9,-1
 456 100 l 1,10,-1
 456 0 l 1,11,-1
 194 0 l 1,12,-1
 194 100 l 1,13,-1
 419 100 l 1,14,-1
 419 300 l 1,15,-1
 194 300 l 1,16,-1
 194 400 l 1,17,-1
 156 400 l 1,18,-1
 156 600 l 1,19,-1
 194 600 l 1,0,-1
EndSplineSet
Validated: 1
EndChar

StartChar: uni0406
Encoding: 1030 1030 243
Width: 600
GlyphClass: 2
Flags: W
LayerCount: 2
Back
Fore
SplineSet
150 700 m 1,0,-1
 450 700 l 1,1,-1
 450 600 l 1,2,-1
 338 600 l 1,3,-1
 338 100 l 1,4,-1
 450 100 l 1,5,-1
 450 0 l 1,6,-1
 150 0 l 1,7,-1
 150 100 l 1,8,-1
 262 100 l 1,9,-1
 262 600 l 1,10,-1
 150 600 l 1,11,-1
 150 700 l 1,0,-1
EndSplineSet
Validated: 1
EndChar

StartChar: uni0407
Encoding: 1031 1031 244
Width: 600
GlyphClass: 2
Flags: W
LayerCount: 2
Back
Fore
SplineSet
338 700 m 1,0,-1
 338 800 l 1,1,-1
 412 800 l 1,2,-1
 412 700 l 1,3,-1
 338 700 l 1,0,-1
188 700 m 1,4,-1
 188 800 l 1,5,-1
 262 800 l 1,6,-1
 262 700 l 1,7,-1
 188 700 l 1,4,-1
150 500 m 1,8,-1
 150 600 l 1,9,-1
 450 600 l 1,10,-1
 450 500 l 1,11,-1
 338 500 l 1,12,-1
 338 100 l 1,13,-1
 450 100 l 1,14,-1
 450 0 l 1,15,-1
 150 0 l 1,16,-1
 150 100 l 1,17,-1
 262 100 l 1,18,-1
 262 500 l 1,19,-1
 150 500 l 1,8,-1
EndSplineSet
Validated: 1
EndChar

StartChar: uni0408
Encoding: 1032 1032 245
Width: 600
GlyphClass: 2
Flags: W
LayerCount: 2
Back
Fore
SplineSet
419 700 m 1,0,-1
 494 700 l 1,1,-1
 494 100 l 1,2,-1
 456 100 l 1,3,-1
 456 0 l 1,4,-1
 194 0 l 1,5,-1
 194 100 l 1,6,-1
 156 100 l 1,7,-1
 156 200 l 1,8,-1
 231 200 l 1,9,-1
 231 100 l 1,10,-1
 419 100 l 1,11,-1
 419 700 l 1,0,-1
EndSplineSet
Validated: 1
EndChar

StartChar: uni0409
Encoding: 1033 1033 246
Width: 600
GlyphClass: 2
Flags: W
LayerCount: 2
Back
Fore
SplineSet
381 100 m 1,0,-1
 456 100 l 1,1,-1
 456 300 l 1,2,-1
 381 300 l 1,3,-1
 381 100 l 1,0,-1
119 0 m 1,4,-1
 119 100 l 1,5,-1
 156 100 l 1,6,-1
 156 600 l 1,7,-1
 194 600 l 1,8,-1
 194 700 l 1,9,-1
 381 700 l 1,10,-1
 381 400 l 1,11,-1
 494 400 l 1,12,-1
 494 300 l 1,13,-1
 531 300 l 1,14,-1
 531 50 l 1,15,-1
 494 50 l 1,16,-1
 494 0 l 1,17,-1
 306 0 l 1,18,-1
 306 600 l 1,19,-1
 231 600 l 1,20,-1
 231 100 l 1,21,-1
 194 100 l 1,22,-1
 194 0 l 1,23,-1
 119 0 l 1,4,-1
EndSplineSet
Validated: 1
EndChar

StartChar: uni040A
Encoding: 1034 1034 247
Width: 600
GlyphClass: 2
Flags: W
LayerCount: 2
Back
Fore
SplineSet
381 300 m 1,0,-1
 381 100 l 1,1,-1
 456 100 l 1,2,-1
 456 300 l 1,3,-1
 381 300 l 1,0,-1
119 700 m 1,4,-1
 194 700 l 1,5,-1
 194 400 l 1,6,-1
 306 400 l 1,7,-1
 306 700 l 1,8,-1
 381 700 l 1,9,-1
 381 400 l 1,10,-1
 494 400 l 1,11,-1
 494 300 l 1,12,-1
 531 300 l 1,13,-1
 531 50 l 1,14,-1
 494 50 l 1,15,-1
 494 0 l 1,16,-1
 306 0 l 1,17,-1
 306 300 l 1,18,-1
 194 300 l 1,19,-1
 194 0 l 1,20,-1
 119 0 l 1,21,-1
 119 700 l 1,4,-1
EndSplineSet
Validated: 1
EndChar

StartChar: uni040B
Encoding: 1035 1035 248
Width: 600
GlyphClass: 2
Flags: W
LayerCount: 2
Back
Fore
SplineSet
119 600 m 1,0,-1
 119 700 l 1,1,-1
 419 700 l 1,2,-1
 419 600 l 1,3,-1
 306 600 l 1,4,-1
 306 400 l 1,5,-1
 494 400 l 1,6,-1
 494 300 l 1,7,-1
 531 300 l 1,8,-1
 531 0 l 1,9,-1
 456 0 l 1,10,-1
 456 300 l 1,11,-1
 306 300 l 1,12,-1
 306 0 l 1,13,-1
 231 0 l 1,14,-1
 231 600 l 1,15,-1
 119 600 l 1,0,-1
EndSplineSet
Validated: 1
EndChar

StartChar: uni040C
Encoding: 1036 1036 249
Width: 600
GlyphClass: 2
Flags: W
LayerCount: 2
Back
Fore
SplineSet
150 0 m 1,0,-1
 150 600 l 1,1,-1
 225 600 l 1,2,-1
 225 400 l 1,3,4
 225 400 225 400 262 400 c 1,5,-1
 262 500 l 1,6,-1
 338 500 l 1,7,-1
 338 600 l 1,8,-1
 450 600 l 1,9,-1
 450 500 l 1,10,-1
 375 500 l 1,11,-1
 375 400 l 1,12,-1
 300 400 l 1,13,-1
 300 200 l 1,14,-1
 375 200 l 1,15,-1
 375 100 l 1,16,-1
 450 100 l 1,17,-1
 450 0 l 1,18,-1
 338 0 l 1,19,-1
 338 100 l 1,20,-1
 262 100 l 1,21,-1
 262 200 l 1,22,-1
 225 200 l 1,23,-1
 225 0 l 1,24,-1
 150 0 l 1,0,-1
262 600 m 1,25,-1
 262 700 l 1,26,-1
 300 700 l 1,27,-1
 300 800 l 1,28,-1
 375 800 l 1,29,-1
 375 700 l 1,30,31
 375 700 375 700 338 700 c 1,32,-1
 338 600 l 1,33,-1
 262 600 l 1,25,-1
EndSplineSet
Validated: 5
EndChar

StartChar: uni040D
Encoding: 1037 1037 250
Width: 600
GlyphClass: 2
Flags: W
LayerCount: 2
Back
Fore
SplineSet
112 700 m 1,0,-1
 188 700 l 1,1,-1
 188 200 l 1,2,-1
 225 200 l 1,3,-1
 225 300 l 1,4,5
 225 300 225 300 262 300 c 1,6,-1
 262 400 l 1,7,-1
 300 400 l 1,8,-1
 300 500 l 1,9,-1
 338 500 l 1,10,-1
 338 600 l 1,11,-1
 375 600 l 1,12,-1
 375 700 l 1,13,14
 375 700 375 700 488 700 c 1,15,-1
 488 0 l 1,16,-1
 412 0 l 1,17,-1
 412 500 l 1,18,-1
 375 500 l 1,19,-1
 375 400 l 1,20,21
 375 400 375 400 338 400 c 1,22,-1
 338 300 l 1,23,-1
 300 300 l 1,24,-1
 300 200 l 1,25,-1
 262 200 l 1,26,-1
 262 100 l 1,27,-1
 225 100 l 1,28,-1
 225 0 l 1,29,30
 225 0 225 0 112 0 c 1,31,-1
 112 700 l 1,0,-1
EndSplineSet
Validated: 1
EndChar

StartChar: uni040E
Encoding: 1038 1038 251
Width: 600
GlyphClass: 2
Flags: W
LayerCount: 2
Back
Fore
SplineSet
306 700 m 1,0,-1
 306 800 l 1,1,-1
 344 800 l 1,2,-1
 344 700 l 1,3,-1
 306 700 l 1,0,-1
156 700 m 1,4,-1
 231 700 l 1,5,-1
 231 400 l 1,6,-1
 419 400 l 1,7,-1
 419 700 l 1,8,-1
 494 700 l 1,9,-1
 494 100 l 1,10,-1
 456 100 l 1,11,-1
 456 0 l 1,12,-1
 194 0 l 1,13,-1
 194 100 l 1,14,-1
 156 100 l 1,15,-1
 156 200 l 1,16,-1
 231 200 l 1,17,-1
 231 100 l 1,18,-1
 419 100 l 1,19,-1
 419 300 l 1,20,-1
 194 300 l 1,21,-1
 194 400 l 1,22,-1
 156 400 l 1,23,-1
 156 700 l 1,4,-1
EndSplineSet
Validated: 1
EndChar

StartChar: uni040F
Encoding: 1039 1039 252
Width: 600
GlyphClass: 2
Flags: W
LayerCount: 2
Back
Fore
SplineSet
162 0 m 1,0,-1
 162 700 l 1,1,-1
 238 700 l 1,2,-1
 238 100 l 1,3,-1
 462 100 l 1,4,-1
 462 700 l 1,5,-1
 538 700 l 1,6,-1
 538 0 l 1,7,-1
 388 0 l 1,8,-1
 388 -200 l 1,9,-1
 312 -200 l 1,10,-1
 312 0 l 1,11,-1
 162 0 l 1,0,-1
EndSplineSet
Validated: 1
EndChar

StartChar: uni0410
Encoding: 1040 1040 253
Width: 600
GlyphClass: 2
Flags: W
LayerCount: 2
Back
Fore
SplineSet
188 400 m 1,0,-1
 188 300 l 1,1,-1
 412 300 l 1,2,-1
 412 400 l 1,3,-1
 375 400 l 1,4,-1
 375 500 l 1,5,6
 375 500 375 500 338 500 c 1,7,-1
 338 600 l 1,8,-1
 262 600 l 1,9,-1
 262 500 l 1,10,-1
 225 500 l 1,11,-1
 225 400 l 1,12,-1
 188 400 l 1,0,-1
188 0 m 1,13,-1
 112 0 l 1,14,-1
 112 400 l 1,15,-1
 150 400 l 1,16,-1
 150 500 l 1,17,-1
 188 500 l 1,18,-1
 188 600 l 1,19,-1
 225 600 l 1,20,-1
 225 700 l 1,21,-1
 374 700 l 1,22,-1
 375 600 l 1,23,24
 375 600 375 600 412 600 c 1,25,-1
 412 500 l 1,26,-1
 450 500 l 1,27,-1
 450 400 l 1,28,-1
 488 400 l 1,29,-1
 488 0 l 1,30,-1
 412 0 l 1,31,-1
 412 200 l 1,32,-1
 188 200 l 1,33,-1
 188 0 l 1,13,-1
EndSplineSet
Validated: 1
EndChar

StartChar: uni0411
Encoding: 1041 1041 254
Width: 600
GlyphClass: 2
Flags: W
LayerCount: 2
Back
Fore
SplineSet
231 100 m 1,0,-1
 419 100 l 1,1,-1
 419 300 l 1,2,-1
 231 300 l 1,3,-1
 231 100 l 1,0,-1
156 700 m 1,4,-1
 456 700 l 1,5,-1
 456 600 l 1,6,-1
 231 600 l 1,7,-1
 231 400 l 1,8,-1
 456 400 l 1,9,-1
 456 300 l 1,10,-1
 494 300 l 1,11,-1
 494 100 l 1,12,-1
 456 100 l 1,13,-1
 456 0 l 1,14,-1
 156 0 l 1,15,-1
 156 700 l 1,4,-1
EndSplineSet
Validated: 1
EndChar

StartChar: uni0412
Encoding: 1042 1042 255
Width: 600
GlyphClass: 2
Flags: W
LayerCount: 2
Back
Fore
SplineSet
231 600 m 1,0,-1
 231 400 l 1,1,-1
 419 400 l 1,2,-1
 419 600 l 1,3,-1
 231 600 l 1,0,-1
231 300 m 1,4,-1
 231 100 l 1,5,-1
 419 100 l 1,6,-1
 419 300 l 1,7,-1
 231 300 l 1,4,-1
156 0 m 1,8,-1
 156 700 l 1,9,-1
 456 700 l 1,10,-1
 456 600 l 1,11,-1
 494 600 l 1,12,-1
 494 400 l 1,13,-1
 456 400 l 1,14,-1
 456 300 l 1,15,-1
 494 300 l 1,16,-1
 494 100 l 1,17,-1
 456 100 l 1,18,-1
 456 0 l 1,19,-1
 156 0 l 1,8,-1
EndSplineSet
Validated: 1
EndChar

StartChar: uni0413
Encoding: 1043 1043 256
Width: 600
GlyphClass: 2
Flags: W
LayerCount: 2
Back
Fore
SplineSet
156 700 m 1,0,-1
 494 700 l 1,1,-1
 494 600 l 1,2,-1
 231 600 l 1,3,-1
 231 0 l 1,4,-1
 156 0 l 1,5,-1
 156 700 l 1,0,-1
EndSplineSet
Validated: 1
EndChar

StartChar: uni0414
Encoding: 1044 1044 257
Width: 600
GlyphClass: 2
Flags: W
LayerCount: 2
Back
Fore
SplineSet
306 600 m 1,0,-1
 306 500 l 1,1,-1
 269 500 l 1,2,-1
 269 100 l 1,3,-1
 381 100 l 1,4,-1
 381 600 l 1,5,-1
 306 600 l 1,0,-1
231 500 m 1,6,-1
 231 600 l 1,7,-1
 269 600 l 1,8,-1
 269 700 l 1,9,-1
 456 700 l 1,10,-1
 456 100 l 1,11,-1
 494 100 l 1,12,-1
 494 -100 l 1,13,-1
 419 -100 l 1,14,-1
 419 0 l 1,15,-1
 231 0 l 1,16,-1
 231 -100 l 1,17,-1
 156 -100 l 1,18,-1
 156 100 l 1,19,-1
 194 100 l 1,20,-1
 194 500 l 1,21,-1
 231 500 l 1,6,-1
EndSplineSet
Validated: 1
EndChar

StartChar: uni0415
Encoding: 1045 1045 258
Width: 600
GlyphClass: 2
Flags: W
LayerCount: 2
Back
Fore
SplineSet
494 600 m 1,0,-1
 231 600 l 1,1,-1
 231 400 l 1,2,-1
 419 400 l 1,3,-1
 419 300 l 1,4,-1
 231 300 l 1,5,-1
 231 100 l 1,6,-1
 494 100 l 1,7,-1
 494 0 l 1,8,-1
 156 0 l 1,9,-1
 156 700 l 1,10,-1
 494 700 l 1,11,-1
 494 600 l 1,0,-1
EndSplineSet
Validated: 1
EndChar

StartChar: uni0416
Encoding: 1046 1046 259
Width: 600
GlyphClass: 2
Flags: W
LayerCount: 2
Back
Fore
SplineSet
112 700 m 1,0,-1
 187 700 l 2,1,2
 188 700 188 700 188 500 c 1,3,-1
 224 500 l 1,4,-1
 225 400 l 1,5,6
 225 400 225 400 262 400 c 1,7,-1
 262 700 l 1,8,-1
 338 700 l 1,9,-1
 338 400 l 1,10,-1
 375 400 l 1,11,-1
 375 500 l 1,12,13
 375 500 375 500 412 500 c 1,14,-1
 412 700 l 1,15,-1
 488 700 l 1,16,-1
 488 500 l 1,17,-1
 450 500 l 1,18,-1
 450 400 l 1,19,-1
 412 400 l 1,20,-1
 412 300 l 1,21,-1
 450 300 l 1,22,-1
 450 200 l 1,23,-1
 488 200 l 1,24,-1
 488 0 l 1,25,-1
 412 0 l 1,26,-1
 412 200 l 1,27,-1
 375 200 l 1,28,-1
 375 300 l 1,29,30
 375 300 375 300 338 300 c 1,31,-1
 338 0 l 1,32,-1
 262 0 l 1,33,-1
 262 300 l 1,34,-1
 225 300 l 1,35,-1
 225 200 l 1,36,37
 225 200 225 200 188 200 c 1,38,-1
 188 0 l 1,39,-1
 112 0 l 1,40,-1
 112 200 l 1,41,-1
 150 200 l 1,42,-1
 150 300 l 1,43,-1
 188 300 l 1,44,-1
 188 400 l 1,45,-1
 150 400 l 1,46,-1
 150 500 l 1,47,-1
 112 500 l 1,48,-1
 112 700 l 1,0,-1
EndSplineSet
Validated: 1
EndChar

StartChar: uni0417
Encoding: 1047 1047 260
Width: 600
GlyphClass: 2
Flags: W
LayerCount: 2
Back
Fore
SplineSet
156 500 m 1,0,-1
 156 600 l 1,1,-1
 194 600 l 1,2,-1
 194 700 l 1,3,-1
 456 700 l 1,4,-1
 456 600 l 1,5,-1
 494 600 l 1,6,-1
 494 400 l 1,7,-1
 456 400 l 1,8,-1
 456 300 l 1,9,-1
 494 300 l 1,10,-1
 494 100 l 1,11,-1
 456 100 l 1,12,-1
 456 0 l 1,13,-1
 194 0 l 1,14,-1
 194 100 l 1,15,-1
 156 100 l 1,16,-1
 156 200 l 1,17,-1
 230 200 l 1,18,-1
 231 100 l 1,19,-1
 419 100 l 1,20,-1
 419 300 l 1,21,-1
 269 300 l 1,22,-1
 269 400 l 1,23,-1
 419 400 l 1,24,-1
 419 600 l 1,25,-1
 231 600 l 1,26,-1
 231 500 l 1,27,-1
 156 500 l 1,0,-1
EndSplineSet
Validated: 1
EndChar

StartChar: uni0418
Encoding: 1048 1048 261
Width: 600
GlyphClass: 2
Flags: W
LayerCount: 2
Back
Fore
SplineSet
112 700 m 1,0,-1
 188 700 l 1,1,-1
 188 200 l 1,2,-1
 225 200 l 1,3,-1
 225 300 l 1,4,5
 225 300 225 300 262 300 c 1,6,-1
 262 400 l 1,7,-1
 300 400 l 1,8,-1
 300 500 l 1,9,-1
 338 500 l 1,10,-1
 338 600 l 1,11,-1
 375 600 l 1,12,-1
 375 700 l 1,13,14
 375 700 375 700 488 700 c 1,15,-1
 488 0 l 1,16,-1
 412 0 l 1,17,-1
 412 500 l 1,18,-1
 375 500 l 1,19,-1
 375 400 l 1,20,21
 375 400 375 400 338 400 c 1,22,-1
 338 300 l 1,23,-1
 300 300 l 1,24,-1
 300 200 l 1,25,-1
 262 200 l 1,26,-1
 262 100 l 1,27,-1
 225 100 l 1,28,-1
 225 0 l 1,29,30
 225 0 225 0 112 0 c 1,31,-1
 112 700 l 1,0,-1
EndSplineSet
Validated: 1
EndChar

StartChar: uni0419
Encoding: 1049 1049 262
Width: 600
GlyphClass: 2
Flags: W
LayerCount: 2
Back
Fore
SplineSet
262 700 m 1,0,-1
 262 800 l 1,1,-1
 300 800 l 1,2,-1
 300 700 l 1,3,-1
 262 700 l 1,0,-1
112 700 m 1,4,-1
 188 700 l 1,5,-1
 188 200 l 1,6,-1
 225 200 l 1,7,-1
 225 300 l 1,8,9
 225 300 225 300 262 300 c 1,10,-1
 262 400 l 1,11,-1
 300 400 l 1,12,-1
 300 500 l 1,13,-1
 338 500 l 1,14,-1
 338 600 l 1,15,-1
 375 600 l 1,16,-1
 375 700 l 1,17,18
 375 700 375 700 488 700 c 1,19,-1
 488 0 l 1,20,-1
 412 0 l 1,21,-1
 412 500 l 1,22,-1
 375 500 l 1,23,-1
 375 400 l 1,24,25
 375 400 375 400 338 400 c 1,26,-1
 338 300 l 1,27,-1
 300 300 l 1,28,-1
 300 200 l 1,29,-1
 262 200 l 1,30,-1
 262 100 l 1,31,-1
 225 100 l 1,32,-1
 225 0 l 1,33,34
 225 0 225 0 112 0 c 1,35,-1
 112 700 l 1,4,-1
EndSplineSet
Validated: 1
EndChar

StartChar: uni041A
Encoding: 1050 1050 263
Width: 600
GlyphClass: 2
Flags: W
LayerCount: 2
Back
Fore
SplineSet
156 700 m 1,0,-1
 231 700 l 1,1,-1
 231 400 l 1,2,-1
 269 400 l 1,3,-1
 269 500 l 1,4,-1
 344 500 l 1,5,-1
 344 600 l 1,6,-1
 381 600 l 1,7,-1
 381 700 l 1,8,-1
 494 700 l 1,9,-1
 494 600 l 1,10,-1
 419 600 l 1,11,-1
 419 500 l 1,12,-1
 381 500 l 1,13,-1
 381 400 l 1,14,-1
 306 400 l 1,15,-1
 306 300 l 1,16,-1
 381 300 l 1,17,-1
 381 200 l 1,18,-1
 419 200 l 1,19,-1
 419 100 l 1,20,-1
 494 100 l 1,21,-1
 494 0 l 1,22,-1
 381 0 l 1,23,-1
 381 100 l 1,24,-1
 344 100 l 1,25,-1
 344 200 l 1,26,-1
 269 200 l 1,27,-1
 269 300 l 1,28,-1
 231 300 l 1,29,-1
 231 0 l 1,30,-1
 156 0 l 1,31,-1
 156 700 l 1,0,-1
EndSplineSet
Validated: 1
EndChar

StartChar: uni041B
Encoding: 1051 1051 264
Width: 600
GlyphClass: 2
Flags: W
LayerCount: 2
Back
Fore
SplineSet
156 0 m 1,0,-1
 156 100 l 1,1,-1
 194 100 l 1,2,-1
 194 200 l 1,3,-1
 231 200 l 1,4,-1
 231 600 l 1,5,-1
 269 600 l 1,6,-1
 269 700 l 1,7,-1
 494 700 l 1,8,-1
 494 0 l 1,9,-1
 419 0 l 1,10,-1
 419 600 l 1,11,-1
 306 600 l 1,12,-1
 306 200 l 1,13,-1
 269 200 l 1,14,-1
 269 100 l 1,15,-1
 231 100 l 1,16,-1
 231 0 l 1,17,-1
 156 0 l 1,0,-1
EndSplineSet
Validated: 1
EndChar

StartChar: uni041C
Encoding: 1052 1052 265
Width: 600
GlyphClass: 2
Flags: W
LayerCount: 2
Back
Fore
SplineSet
188 0 m 1,0,-1
 112 0 l 1,1,-1
 112 700 l 1,2,-1
 225 700 l 1,3,-1
 225 600 l 1,4,5
 225 600 225 600 262 600 c 1,6,-1
 262 500 l 1,7,-1
 338 500 l 1,8,-1
 338 600 l 1,9,-1
 375 600 l 1,10,-1
 375 700 l 1,11,12
 375 700 375 700 488 700 c 1,13,-1
 488 0 l 1,14,-1
 412 0 l 1,15,-1
 412 500 l 1,16,-1
 375 500 l 1,17,-1
 375 400 l 1,18,19
 375 400 375 400 338 400 c 1,20,-1
 338 300 l 1,21,-1
 262 300 l 1,22,-1
 262 400 l 1,23,-1
 225 400 l 1,24,-1
 225 500 l 1,25,26
 225 500 225 500 188 500 c 1,27,-1
 188 0 l 1,0,-1
EndSplineSet
Validated: 1
EndChar

StartChar: uni041D
Encoding: 1053 1053 266
Width: 600
GlyphClass: 2
Flags: W
LayerCount: 2
Back
Fore
SplineSet
156 700 m 1,0,-1
 231 700 l 1,1,-1
 231 400 l 1,2,-1
 419 400 l 1,3,-1
 419 700 l 1,4,-1
 494 700 l 1,5,-1
 494 0 l 1,6,-1
 419 0 l 1,7,-1
 419 300 l 1,8,-1
 231 300 l 1,9,-1
 231 0 l 1,10,-1
 156 0 l 1,11,-1
 156 700 l 1,0,-1
EndSplineSet
Validated: 1
EndChar

StartChar: uni041E
Encoding: 1054 1054 267
Width: 600
GlyphClass: 2
Flags: W
LayerCount: 2
Back
Fore
SplineSet
375 100 m 1,0,-1
 375 200 l 1,1,2
 375 200 375 200 412 200 c 1,3,-1
 412 500 l 1,4,-1
 375 500 l 1,5,-1
 375 600 l 1,6,-1
 225 600 l 1,7,-1
 225 500 l 1,8,9
 225 500 225 500 188 500 c 1,10,-1
 188 200 l 1,11,-1
 225 200 l 1,12,-1
 225 100 l 1,13,-1
 375 100 l 1,0,-1
412 0 m 1,14,-1
 188 0 l 1,15,-1
 188 100 l 1,16,-1
 150 100 l 1,17,-1
 150 200 l 1,18,-1
 112 200 l 1,19,-1
 112 500 l 1,20,-1
 150 500 l 1,21,-1
 150 600 l 1,22,-1
 188 600 l 1,23,-1
 188 700 l 1,24,-1
 412 700 l 1,25,-1
 412 600 l 1,26,-1
 450 600 l 1,27,-1
 450 500 l 1,28,-1
 488 500 l 1,29,-1
 488 200 l 1,30,-1
 450 200 l 1,31,-1
 450 100 l 1,32,-1
 412 100 l 1,33,-1
 412 0 l 1,14,-1
EndSplineSet
Validated: 1
EndChar

StartChar: uni041F
Encoding: 1055 1055 268
Width: 600
GlyphClass: 2
Flags: W
LayerCount: 2
Back
Fore
SplineSet
156 700 m 1,0,-1
 494 700 l 1,1,-1
 494 0 l 1,2,-1
 419 0 l 1,3,-1
 419 600 l 1,4,-1
 231 600 l 1,5,-1
 231 0 l 1,6,-1
 156 0 l 1,7,-1
 156 700 l 1,0,-1
EndSplineSet
Validated: 1
EndChar

StartChar: uni0420
Encoding: 1056 1056 269
Width: 600
GlyphClass: 2
Flags: W
LayerCount: 2
Back
Fore
SplineSet
231 600 m 1,0,-1
 231 400 l 1,1,-1
 419 400 l 1,2,-1
 419 600 l 1,3,-1
 231 600 l 1,0,-1
156 700 m 1,4,-1
 456 700 l 1,5,-1
 456 650 l 1,6,-1
 494 650 l 1,7,-1
 494 400 l 1,8,-1
 456 400 l 1,9,-1
 456 300 l 1,10,-1
 231 300 l 1,11,-1
 231 0 l 1,12,-1
 156 0 l 1,13,-1
 156 700 l 1,4,-1
EndSplineSet
Validated: 1
EndChar

StartChar: uni0421
Encoding: 1057 1057 270
Width: 600
GlyphClass: 2
Flags: W
LayerCount: 2
Back
Fore
SplineSet
231 700 m 1,0,-1
 456 700 l 1,1,-1
 456 600 l 1,2,-1
 494 600 l 1,3,-1
 494 500 l 1,4,-1
 419 500 l 1,5,-1
 419 600 l 1,6,-1
 269 600 l 1,7,-1
 269 500 l 1,8,-1
 231 500 l 1,9,-1
 231 200 l 1,10,-1
 269 200 l 1,11,-1
 269 100 l 1,12,-1
 419 100 l 1,13,-1
 419 200 l 1,14,-1
 494 200 l 1,15,-1
 494 100 l 1,16,-1
 456 100 l 1,17,-1
 456 0 l 1,18,-1
 231 0 l 1,19,-1
 231 100 l 1,20,-1
 194 100 l 1,21,-1
 194 200 l 1,22,-1
 156 200 l 1,23,-1
 156 500 l 1,24,-1
 194 500 l 1,25,-1
 194 600 l 1,26,-1
 231 600 l 1,27,-1
 231 700 l 1,0,-1
EndSplineSet
Validated: 1
EndChar

StartChar: uni0422
Encoding: 1058 1058 271
Width: 600
GlyphClass: 2
Flags: W
LayerCount: 2
Back
Fore
SplineSet
112 700 m 1,0,-1
 488 700 l 1,1,-1
 488 600 l 1,2,-1
 338 600 l 1,3,-1
 338 0 l 1,4,-1
 262 0 l 1,5,-1
 262 600 l 1,6,-1
 112 600 l 1,7,-1
 112 700 l 1,0,-1
EndSplineSet
Validated: 1
EndChar

StartChar: uni0423
Encoding: 1059 1059 272
Width: 600
GlyphClass: 2
Flags: W
LayerCount: 2
Back
Fore
SplineSet
156 700 m 1,0,-1
 231 700 l 1,1,-1
 231 400 l 1,2,-1
 419 400 l 1,3,-1
 419 700 l 1,4,-1
 494 700 l 1,5,-1
 494 100 l 1,6,-1
 456 100 l 1,7,-1
 456 0 l 1,8,-1
 194 0 l 1,9,-1
 194 100 l 1,10,-1
 156 100 l 1,11,-1
 156 200 l 1,12,-1
 231 200 l 1,13,-1
 231 100 l 1,14,-1
 419 100 l 1,15,-1
 419 300 l 1,16,-1
 194 300 l 1,17,-1
 194 400 l 1,18,-1
 156 400 l 1,19,-1
 156 700 l 1,0,-1
EndSplineSet
Validated: 1
EndChar

StartChar: uni0424
Encoding: 1060 1060 273
Width: 600
GlyphClass: 2
Flags: W
LayerCount: 2
Back
Fore
SplineSet
338 500 m 1,0,-1
 338 200 l 1,1,-1
 412 200 l 1,2,-1
 412 500 l 1,3,-1
 338 500 l 1,0,-1
188 500 m 1,4,-1
 188 200 l 1,5,-1
 262 200 l 1,6,-1
 262 500 l 1,7,-1
 188 500 l 1,4,-1
262 600 m 1,8,-1
 262 700 l 1,9,-1
 338 700 l 1,10,-1
 338 600 l 1,11,-1
 450 600 l 1,12,-1
 450 500 l 1,13,-1
 488 500 l 1,14,-1
 488 200 l 1,15,-1
 450 200 l 1,16,-1
 450 100 l 1,17,-1
 338 100 l 1,18,-1
 338 0 l 1,19,-1
 262 0 l 1,20,-1
 262 100 l 1,21,-1
 150 100 l 1,22,-1
 150 200 l 1,23,-1
 112 200 l 1,24,-1
 112 500 l 1,25,-1
 150 500 l 1,26,-1
 150 600 l 1,27,-1
 262 600 l 1,8,-1
EndSplineSet
Validated: 1
EndChar

StartChar: uni0425
Encoding: 1061 1061 274
Width: 600
GlyphClass: 2
Flags: W
LayerCount: 2
Back
Fore
SplineSet
150 700 m 1,0,-1
 225 700 l 1,1,-1
 225 600 l 1,2,3
 225 600 225 600 262 600 c 1,4,-1
 262 500 l 1,5,-1
 338 500 l 1,6,-1
 338 600 l 1,7,-1
 375 600 l 1,8,-1
 375 700 l 1,9,-1
 450 700 l 1,10,-1
 450 600 l 1,11,-1
 412 600 l 1,12,-1
 412 500 l 1,13,-1
 375 500 l 1,14,-1
 375 400 l 1,15,16
 375 400 375 400 338 400 c 1,17,-1
 338 300 l 1,18,-1
 375 300 l 1,19,-1
 375 200 l 1,20,21
 375 200 375 200 412 200 c 1,22,-1
 412 100 l 1,23,-1
 450 100 l 1,24,-1
 450 0 l 1,25,-1
 375 0 l 1,26,-1
 375 100 l 1,27,28
 375 100 375 100 338 100 c 1,29,-1
 338 200 l 1,30,-1
 262 200 l 1,31,-1
 262 100 l 1,32,-1
 225 100 l 1,33,-1
 225 0 l 1,34,-1
 150 0 l 1,35,-1
 150 100 l 1,36,-1
 188 100 l 1,37,-1
 188 200 l 1,38,-1
 225 200 l 1,39,-1
 225 300 l 1,40,41
 225 300 225 300 262 300 c 1,42,-1
 262 400 l 1,43,-1
 225 400 l 1,44,-1
 225 500 l 1,45,46
 225 500 225 500 188 500 c 1,47,-1
 188 600 l 1,48,-1
 150 600 l 1,49,-1
 150 700 l 1,0,-1
EndSplineSet
Validated: 1
EndChar

StartChar: uni0426
Encoding: 1062 1062 275
Width: 600
GlyphClass: 2
Flags: W
LayerCount: 2
Back
Fore
SplineSet
156 700 m 1,0,-1
 231 700 l 1,1,-1
 231 100 l 1,2,-1
 344 100 l 1,3,-1
 344 700 l 1,4,-1
 419 700 l 1,5,-1
 419 100 l 1,6,-1
 494 100 l 1,7,-1
 494 -100 l 1,8,-1
 419 -100 l 1,9,-1
 419 0 l 1,10,-1
 156 0 l 1,11,-1
 156 700 l 1,0,-1
EndSplineSet
Validated: 1
EndChar

StartChar: uni0427
Encoding: 1063 1063 276
Width: 600
GlyphClass: 2
Flags: W
LayerCount: 2
Back
Fore
SplineSet
156 700 m 1,0,-1
 231 700 l 1,1,-1
 231 500 l 1,2,-1
 269 500 l 1,3,-1
 269 400 l 1,4,-1
 419 400 l 1,5,-1
 419 700 l 1,6,-1
 494 700 l 1,7,-1
 494 0 l 1,8,-1
 419 0 l 1,9,-1
 419 300 l 1,10,-1
 231 300 l 1,11,-1
 231 400 l 1,12,-1
 194 400 l 1,13,-1
 194 500 l 1,14,-1
 156 500 l 1,15,-1
 156 700 l 1,0,-1
EndSplineSet
Validated: 1
EndChar

StartChar: uni0428
Encoding: 1064 1064 277
Width: 600
GlyphClass: 2
Flags: W
LayerCount: 2
Back
Fore
SplineSet
112 700 m 1,0,-1
 188 700 l 1,1,-1
 188 100 l 1,2,-1
 262 100 l 1,3,-1
 262 700 l 1,4,-1
 338 700 l 1,5,-1
 338 100 l 1,6,-1
 412 100 l 1,7,-1
 412 700 l 1,8,-1
 488 700 l 1,9,-1
 488 0 l 1,10,-1
 112 0 l 1,11,-1
 112 700 l 1,0,-1
EndSplineSet
Validated: 1
EndChar

StartChar: uni0429
Encoding: 1065 1065 278
Width: 600
GlyphClass: 2
Flags: W
LayerCount: 2
Back
Fore
SplineSet
119 700 m 1,0,-1
 194 700 l 1,1,-1
 194 100 l 1,2,-1
 269 100 l 1,3,-1
 269 700 l 1,4,-1
 344 700 l 1,5,-1
 344 100 l 1,6,-1
 419 100 l 1,7,-1
 419 700 l 1,8,-1
 494 700 l 1,9,-1
 494 100 l 1,10,-1
 531 100 l 1,11,-1
 531 -100 l 1,12,-1
 456 -100 l 1,13,-1
 456 0 l 1,14,-1
 119 0 l 1,15,-1
 119 700 l 1,0,-1
EndSplineSet
Validated: 1
EndChar

StartChar: uni042A
Encoding: 1066 1066 279
Width: 600
GlyphClass: 2
Flags: W
LayerCount: 2
Back
Fore
SplineSet
262 300 m 1,0,-1
 262 100 l 1,1,-1
 412 100 l 1,2,-1
 412 300 l 1,3,-1
 262 300 l 1,0,-1
112 700 m 1,4,-1
 262 700 l 1,5,-1
 262 400 l 1,6,-1
 450 400 l 1,7,-1
 450 300 l 1,8,-1
 488 300 l 1,9,-1
 488 100 l 1,10,-1
 450 100 l 1,11,-1
 450 0 l 1,12,-1
 188 0 l 1,13,-1
 188 600 l 1,14,-1
 112 600 l 1,15,-1
 112 700 l 1,4,-1
EndSplineSet
Validated: 1
EndChar

StartChar: uni042B
Encoding: 1067 1067 280
Width: 600
GlyphClass: 2
Flags: W
LayerCount: 2
Back
Fore
SplineSet
300 300 m 1,0,-1
 188 300 l 1,1,-1
 188 100 l 1,2,-1
 300 100 l 1,3,-1
 300 300 l 1,0,-1
412 700 m 1,4,-1
 488 700 l 1,5,-1
 488 0 l 1,6,-1
 412 0 l 1,7,-1
 412 700 l 1,4,-1
112 700 m 1,8,-1
 188 700 l 1,9,-1
 188 400 l 1,10,-1
 338 400 l 1,11,-1
 338 300 l 1,12,-1
 375 300 l 1,13,-1
 375 100 l 1,14,15
 375 100 375 100 338 100 c 1,16,-1
 338 0 l 1,17,-1
 112 0 l 1,18,-1
 112 700 l 1,8,-1
EndSplineSet
Validated: 1
EndChar

StartChar: uni042C
Encoding: 1068 1068 281
Width: 600
GlyphClass: 2
Flags: W
LayerCount: 2
Back
Fore
SplineSet
275 100 m 1,0,-1
 425 100 l 1,1,-1
 425 300 l 1,2,-1
 275 300 l 1,3,-1
 275 100 l 1,0,-1
200 700 m 1,4,-1
 274 700 l 1,5,-1
 274 400 l 1,6,-1
 462 400 l 1,7,-1
 462 300 l 1,8,-1
 498 300 l 1,9,-1
 500 101 l 1,10,-1
 462 100 l 1,11,-1
 462 0 l 1,12,-1
 200 0 l 1,13,-1
 200 700 l 1,4,-1
EndSplineSet
Validated: 1
EndChar

StartChar: uni042D
Encoding: 1069 1069 282
Width: 600
GlyphClass: 2
Flags: W
LayerCount: 2
Back
Fore
SplineSet
156 500 m 1,0,-1
 156 600 l 1,1,-1
 194 600 l 1,2,-1
 194 700 l 1,3,-1
 419 700 l 1,4,-1
 419 600 l 1,5,-1
 456 600 l 1,6,-1
 456 500 l 1,7,-1
 494 500 l 1,8,-1
 494 200 l 1,9,-1
 456 200 l 1,10,-1
 456 100 l 1,11,-1
 419 100 l 1,12,-1
 419 0 l 1,13,-1
 194 0 l 1,14,-1
 194 100 l 1,15,-1
 156 100 l 1,16,-1
 156 200 l 1,17,-1
 231 200 l 1,18,-1
 231 100 l 1,19,-1
 381 100 l 1,20,-1
 381 200 l 1,21,-1
 419 200 l 1,22,-1
 419 300 l 1,23,-1
 269 300 l 1,24,-1
 269 400 l 1,25,-1
 419 400 l 1,26,-1
 419 500 l 1,27,-1
 381 500 l 1,28,-1
 381 600 l 1,29,-1
 231 600 l 1,30,-1
 231 500 l 1,31,-1
 156 500 l 1,0,-1
EndSplineSet
Validated: 1
EndChar

StartChar: uni042E
Encoding: 1070 1070 283
Width: 600
GlyphClass: 2
Flags: W
LayerCount: 2
Back
Fore
SplineSet
344 600 m 1,0,-1
 344 100 l 1,1,-1
 419 100 l 1,2,-1
 419 600 l 1,3,-1
 344 600 l 1,0,-1
156 700 m 1,4,-1
 231 700 l 1,5,-1
 231 400 l 1,6,-1
 269 400 l 1,7,-1
 269 600 l 1,8,-1
 306 600 l 1,9,-1
 306 700 l 1,10,-1
 456 700 l 1,11,-1
 456 600 l 1,12,-1
 494 600 l 1,13,-1
 494 100 l 1,14,-1
 456 100 l 1,15,-1
 456 0 l 1,16,-1
 306 0 l 1,17,-1
 306 100 l 1,18,-1
 269 100 l 1,19,-1
 269 300 l 1,20,-1
 231 300 l 1,21,-1
 231 0 l 1,22,-1
 156 0 l 1,23,-1
 156 700 l 1,4,-1
EndSplineSet
Validated: 1
EndChar

StartChar: uni042F
Encoding: 1071 1071 284
Width: 600
GlyphClass: 2
Flags: W
LayerCount: 2
Back
Fore
SplineSet
231 600 m 1,0,-1
 231 400 l 1,1,-1
 419 400 l 1,2,-1
 419 600 l 1,3,-1
 231 600 l 1,0,-1
194 700 m 1,4,-1
 494 700 l 1,5,-1
 494 0 l 1,6,-1
 419 0 l 1,7,-1
 419 200 l 1,8,-1
 344 200 l 1,9,-1
 344 100 l 1,10,-1
 306 100 l 1,11,-1
 306 0 l 1,12,-1
 156 0 l 1,13,-1
 156 100 l 1,14,-1
 231 100 l 1,15,-1
 231 200 l 1,16,-1
 306 200 l 1,17,-1
 306 300 l 1,18,-1
 194 300 l 1,19,-1
 194 400 l 1,20,-1
 156 400 l 1,21,-1
 156 600 l 1,22,-1
 194 600 l 1,23,-1
 194 700 l 1,4,-1
EndSplineSet
Validated: 1
EndChar

StartChar: uni0430
Encoding: 1072 1072 285
Width: 600
GlyphClass: 2
Flags: W
LayerCount: 2
Back
Fore
SplineSet
188 200 m 1,0,-1
 188 100 l 1,1,-1
 375 100 l 1,2,-1
 375 200 l 1,3,-1
 188 200 l 1,0,-1
150 500 m 1,4,-1
 412 500 l 1,5,-1
 412 400 l 1,6,-1
 450 400 l 1,7,-1
 450 100 l 1,8,-1
 487 100 l 2,9,10
 488 100 488 100 488 0 c 1,11,-1
 150 0 l 1,12,-1
 150 100 l 1,13,-1
 112 100 l 1,14,-1
 112 200 l 1,15,-1
 150 200 l 1,16,-1
 150 300 l 1,17,-1
 375 300 l 1,18,-1
 375 400 l 1,19,-1
 150 400 l 1,20,-1
 150 500 l 1,4,-1
EndSplineSet
Validated: 1
EndChar

StartChar: uni0431
Encoding: 1073 1073 286
Width: 600
GlyphClass: 2
Flags: W
LayerCount: 2
Back
Fore
SplineSet
231 300 m 1,0,-1
 231 100 l 1,1,-1
 419 100 l 1,2,-1
 419 300 l 1,3,-1
 231 300 l 1,0,-1
194 700 m 1,4,-1
 494 700 l 1,5,-1
 494 600 l 1,6,-1
 306 600 l 1,7,-1
 306 500 l 1,8,-1
 419 500 l 1,9,-1
 419 400 l 1,10,-1
 456 400 l 1,11,-1
 456 300 l 1,12,-1
 494 300 l 1,13,-1
 494 100 l 1,14,-1
 456 100 l 1,15,-1
 456 0 l 1,16,-1
 194 0 l 1,17,-1
 194 100 l 1,18,-1
 156 100 l 1,19,-1
 156 300 l 1,20,-1
 194 300 l 1,21,-1
 194 400 l 1,22,-1
 306 400 l 1,23,-1
 306 500 l 1,24,-1
 231 500 l 1,25,-1
 231 600 l 1,26,-1
 194 600 l 1,27,-1
 194 700 l 1,4,-1
EndSplineSet
Validated: 5
EndChar

StartChar: uni0432
Encoding: 1074 1074 287
Width: 600
GlyphClass: 2
Flags: W
LayerCount: 2
Back
Fore
SplineSet
231 200 m 1,0,-1
 231 100 l 1,1,-1
 419 100 l 1,2,-1
 419 200 l 1,3,-1
 231 200 l 1,0,-1
231 400 m 1,4,-1
 231 300 l 1,5,-1
 419 300 l 1,6,-1
 419 400 l 1,7,-1
 231 400 l 1,4,-1
156 500 m 1,8,-1
 456 500 l 1,9,-1
 456 400 l 1,10,-1
 494 400 l 1,11,-1
 494 300 l 1,12,-1
 456 300 l 1,13,-1
 456 200 l 1,14,-1
 494 200 l 1,15,-1
 494 100 l 1,16,-1
 456 100 l 1,17,-1
 456 0 l 1,18,-1
 156 0 l 1,19,-1
 156 500 l 1,8,-1
EndSplineSet
Validated: 1
EndChar

StartChar: uni0433
Encoding: 1075 1075 288
Width: 600
GlyphClass: 2
Flags: W
LayerCount: 2
Back
Fore
SplineSet
156 0 m 1,0,-1
 156 500 l 1,1,-1
 494 500 l 1,2,-1
 494 401 l 1,3,-1
 231 400 l 1,4,-1
 231 0 l 1,5,-1
 156 0 l 1,0,-1
EndSplineSet
Validated: 1
EndChar

StartChar: uni0434
Encoding: 1076 1076 289
Width: 600
GlyphClass: 2
Flags: W
LayerCount: 2
Back
Fore
SplineSet
262 400 m 1,0,-1
 262 100 l 1,1,-1
 338 100 l 1,2,-1
 338 400 l 1,3,-1
 262 400 l 1,0,-1
225 500 m 1,4,5
 225 500 225 500 412 500 c 1,6,-1
 412 100 l 1,7,-1
 488 100 l 1,8,-1
 488 -100 l 1,9,-1
 412 -100 l 1,10,-1
 412 0 l 1,11,-1
 187 -1 l 1,12,13
 188 -1 188 -1 188 -100 c 1,14,-1
 112 -100 l 1,15,-1
 112 100 l 1,16,-1
 188 100 l 1,17,-1
 188 400 l 1,18,-1
 225 400 l 1,19,-1
 225 500 l 1,4,5
EndSplineSet
Validated: 1
EndChar

StartChar: uni0435
Encoding: 1077 1077 290
Width: 600
GlyphClass: 2
Flags: W
LayerCount: 2
Back
Fore
SplineSet
231 400 m 1,0,-1
 231 300 l 1,1,-1
 419 300 l 1,2,-1
 419 400 l 1,3,-1
 231 400 l 1,0,-1
194 400 m 1,4,-1
 194 500 l 1,5,-1
 456 500 l 1,6,-1
 456 400 l 1,7,-1
 494 400 l 1,8,-1
 494 200 l 1,9,-1
 231 200 l 1,10,-1
 231 100 l 1,11,-1
 456 100 l 1,12,-1
 456 0 l 1,13,-1
 194 0 l 1,14,-1
 194 100 l 1,15,-1
 156 100 l 1,16,-1
 156 400 l 1,17,-1
 194 400 l 1,4,-1
EndSplineSet
Validated: 1
EndChar

StartChar: uni0436
Encoding: 1078 1078 291
Width: 600
GlyphClass: 2
Flags: W
LayerCount: 2
Back
Fore
SplineSet
112 500 m 1,0,-1
 188 500 l 1,1,-1
 188 400 l 1,2,-1
 225 400 l 1,3,-1
 225 300 l 1,4,5
 225 300 225 300 262 300 c 1,6,-1
 262 500 l 1,7,-1
 338 500 l 1,8,-1
 338 300 l 1,9,-1
 375 300 l 1,10,-1
 375 400 l 1,11,12
 375 400 375 400 412 400 c 1,13,-1
 412 500 l 1,14,-1
 488 500 l 1,15,-1
 488 400 l 1,16,-1
 450 400 l 1,17,-1
 450 300 l 1,18,-1
 412 300 l 1,19,-1
 412 200 l 1,20,-1
 450 200 l 1,21,-1
 450 100 l 1,22,-1
 488 100 l 1,23,-1
 488 0 l 1,24,-1
 412 0 l 1,25,-1
 412 100 l 1,26,-1
 375 100 l 1,27,-1
 375 200 l 1,28,29
 375 200 375 200 338 200 c 1,30,-1
 338 0 l 1,31,-1
 262 0 l 1,32,-1
 262 200 l 1,33,-1
 225 200 l 1,34,-1
 225 100 l 1,35,36
 225 100 225 100 188 100 c 1,37,-1
 188 0 l 1,38,-1
 112 0 l 1,39,-1
 112 100 l 1,40,-1
 150 100 l 1,41,-1
 150 200 l 1,42,-1
 188 200 l 1,43,-1
 188 300 l 1,44,-1
 150 300 l 1,45,-1
 150 400 l 1,46,-1
 112 400 l 1,47,-1
 112 500 l 1,0,-1
EndSplineSet
Validated: 1
EndChar

StartChar: uni0437
Encoding: 1079 1079 292
Width: 600
GlyphClass: 2
Flags: W
LayerCount: 2
Back
Fore
SplineSet
156 400 m 1,0,-1
 194 400 l 1,1,-1
 194 500 l 1,2,-1
 456 500 l 1,3,-1
 456 400 l 1,4,-1
 494 400 l 1,5,-1
 494 300 l 1,6,-1
 456 300 l 1,7,-1
 456 200 l 1,8,-1
 494 200 l 1,9,-1
 494 100 l 1,10,-1
 456 100 l 1,11,-1
 456 0 l 1,12,-1
 194 0 l 1,13,-1
 194 100 l 1,14,-1
 156 100 l 1,15,-1
 156 200 l 1,16,-1
 231 200 l 1,17,-1
 231 100 l 1,18,-1
 419 100 l 1,19,-1
 419 200 l 1,20,-1
 306 200 l 1,21,-1
 306 300 l 1,22,-1
 419 300 l 1,23,-1
 419 400 l 1,24,-1
 231 400 l 1,25,-1
 231 300 l 1,26,-1
 156 300 l 1,27,-1
 156 400 l 1,0,-1
EndSplineSet
Validated: 1
EndChar

StartChar: uni0438
Encoding: 1080 1080 293
Width: 600
GlyphClass: 2
Flags: W
LayerCount: 2
Back
Fore
SplineSet
156 0 m 1,0,-1
 156 500 l 1,1,-1
 231 500 l 1,2,-1
 231 100 l 1,3,-1
 269 100 l 1,4,-1
 269 200 l 1,5,-1
 306 200 l 1,6,-1
 306 300 l 1,7,-1
 344 300 l 1,8,-1
 344 400 l 1,9,-1
 381 400 l 1,10,-1
 381 500 l 1,11,-1
 494 500 l 1,12,-1
 494 0 l 1,13,-1
 419 0 l 1,14,-1
 419 400 l 1,15,-1
 381 400 l 1,16,-1
 381 300 l 1,17,-1
 344 300 l 1,18,-1
 344 200 l 1,19,-1
 306 200 l 1,20,-1
 306 100 l 1,21,-1
 269 100 l 1,22,-1
 269 0 l 1,23,-1
 156 0 l 1,0,-1
EndSplineSet
Validated: 5
EndChar

StartChar: uni0439
Encoding: 1081 1081 294
Width: 600
GlyphClass: 2
Flags: W
LayerCount: 2
Back
Fore
SplineSet
194 800 m 1,0,-1
 269 800 l 1,1,-1
 269 700 l 1,2,-1
 381 700 l 1,3,-1
 381 800 l 1,4,-1
 456 800 l 1,5,-1
 456 700 l 1,6,-1
 419 700 l 1,7,-1
 419 600 l 1,8,-1
 231 600 l 1,9,-1
 231 700 l 1,10,-1
 194 700 l 1,11,-1
 194 800 l 1,0,-1
156 0 m 1,12,-1
 156 500 l 1,13,-1
 231 500 l 1,14,-1
 231 100 l 1,15,-1
 269 100 l 1,16,-1
 269 200 l 1,17,-1
 306 200 l 1,18,-1
 306 300 l 1,19,-1
 344 300 l 1,20,-1
 344 400 l 1,21,-1
 381 400 l 1,22,-1
 381 500 l 1,23,-1
 494 500 l 1,24,-1
 494 0 l 1,25,-1
 419 0 l 1,26,-1
 419 400 l 1,27,-1
 381 400 l 1,28,-1
 381 300 l 1,29,-1
 344 300 l 1,30,-1
 344 200 l 1,31,-1
 306 200 l 1,32,-1
 306 100 l 1,33,-1
 269 100 l 1,34,-1
 269 0 l 1,35,-1
 156 0 l 1,12,-1
EndSplineSet
Validated: 5
EndChar

StartChar: uni043A
Encoding: 1082 1082 295
Width: 600
GlyphClass: 2
Flags: W
LayerCount: 2
Back
Fore
SplineSet
156 500 m 1,0,-1
 231 500 l 1,1,-1
 231 300 l 1,2,-1
 344 300 l 1,3,-1
 344 400 l 1,4,-1
 381 400 l 1,5,-1
 381 500 l 1,6,-1
 494 500 l 1,7,-1
 494 400 l 1,8,-1
 419 400 l 1,9,-1
 419 300 l 1,10,-1
 381 300 l 1,11,-1
 381 200 l 1,12,-1
 419 200 l 1,13,-1
 419 100 l 1,14,-1
 494 100 l 1,15,-1
 494 0 l 1,16,-1
 381 0 l 1,17,-1
 381 100 l 1,18,-1
 344 100 l 1,19,-1
 344 200 l 1,20,-1
 231 200 l 1,21,-1
 231 0 l 1,22,-1
 156 0 l 1,23,-1
 156 500 l 1,0,-1
EndSplineSet
Validated: 1
EndChar

StartChar: uni043B
Encoding: 1083 1083 296
Width: 600
GlyphClass: 2
Flags: W
LayerCount: 2
Back
Fore
SplineSet
156 100 m 1,0,-1
 194 100 l 1,1,-1
 194 400 l 1,2,-1
 231 400 l 1,3,-1
 231 500 l 1,4,-1
 494 500 l 1,5,-1
 494 0 l 1,6,-1
 419 0 l 1,7,-1
 419 400 l 1,8,-1
 269 400 l 1,9,-1
 269 100 l 1,10,-1
 231 100 l 1,11,-1
 231 0 l 1,12,-1
 156 0 l 1,13,-1
 156 100 l 1,0,-1
EndSplineSet
Validated: 1
EndChar

StartChar: uni043C
Encoding: 1084 1084 297
Width: 600
GlyphClass: 2
Flags: W
LayerCount: 2
Back
Fore
SplineSet
156 0 m 1,0,-1
 156 500 l 1,1,-1
 269 500 l 1,2,-1
 269 400 l 1,3,-1
 306 400 l 1,4,-1
 306 300 l 1,5,-1
 344 300 l 1,6,-1
 344 400 l 1,7,-1
 381 400 l 1,8,-1
 381 500 l 1,9,-1
 494 500 l 1,10,-1
 494 0 l 1,11,-1
 419 0 l 1,12,-1
 419 300 l 1,13,-1
 381 300 l 1,14,-1
 381 200 l 1,15,-1
 344 200 l 1,16,-1
 344 100 l 1,17,-1
 306 100 l 1,18,-1
 306 200 l 1,19,-1
 269 200 l 1,20,-1
 269 300 l 1,21,-1
 231 300 l 1,22,-1
 231 0 l 1,23,-1
 156 0 l 1,0,-1
EndSplineSet
Validated: 1
EndChar

StartChar: uni043D
Encoding: 1085 1085 298
Width: 600
GlyphClass: 2
Flags: W
LayerCount: 2
Back
Fore
SplineSet
150 500 m 1,0,-1
 225 500 l 1,1,-1
 225 300 l 1,2,-1
 375 300 l 1,3,-1
 375 500 l 1,4,-1
 450 500 l 1,5,-1
 450 0 l 1,6,-1
 375 0 l 1,7,-1
 375 200 l 1,8,-1
 225 200 l 1,9,-1
 225 0 l 1,10,-1
 150 0 l 1,11,-1
 150 500 l 1,0,-1
EndSplineSet
Validated: 1
EndChar

StartChar: uni043E
Encoding: 1086 1086 299
Width: 600
GlyphClass: 2
Flags: W
LayerCount: 2
Back
Fore
SplineSet
231 400 m 1,0,-1
 231 100 l 1,1,-1
 419 100 l 1,2,-1
 419 400 l 1,3,-1
 231 400 l 1,0,-1
194 500 m 1,4,-1
 456 500 l 1,5,-1
 456 400 l 1,6,-1
 494 400 l 1,7,-1
 494 100 l 1,8,-1
 456 100 l 1,9,-1
 456 0 l 1,10,-1
 194 0 l 1,11,-1
 194 100 l 1,12,-1
 156 100 l 1,13,-1
 156 400 l 1,14,-1
 194 400 l 1,15,-1
 194 500 l 1,4,-1
EndSplineSet
Validated: 1
EndChar

StartChar: uni043F
Encoding: 1087 1087 300
Width: 600
GlyphClass: 2
Flags: W
LayerCount: 2
Back
Fore
SplineSet
156 0 m 1,0,-1
 156 500 l 1,1,-1
 494 500 l 1,2,-1
 494 0 l 1,3,-1
 419 0 l 1,4,-1
 419 400 l 1,5,-1
 231 400 l 1,6,-1
 231 0 l 1,7,-1
 156 0 l 1,0,-1
EndSplineSet
Validated: 1
EndChar

StartChar: uni0440
Encoding: 1088 1088 301
Width: 600
GlyphClass: 2
Flags: W
LayerCount: 2
Back
Fore
SplineSet
269 300 m 1,0,-1
 231 300 l 1,1,-1
 231 200 l 1,2,-1
 269 200 l 1,3,-1
 269 100 l 1,4,-1
 419 100 l 1,5,-1
 419 400 l 1,6,-1
 269 400 l 1,7,-1
 269 300 l 1,0,-1
156 500 m 1,8,-1
 231 500 l 1,9,-1
 231 400 l 1,10,-1
 269 400 l 1,11,-1
 269 500 l 1,12,-1
 456 500 l 1,13,-1
 456 400 l 1,14,-1
 494 400 l 1,15,-1
 494 100 l 1,16,-1
 456 100 l 1,17,-1
 456 0 l 1,18,-1
 269 0 l 1,19,-1
 269 100 l 1,20,-1
 231 100 l 1,21,-1
 231 -200 l 1,22,-1
 156 -200 l 1,23,-1
 156 500 l 1,8,-1
EndSplineSet
Validated: 5
EndChar

StartChar: uni0441
Encoding: 1089 1089 302
Width: 600
GlyphClass: 2
Flags: W
LayerCount: 2
Back
Fore
SplineSet
231 500 m 1,0,-1
 494 500 l 1,1,-1
 494 400 l 1,2,-1
 269 400 l 1,3,-1
 269 300 l 1,4,-1
 231 300 l 1,5,-1
 231 200 l 1,6,-1
 269 200 l 1,7,-1
 269 100 l 1,8,-1
 494 100 l 1,9,-1
 494 0 l 1,10,-1
 231 0 l 1,11,-1
 231 100 l 1,12,-1
 194 100 l 1,13,-1
 194 200 l 1,14,-1
 156 200 l 1,15,-1
 156 300 l 1,16,-1
 194 300 l 1,17,-1
 194 400 l 1,18,-1
 231 400 l 1,19,-1
 231 500 l 1,0,-1
EndSplineSet
Validated: 1
EndChar

StartChar: uni0442
Encoding: 1090 1090 303
Width: 600
GlyphClass: 2
Flags: W
LayerCount: 2
Back
Fore
SplineSet
112 500 m 1,0,-1
 488 500 l 1,1,-1
 488 400 l 1,2,-1
 338 400 l 1,3,-1
 338 0 l 1,4,-1
 262 0 l 1,5,-1
 262 400 l 1,6,-1
 112 400 l 1,7,-1
 112 500 l 1,0,-1
EndSplineSet
Validated: 1
EndChar

StartChar: uni0443
Encoding: 1091 1091 304
Width: 600
GlyphClass: 2
Flags: W
LayerCount: 2
Back
Fore
SplineSet
156 500 m 1,0,-1
 231 500 l 1,1,-1
 231 400 l 1,2,-1
 269 400 l 1,3,-1
 269 300 l 1,4,-1
 306 300 l 1,5,-1
 306 200 l 1,6,-1
 344 200 l 1,7,-1
 344 300 l 1,8,-1
 381 300 l 1,9,-1
 381 400 l 1,10,-1
 419 400 l 1,11,-1
 419 500 l 1,12,-1
 494 500 l 1,13,-1
 494 400 l 1,14,-1
 456 400 l 1,15,-1
 456 300 l 1,16,-1
 419 300 l 1,17,-1
 419 200 l 1,18,-1
 381 200 l 1,19,-1
 381 100 l 1,20,-1
 344 100 l 1,21,-1
 344 0 l 1,22,-1
 306 0 l 1,23,-1
 306 -100 l 1,24,-1
 269 -100 l 1,25,-1
 269 -200 l 1,26,-1
 156 -200 l 1,27,-1
 156 -100 l 1,28,-1
 231 -100 l 1,29,-1
 231 0 l 1,30,-1
 269 0 l 1,31,-1
 269 200 l 1,32,-1
 231 200 l 1,33,-1
 231 300 l 1,34,-1
 194 300 l 1,35,-1
 194 400 l 1,36,-1
 156 400 l 1,37,-1
 156 500 l 1,0,-1
EndSplineSet
Validated: 1
EndChar

StartChar: uni0444
Encoding: 1092 1092 305
Width: 600
GlyphClass: 2
Flags: W
LayerCount: 2
Back
Fore
SplineSet
262 400 m 1,0,-1
 188 400 l 1,1,-1
 188 100 l 1,2,-1
 262 100 l 1,3,-1
 262 400 l 1,0,-1
338 400 m 1,4,-1
 338 100 l 1,5,-1
 412 100 l 1,6,-1
 412 400 l 1,7,-1
 338 400 l 1,4,-1
262 700 m 1,8,-1
 338 700 l 1,9,-1
 338 500 l 1,10,-1
 450 500 l 1,11,-1
 450 400 l 1,12,-1
 488 400 l 1,13,-1
 488 100 l 1,14,-1
 450 100 l 1,15,-1
 450 0 l 1,16,-1
 338 0 l 1,17,-1
 338 -200 l 1,18,-1
 262 -200 l 1,19,-1
 262 0 l 1,20,-1
 150 0 l 1,21,-1
 150 100 l 1,22,-1
 112 100 l 1,23,-1
 112 400 l 1,24,-1
 150 400 l 1,25,-1
 150 500 l 1,26,-1
 262 500 l 1,27,-1
 262 700 l 1,8,-1
EndSplineSet
Validated: 1
EndChar

StartChar: uni0445
Encoding: 1093 1093 306
Width: 600
GlyphClass: 2
Flags: W
LayerCount: 2
Back
Fore
SplineSet
112 500 m 1,0,-1
 225 500 l 1,1,-1
 225 400 l 1,2,3
 225 400 225 400 262 400 c 1,4,-1
 262 300 l 1,5,-1
 338 300 l 1,6,-1
 338 400 l 1,7,-1
 375 400 l 1,8,-1
 375 500 l 1,9,10
 375 500 375 500 488 500 c 1,11,-1
 488 400 l 1,12,-1
 412 400 l 1,13,-1
 412 300 l 1,14,-1
 375 300 l 1,15,-1
 375 200 l 1,16,17
 375 200 375 200 412 200 c 1,18,-1
 412 100 l 1,19,-1
 488 100 l 1,20,-1
 488 0 l 1,21,-1
 375 0 l 1,22,-1
 375 100 l 1,23,24
 375 100 375 100 338 100 c 1,25,-1
 338 200 l 1,26,-1
 262 200 l 1,27,-1
 262 100 l 1,28,-1
 225 100 l 1,29,-1
 225 0 l 1,30,31
 225 0 225 0 112 0 c 1,32,-1
 112 100 l 1,33,-1
 188 100 l 1,34,-1
 188 200 l 1,35,-1
 225 200 l 1,36,-1
 225 300 l 1,37,38
 225 300 225 300 188 300 c 1,39,-1
 188 400 l 1,40,-1
 112 400 l 1,41,-1
 112 500 l 1,0,-1
EndSplineSet
Validated: 1
EndChar

StartChar: uni0446
Encoding: 1094 1094 307
Width: 600
GlyphClass: 2
Flags: W
LayerCount: 2
Back
Fore
SplineSet
156 500 m 1,0,-1
 231 500 l 1,1,-1
 231 100 l 1,2,-1
 344 100 l 1,3,-1
 344 500 l 1,4,-1
 419 500 l 1,5,-1
 419 100 l 1,6,-1
 494 100 l 1,7,-1
 494 -100 l 1,8,-1
 419 -100 l 1,9,-1
 419 0 l 1,10,-1
 156 0 l 1,11,-1
 156 500 l 1,0,-1
EndSplineSet
Validated: 1
EndChar

StartChar: uni0447
Encoding: 1095 1095 308
Width: 600
GlyphClass: 2
Flags: W
LayerCount: 2
Back
Fore
SplineSet
156 500 m 1,0,-1
 231 500 l 1,1,-1
 231 300 l 1,2,-1
 419 300 l 1,3,-1
 419 500 l 1,4,-1
 494 500 l 1,5,-1
 494 0 l 1,6,-1
 419 0 l 1,7,-1
 419 200 l 1,8,-1
 194 200 l 1,9,-1
 194 300 l 1,10,-1
 156 300 l 1,11,-1
 156 500 l 1,0,-1
EndSplineSet
Validated: 1
EndChar

StartChar: uni0448
Encoding: 1096 1096 309
Width: 600
GlyphClass: 2
Flags: W
LayerCount: 2
Back
Fore
SplineSet
112 500 m 1,0,-1
 188 500 l 1,1,-1
 188 100 l 1,2,-1
 262 100 l 1,3,-1
 262 500 l 1,4,-1
 338 500 l 1,5,-1
 338 100 l 1,6,-1
 412 100 l 1,7,-1
 412 500 l 1,8,-1
 488 500 l 1,9,-1
 488 0 l 1,10,-1
 112 0 l 1,11,-1
 112 500 l 1,0,-1
EndSplineSet
Validated: 1
EndChar

StartChar: uni0449
Encoding: 1097 1097 310
Width: 600
GlyphClass: 2
Flags: W
LayerCount: 2
Back
Fore
SplineSet
119 500 m 1,0,-1
 194 500 l 1,1,-1
 194 100 l 1,2,-1
 269 100 l 1,3,-1
 269 500 l 1,4,-1
 344 500 l 1,5,-1
 344 100 l 1,6,-1
 419 100 l 1,7,-1
 419 500 l 1,8,-1
 494 500 l 1,9,-1
 494 100 l 1,10,-1
 531 100 l 1,11,-1
 531 -100 l 1,12,-1
 456 -100 l 1,13,-1
 456 0 l 1,14,-1
 119 0 l 1,15,-1
 119 500 l 1,0,-1
EndSplineSet
Validated: 1
EndChar

StartChar: uni044A
Encoding: 1098 1098 311
Width: 600
GlyphClass: 2
Flags: W
LayerCount: 2
Back
Fore
SplineSet
262 200 m 1,0,-1
 262 100 l 1,1,-1
 412 100 l 1,2,-1
 412 200 l 1,3,-1
 262 200 l 1,0,-1
112 500 m 1,4,-1
 262 500 l 1,5,-1
 262 300 l 1,6,-1
 450 300 l 1,7,-1
 450 200 l 1,8,-1
 488 200 l 1,9,-1
 488 100 l 1,10,-1
 450 100 l 1,11,-1
 450 0 l 1,12,-1
 188 0 l 1,13,-1
 188 400 l 1,14,-1
 112 400 l 1,15,-1
 112 500 l 1,4,-1
EndSplineSet
Validated: 1
EndChar

StartChar: uni044B
Encoding: 1099 1099 312
Width: 600
GlyphClass: 2
Flags: W
LayerCount: 2
Back
Fore
SplineSet
412 0 m 1,0,-1
 412 500 l 1,1,-1
 488 500 l 1,2,-1
 488 0 l 1,3,-1
 412 0 l 1,0,-1
188 200 m 1,4,-1
 188 100 l 1,5,-1
 300 100 l 1,6,-1
 300 200 l 1,7,-1
 188 200 l 1,4,-1
112 500 m 1,8,-1
 188 500 l 1,9,-1
 188 300 l 1,10,-1
 338 300 l 1,11,-1
 338 200 l 1,12,-1
 375 200 l 1,13,-1
 375 100 l 1,14,15
 375 100 375 100 338 100 c 1,16,-1
 338 0 l 1,17,-1
 112 0 l 1,18,-1
 112 500 l 1,8,-1
EndSplineSet
Validated: 1
EndChar

StartChar: uni044C
Encoding: 1100 1100 313
Width: 600
GlyphClass: 2
Flags: W
LayerCount: 2
Back
Fore
SplineSet
231 100 m 1,0,-1
 419 100 l 1,1,-1
 419 200 l 1,2,-1
 231 200 l 1,3,-1
 231 100 l 1,0,-1
156 500 m 1,4,-1
 231 500 l 1,5,-1
 231 300 l 1,6,-1
 456 300 l 1,7,-1
 456 200 l 1,8,-1
 494 200 l 1,9,-1
 494 100 l 1,10,-1
 456 100 l 1,11,-1
 456 0 l 1,12,-1
 156 0 l 1,13,-1
 156 500 l 1,4,-1
EndSplineSet
Validated: 1
EndChar

StartChar: uni044D
Encoding: 1101 1101 314
Width: 600
GlyphClass: 2
Flags: W
LayerCount: 2
Back
Fore
SplineSet
156 300 m 1,0,-1
 156 400 l 1,1,-1
 194 400 l 1,2,-1
 194 500 l 1,3,-1
 456 500 l 1,4,-1
 456 400 l 1,5,-1
 494 400 l 1,6,-1
 494 100 l 1,7,-1
 456 100 l 1,8,-1
 456 0 l 1,9,-1
 194 0 l 1,10,-1
 194 100 l 1,11,-1
 156 100 l 1,12,-1
 156 200 l 1,13,-1
 231 200 l 1,14,-1
 231 100 l 1,15,-1
 419 100 l 1,16,-1
 419 200 l 1,17,-1
 306 200 l 1,18,-1
 306 300 l 1,19,-1
 419 300 l 1,20,-1
 419 400 l 1,21,-1
 231 400 l 1,22,-1
 231 300 l 1,23,-1
 156 300 l 1,0,-1
EndSplineSet
Validated: 1
EndChar

StartChar: uni044E
Encoding: 1102 1102 315
Width: 600
GlyphClass: 2
Flags: W
LayerCount: 2
Back
Fore
SplineSet
344 100 m 1,0,-1
 419 100 l 1,1,-1
 419 400 l 1,2,-1
 344 400 l 1,3,-1
 344 100 l 1,0,-1
156 0 m 1,4,-1
 156 500 l 1,5,-1
 231 500 l 1,6,-1
 231 300 l 1,7,-1
 269 300 l 1,8,-1
 269 400 l 1,9,-1
 306 400 l 1,10,-1
 306 500 l 1,11,-1
 456 500 l 1,12,-1
 456 400 l 1,13,-1
 494 400 l 1,14,-1
 494 100 l 1,15,-1
 456 100 l 1,16,-1
 456 0 l 1,17,-1
 306 0 l 1,18,-1
 306 100 l 1,19,-1
 269 100 l 1,20,-1
 269 200 l 1,21,-1
 231 200 l 1,22,-1
 231 0 l 1,23,-1
 156 0 l 1,4,-1
EndSplineSet
Validated: 1
EndChar

StartChar: uni044F
Encoding: 1103 1103 316
Width: 600
GlyphClass: 2
Flags: W
LayerCount: 2
Back
Fore
SplineSet
181 400 m 1,0,-1
 181 300 l 1,1,-1
 369 300 l 1,2,-1
 369 400 l 1,3,-1
 181 400 l 1,0,-1
106 400 m 1,4,-1
 144 400 l 1,5,-1
 144 500 l 1,6,-1
 444 500 l 1,7,-1
 444 0 l 1,8,-1
 369 0 l 1,9,-1
 369 200 l 1,10,-1
 331 200 l 1,11,-1
 331 100 l 1,12,-1
 256 100 l 1,13,-1
 256 0 l 1,14,-1
 144 0 l 1,15,-1
 144 100 l 1,16,-1
 219 100 l 1,17,-1
 219 200 l 1,18,-1
 144 200 l 1,19,-1
 144 300 l 1,20,-1
 106 300 l 1,21,-1
 106 400 l 1,4,-1
EndSplineSet
Validated: 1
EndChar

StartChar: uni0450
Encoding: 1104 1104 317
Width: 600
GlyphClass: 2
Flags: W
LayerCount: 2
Back
Fore
SplineSet
231 400 m 1,0,-1
 231 300 l 1,1,-1
 419 300 l 1,2,-1
 419 400 l 1,3,-1
 231 400 l 1,0,-1
194 400 m 1,4,-1
 194 500 l 1,5,-1
 456 500 l 1,6,-1
 456 400 l 1,7,-1
 494 400 l 1,8,-1
 494 200 l 1,9,-1
 231 200 l 1,10,-1
 231 100 l 1,11,-1
 456 100 l 1,12,-1
 456 0 l 1,13,-1
 194 0 l 1,14,-1
 194 100 l 1,15,-1
 156 100 l 1,16,-1
 156 400 l 1,17,-1
 194 400 l 1,4,-1
EndSplineSet
Validated: 1
EndChar

StartChar: uni0451
Encoding: 1105 1105 318
Width: 600
GlyphClass: 2
Flags: W
LayerCount: 2
Back
Fore
SplineSet
381 700 m 1,0,-1
 456 700 l 1,1,-1
 456 600 l 1,2,-1
 381 600 l 1,3,-1
 381 700 l 1,0,-1
194 700 m 1,4,-1
 269 700 l 1,5,-1
 269 600 l 1,6,-1
 194 600 l 1,7,-1
 194 700 l 1,4,-1
231 400 m 1,8,-1
 231 300 l 1,9,-1
 419 300 l 1,10,-1
 419 400 l 1,11,-1
 231 400 l 1,8,-1
194 400 m 1,12,-1
 194 500 l 1,13,-1
 456 500 l 1,14,-1
 456 400 l 1,15,-1
 494 400 l 1,16,-1
 494 200 l 1,17,-1
 231 200 l 1,18,-1
 231 100 l 1,19,-1
 456 100 l 1,20,-1
 456 0 l 1,21,-1
 194 0 l 1,22,-1
 194 100 l 1,23,-1
 156 100 l 1,24,-1
 156 400 l 1,25,-1
 194 400 l 1,12,-1
EndSplineSet
Validated: 1
EndChar

StartChar: uni0452
Encoding: 1106 1106 319
Width: 600
GlyphClass: 2
Flags: W
LayerCount: 2
Back
Fore
SplineSet
144 0 m 1,0,-1
 144 500 l 1,1,-1
 69 500 l 1,2,-1
 69 600 l 1,3,-1
 144 600 l 1,4,-1
 144 700 l 1,5,-1
 219 700 l 1,6,-1
 219 600 l 1,7,-1
 331 600 l 1,8,-1
 331 500 l 1,9,-1
 219 500 l 1,10,-1
 219 400 l 1,11,-1
 444 400 l 1,12,-1
 444 300 l 1,13,-1
 481 300 l 1,14,-1
 481 0 l 1,15,-1
 444 0 l 1,16,-1
 444 -100 l 1,17,-1
 406 -100 l 1,18,-1
 406 -200 l 1,19,-1
 256 -200 l 1,20,-1
 256 -100 l 1,21,-1
 369 -100 l 1,22,-1
 369 0 l 1,23,-1
 406 0 l 1,24,-1
 406 300 l 1,25,-1
 219 300 l 1,26,-1
 219 0 l 1,27,-1
 144 0 l 1,0,-1
EndSplineSet
Validated: 1
EndChar

StartChar: uni0453
Encoding: 1107 1107 320
Width: 600
GlyphClass: 2
Flags: W
LayerCount: 2
Back
Fore
SplineSet
269 600 m 1,0,-1
 269 700 l 1,1,-1
 306 700 l 1,2,-1
 306 800 l 1,3,-1
 381 800 l 1,4,-1
 381 700 l 1,5,-1
 344 700 l 1,6,-1
 344 600 l 1,7,-1
 269 600 l 1,0,-1
156 0 m 1,8,-1
 156 500 l 1,9,-1
 494 500 l 1,10,-1
 494 401 l 1,11,-1
 231 400 l 1,12,-1
 231 0 l 1,13,-1
 156 0 l 1,8,-1
EndSplineSet
Validated: 1
EndChar

StartChar: uni0454
Encoding: 1108 1108 321
Width: 600
GlyphClass: 2
Flags: W
LayerCount: 2
Back
Fore
SplineSet
419 100 m 1,0,-1
 419 200 l 1,1,-1
 494 200 l 1,2,-1
 494 100 l 1,3,-1
 456 100 l 1,4,-1
 456 0 l 1,5,-1
 194 0 l 1,6,-1
 194 100 l 1,7,-1
 156 100 l 1,8,-1
 156 400 l 1,9,-1
 194 400 l 1,10,-1
 194 500 l 1,11,-1
 456 500 l 1,12,-1
 456 400 l 1,13,-1
 494 400 l 1,14,-1
 494 300 l 1,15,-1
 419 300 l 1,16,-1
 419 400 l 1,17,-1
 231 400 l 1,18,-1
 231 300 l 1,19,-1
 344 300 l 1,20,-1
 344 200 l 1,21,-1
 231 200 l 1,22,-1
 231 100 l 1,23,-1
 419 100 l 1,0,-1
EndSplineSet
Validated: 1
EndChar

StartChar: uni0455
Encoding: 1109 1109 322
Width: 600
GlyphClass: 2
Flags: W
LayerCount: 2
Back
Fore
SplineSet
456 400 m 1,0,-1
 231 400 l 1,1,-1
 231 300 l 1,2,-1
 456 300 l 1,3,-1
 456 200 l 1,4,-1
 494 200 l 1,5,-1
 494 100 l 1,6,-1
 456 100 l 1,7,-1
 456 0 l 1,8,-1
 194 0 l 1,9,-1
 194 100 l 1,10,-1
 419 100 l 1,11,-1
 419 200 l 1,12,-1
 194 200 l 1,13,-1
 194 300 l 1,14,-1
 156 300 l 1,15,-1
 156 400 l 1,16,-1
 194 400 l 1,17,-1
 194 500 l 1,18,-1
 456 500 l 1,19,-1
 456 400 l 1,0,-1
EndSplineSet
Validated: 1
EndChar

StartChar: uni0456
Encoding: 1110 1110 323
Width: 600
GlyphClass: 2
Flags: W
LayerCount: 2
Back
Fore
SplineSet
225 500 m 1,0,1
 225 500 225 500 338 500 c 1,2,-1
 337 100 l 1,3,4
 337 100 337 100 412 100 c 1,5,-1
 412 0 l 1,6,-1
 188 0 l 1,7,-1
 188 100 l 1,8,-1
 262 100 l 1,9,-1
 262 400 l 1,10,-1
 225 400 l 1,11,-1
 225 500 l 1,0,1
225 700 m 1,12,13
 225 700 225 700 338 700 c 1,14,-1
 338 600 l 1,15,-1
 225 600 l 1,16,-1
 225 700 l 1,12,13
EndSplineSet
Validated: 1
EndChar

StartChar: uni0457
Encoding: 1111 1111 324
Width: 600
GlyphClass: 2
Flags: W
LayerCount: 2
Back
Fore
SplineSet
225 500 m 1,0,1
 225 500 225 500 338 500 c 1,2,-1
 337 100 l 1,3,4
 337 100 337 100 412 100 c 1,5,-1
 412 0 l 1,6,-1
 188 0 l 1,7,-1
 188 100 l 1,8,-1
 262 100 l 1,9,-1
 262 400 l 1,10,-1
 225 400 l 1,11,-1
 225 500 l 1,0,1
225 700 m 1,12,13
 225 700 225 700 338 700 c 1,14,-1
 338 600 l 1,15,-1
 225 600 l 1,16,-1
 225 700 l 1,12,13
EndSplineSet
Validated: 1
EndChar

StartChar: uni0458
Encoding: 1112 1112 325
Width: 600
GlyphClass: 2
Flags: W
LayerCount: 2
Back
Fore
SplineSet
381 400 m 1,0,-1
 381 500 l 1,1,-1
 494 500 l 1,2,-1
 494 -100 l 1,3,-1
 456 -100 l 1,4,-1
 456 -200 l 1,5,-1
 194 -200 l 1,6,-1
 194 -100 l 1,7,-1
 156 -100 l 1,8,-1
 156 0 l 1,9,-1
 231 0 l 1,10,-1
 231 -100 l 1,11,-1
 419 -100 l 1,12,-1
 419 400 l 1,13,-1
 381 400 l 1,0,-1
381 700 m 1,14,-1
 493 700 l 1,15,-1
 494 600 l 1,16,-1
 381 600 l 1,17,-1
 381 700 l 1,14,-1
EndSplineSet
Validated: 1
EndChar

StartChar: uni0459
Encoding: 1113 1113 326
Width: 600
GlyphClass: 2
Flags: W
LayerCount: 2
Back
Fore
SplineSet
381 100 m 1,0,-1
 456 100 l 1,1,-1
 456 200 l 1,2,-1
 381 200 l 1,3,-1
 381 100 l 1,0,-1
119 100 m 1,4,-1
 156 100 l 1,5,-1
 156 400 l 1,6,-1
 194 400 l 1,7,-1
 194 500 l 1,8,-1
 381 500 l 1,9,-1
 381 300 l 1,10,-1
 494 300 l 1,11,-1
 494 200 l 1,12,-1
 531 200 l 1,13,-1
 531 100 l 1,14,-1
 494 100 l 1,15,-1
 494 0 l 1,16,-1
 306 0 l 1,17,-1
 306 400 l 1,18,-1
 231 400 l 1,19,-1
 231 100 l 1,20,-1
 194 100 l 1,21,-1
 194 0 l 1,22,-1
 119 0 l 1,23,-1
 119 100 l 1,4,-1
EndSplineSet
Validated: 1
EndChar

StartChar: uni045A
Encoding: 1114 1114 327
Width: 600
GlyphClass: 2
Flags: W
LayerCount: 2
Back
Fore
SplineSet
381 100 m 1,0,-1
 456 100 l 1,1,-1
 456 200 l 1,2,-1
 381 200 l 1,3,-1
 381 100 l 1,0,-1
119 0 m 1,4,-1
 119 500 l 1,5,-1
 194 500 l 1,6,-1
 194 300 l 1,7,-1
 306 300 l 1,8,-1
 306 500 l 1,9,-1
 381 500 l 1,10,-1
 381 300 l 1,11,-1
 494 300 l 1,12,-1
 494 200 l 1,13,-1
 531 200 l 1,14,-1
 531 100 l 1,15,-1
 494 100 l 1,16,-1
 494 0 l 1,17,-1
 306 0 l 1,18,-1
 306 200 l 1,19,-1
 194 200 l 1,20,-1
 194 0 l 1,21,-1
 119 0 l 1,4,-1
EndSplineSet
Validated: 1
EndChar

StartChar: uni045B
Encoding: 1115 1115 328
Width: 600
GlyphClass: 2
Flags: W
LayerCount: 2
Back
Fore
SplineSet
144 0 m 1,0,-1
 144 500 l 1,1,-1
 69 500 l 1,2,-1
 69 600 l 1,3,-1
 144 600 l 1,4,-1
 144 700 l 1,5,-1
 219 700 l 1,6,-1
 219 600 l 1,7,-1
 331 600 l 1,8,-1
 331 500 l 1,9,-1
 219 500 l 1,10,-1
 219 400 l 1,11,-1
 444 400 l 1,12,-1
 444 300 l 1,13,-1
 481 300 l 1,14,-1
 481 0 l 1,15,-1
 406 0 l 1,16,-1
 406 300 l 1,17,-1
 219 300 l 1,18,-1
 219 0 l 1,19,-1
 144 0 l 1,0,-1
EndSplineSet
Validated: 1
EndChar

StartChar: uni045C
Encoding: 1116 1116 329
Width: 600
GlyphClass: 2
Flags: W
LayerCount: 2
Back
Fore
SplineSet
269 600 m 1,0,-1
 269 700 l 1,1,-1
 306 700 l 1,2,-1
 306 800 l 1,3,-1
 381 800 l 1,4,-1
 381 700 l 1,5,-1
 344 700 l 1,6,-1
 344 600 l 1,7,-1
 269 600 l 1,0,-1
156 500 m 1,8,-1
 231 500 l 1,9,-1
 231 300 l 1,10,-1
 344 300 l 1,11,-1
 344 400 l 1,12,-1
 381 400 l 1,13,-1
 381 500 l 1,14,-1
 494 500 l 1,15,-1
 494 400 l 1,16,-1
 419 400 l 1,17,-1
 419 300 l 1,18,-1
 381 300 l 1,19,-1
 381 200 l 1,20,-1
 419 200 l 1,21,-1
 419 100 l 1,22,-1
 494 100 l 1,23,-1
 494 0 l 1,24,-1
 381 0 l 1,25,-1
 381 100 l 1,26,-1
 344 100 l 1,27,-1
 344 200 l 1,28,-1
 231 200 l 1,29,-1
 231 0 l 1,30,-1
 156 0 l 1,31,-1
 156 500 l 1,8,-1
EndSplineSet
Validated: 1
EndChar

StartChar: uni045D
Encoding: 1117 1117 330
Width: 600
GlyphClass: 2
Flags: W
LayerCount: 2
Back
Fore
SplineSet
306 600 m 1,0,-1
 306 700 l 1,1,-1
 269 700 l 1,2,-1
 269 800 l 1,3,-1
 344 800 l 1,4,-1
 344 700 l 1,5,-1
 381 700 l 1,6,-1
 381 600 l 1,7,-1
 306 600 l 1,0,-1
156 0 m 1,8,-1
 156 500 l 1,9,-1
 231 500 l 1,10,-1
 231 100 l 1,11,-1
 269 100 l 1,12,-1
 269 200 l 1,13,-1
 306 200 l 1,14,-1
 306 300 l 1,15,-1
 344 300 l 1,16,-1
 344 400 l 1,17,-1
 381 400 l 1,18,-1
 381 500 l 1,19,-1
 494 500 l 1,20,-1
 494 0 l 1,21,-1
 419 0 l 1,22,-1
 419 400 l 1,23,-1
 381 400 l 1,24,-1
 381 300 l 1,25,-1
 344 300 l 1,26,-1
 344 200 l 1,27,-1
 306 200 l 1,28,-1
 306 100 l 1,29,-1
 269 100 l 1,30,-1
 269 0 l 1,31,-1
 156 0 l 1,8,-1
EndSplineSet
Validated: 5
EndChar

StartChar: uni045E
Encoding: 1118 1118 331
Width: 600
GlyphClass: 2
Flags: W
LayerCount: 2
Back
Fore
SplineSet
194 800 m 1,0,-1
 269 800 l 1,1,-1
 269 700 l 1,2,-1
 381 700 l 1,3,-1
 381 800 l 1,4,-1
 456 800 l 1,5,-1
 456 700 l 1,6,-1
 419 700 l 1,7,-1
 419 600 l 1,8,-1
 231 600 l 1,9,-1
 231 700 l 1,10,-1
 194 700 l 1,11,-1
 194 800 l 1,0,-1
156 500 m 1,12,-1
 231 500 l 1,13,-1
 231 400 l 1,14,-1
 269 400 l 1,15,-1
 269 300 l 1,16,-1
 306 300 l 1,17,-1
 306 200 l 1,18,-1
 344 200 l 1,19,-1
 344 300 l 1,20,-1
 381 300 l 1,21,-1
 381 400 l 1,22,-1
 419 400 l 1,23,-1
 419 500 l 1,24,-1
 494 500 l 1,25,-1
 494 400 l 1,26,-1
 456 400 l 1,27,-1
 456 300 l 1,28,-1
 419 300 l 1,29,-1
 419 200 l 1,30,-1
 381 200 l 1,31,-1
 381 100 l 1,32,-1
 344 100 l 1,33,-1
 344 0 l 1,34,-1
 306 0 l 1,35,-1
 306 -100 l 1,36,-1
 269 -100 l 1,37,-1
 269 -200 l 1,38,-1
 156 -200 l 1,39,-1
 156 -100 l 1,40,-1
 231 -100 l 1,41,-1
 231 0 l 1,42,-1
 269 0 l 1,43,-1
 269 200 l 1,44,-1
 231 200 l 1,45,-1
 231 300 l 1,46,-1
 194 300 l 1,47,-1
 194 400 l 1,48,-1
 156 400 l 1,49,-1
 156 500 l 1,12,-1
EndSplineSet
Validated: 1
EndChar

StartChar: uni045F
Encoding: 1119 1119 332
Width: 600
GlyphClass: 2
Flags: W
LayerCount: 2
Back
Fore
SplineSet
162 500 m 1,0,-1
 238 500 l 1,1,-1
 238 100 l 1,2,-1
 462 100 l 1,3,-1
 462 500 l 1,4,-1
 538 500 l 1,5,-1
 538 0 l 1,6,-1
 388 0 l 1,7,-1
 388 -200 l 1,8,-1
 312 -200 l 1,9,-1
 312 0 l 1,10,-1
 162 0 l 1,11,-1
 162 500 l 1,0,-1
EndSplineSet
Validated: 1
EndChar

StartChar: uni0490
Encoding: 1168 1168 333
Width: 600
GlyphClass: 2
Flags: W
LayerCount: 2
Back
Fore
SplineSet
156 0 m 1,0,-1
 156 700 l 1,1,-1
 419 700 l 1,2,-1
 419 800 l 1,3,-1
 494 800 l 1,4,-1
 494 600 l 1,5,-1
 231 600 l 1,6,-1
 231 0 l 1,7,-1
 156 0 l 1,0,-1
EndSplineSet
Validated: 1
EndChar

StartChar: uni0491
Encoding: 1169 1169 334
Width: 600
GlyphClass: 2
Flags: W
LayerCount: 2
Back
Fore
SplineSet
156 0 m 1,0,-1
 156 500 l 1,1,-1
 419 500 l 1,2,-1
 419 600 l 1,3,-1
 494 600 l 1,4,-1
 494 400 l 1,5,-1
 231 400 l 1,6,-1
 231 0 l 1,7,-1
 156 0 l 1,0,-1
EndSplineSet
Validated: 1
EndChar

StartChar: quoteright
Encoding: 8217 8217 335
Width: 600
GlyphClass: 2
Flags: W
LayerCount: 2
Back
Fore
SplineSet
219 400 m 1,0,-1
 219 500 l 1,1,-1
 256 500 l 1,2,-1
 256 600 l 1,3,-1
 219 600 l 1,4,-1
 219 700 l 1,5,-1
 331 700 l 1,6,-1
 331 500 l 1,7,-1
 294 500 l 1,8,-1
 294 400 l 1,9,-1
 219 400 l 1,0,-1
EndSplineSet
Validated: 1
EndChar

StartChar: quotedblright
Encoding: 8221 8221 336
Width: 600
GlyphClass: 2
Flags: W
LayerCount: 2
Back
Fore
SplineSet
338 400 m 1,0,-1
 338 500 l 1,1,-1
 375 500 l 1,2,-1
 375 600 l 1,3,4
 375 600 375 600 338 600 c 1,5,-1
 338 700 l 1,6,-1
 450 700 l 1,7,-1
 450 500 l 1,8,-1
 412 500 l 1,9,-1
 412 400 l 1,10,-1
 338 400 l 1,0,-1
150 600 m 1,11,-1
 150 700 l 1,12,-1
 262 700 l 1,13,-1
 262 500 l 1,14,-1
 225 500 l 1,15,-1
 225 400 l 1,16,-1
 150 400 l 1,17,-1
 150 500 l 1,18,-1
 188 500 l 1,19,-1
 188 600 l 1,20,-1
 150 600 l 1,11,-1
EndSplineSet
Validated: 1
EndChar

StartChar: minute
Encoding: 8242 8242 337
Width: 600
GlyphClass: 2
Flags: W
LayerCount: 2
Back
Fore
SplineSet
219 400 m 1,0,-1
 219 500 l 1,1,-1
 256 500 l 1,2,-1
 256 600 l 1,3,-1
 219 600 l 1,4,-1
 219 700 l 1,5,-1
 331 700 l 1,6,-1
 331 500 l 1,7,-1
 294 500 l 1,8,-1
 294 400 l 1,9,-1
 219 400 l 1,0,-1
EndSplineSet
Validated: 1
EndChar

StartChar: second
Encoding: 8243 8243 338
Width: 600
GlyphClass: 2
Flags: W
LayerCount: 2
Back
Fore
SplineSet
338 400 m 1,0,-1
 338 500 l 1,1,-1
 375 500 l 1,2,-1
 375 600 l 1,3,4
 375 600 375 600 338 600 c 1,5,-1
 338 700 l 1,6,-1
 450 700 l 1,7,-1
 450 500 l 1,8,-1
 412 500 l 1,9,-1
 412 400 l 1,10,-1
 338 400 l 1,0,-1
150 600 m 1,11,-1
 150 700 l 1,12,-1
 262 700 l 1,13,-1
 262 500 l 1,14,-1
 225 500 l 1,15,-1
 225 400 l 1,16,-1
 150 400 l 1,17,-1
 150 500 l 1,18,-1
 188 500 l 1,19,-1
 188 600 l 1,20,-1
 150 600 l 1,11,-1
EndSplineSet
Validated: 1
EndChar

StartChar: Euro
Encoding: 8364 8364 339
Width: 600
GlyphClass: 2
Flags: W
LayerCount: 2
Back
Fore
SplineSet
262 500 m 1,0,-1
 375 500 l 1,1,-1
 375 400 l 1,2,-1
 225 400 l 1,3,-1
 225 300 l 1,4,-1
 375 300 l 1,5,-1
 375 200 l 1,6,7
 375 200 375 200 262 200 c 1,8,-1
 262 100 l 1,9,-1
 412 100 l 1,10,-1
 412 200 l 1,11,-1
 488 200 l 1,12,-1
 488 100 l 1,13,-1
 450 100 l 1,14,-1
 450 0 l 1,15,-1
 225 0 l 1,16,-1
 225 100 l 1,17,18
 225 100 225 100 188 100 c 1,19,-1
 188 200 l 1,20,-1
 112 200 l 1,21,-1
 112 300 l 1,22,-1
 150 300 l 1,23,-1
 150 400 l 1,24,-1
 112 400 l 1,25,-1
 112 500 l 1,26,-1
 188 500 l 1,27,-1
 188 600 l 1,28,-1
 225 600 l 1,29,-1
 225 700 l 1,30,-1
 450 700 l 1,31,-1
 450 600 l 1,32,-1
 488 600 l 1,33,-1
 488 500 l 1,34,-1
 412 500 l 1,35,-1
 412 600 l 1,36,-1
 262 600 l 1,37,-1
 262 500 l 1,0,-1
EndSplineSet
Validated: 1
EndChar

StartChar: uni20B4
Encoding: 8372 8372 340
Width: 600
GlyphClass: 2
Flags: W
LayerCount: 2
Back
Fore
SplineSet
156 500 m 1,0,-1
 156 600 l 1,1,-1
 194 600 l 1,2,-1
 194 700 l 1,3,-1
 456 700 l 1,4,-1
 456 600 l 1,5,-1
 494 600 l 1,6,-1
 494 400 l 1,7,-1
 456 400 l 1,8,-1
 456 300 l 1,9,-1
 231 300 l 1,10,-1
 231 100 l 1,11,-1
 419 100 l 1,12,-1
 419 200 l 1,13,-1
 494 200 l 1,14,-1
 494 100 l 1,15,-1
 456 100 l 1,16,-1
 456 0 l 1,17,-1
 194 0 l 1,18,-1
 194 100 l 1,19,-1
 156 100 l 1,20,-1
 156 300 l 1,21,-1
 194 300 l 1,22,-1
 194 400 l 1,23,-1
 419 400 l 1,24,-1
 419 600 l 1,25,-1
 231 600 l 1,26,-1
 231 500 l 1,27,-1
 156 500 l 1,0,-1
EndSplineSet
Validated: 1
EndChar

StartChar: uni20B8
Encoding: 8376 8376 341
Width: 600
GlyphClass: 2
Flags: W
LayerCount: 2
Back
Fore
SplineSet
112 500 m 1,0,-1
 488 500 l 1,1,-1
 488 400 l 1,2,-1
 338 400 l 1,3,-1
 338 0 l 1,4,-1
 262 0 l 1,5,-1
 262 400 l 1,6,-1
 112 400 l 1,7,-1
 112 500 l 1,0,-1
112 600 m 1,8,-1
 112 700 l 1,9,-1
 488 700 l 1,10,-1
 488 600 l 1,11,-1
 112 600 l 1,8,-1
EndSplineSet
Validated: 1
EndChar

StartChar: uni20BD
Encoding: 8381 8381 342
Width: 600
GlyphClass: 2
Flags: W
LayerCount: 2
Back
Fore
SplineSet
219 400 m 1,0,-1
 406 400 l 1,1,-1
 406 600 l 1,2,-1
 219 600 l 1,3,-1
 219 400 l 1,0,-1
144 700 m 1,4,-1
 444 700 l 1,5,-1
 444 650 l 1,6,-1
 481 650 l 1,7,-1
 481 400 l 1,8,-1
 444 400 l 1,9,-1
 444 300 l 1,10,-1
 219 300 l 1,11,-1
 219 250 l 1,12,-1
 369 250 l 1,13,-1
 369 150 l 1,14,-1
 219 150 l 1,15,-1
 219 0 l 1,16,-1
 144 0 l 1,17,-1
 144 150 l 1,18,-1
 69 150 l 1,19,-1
 69 250 l 1,20,-1
 144 250 l 1,21,-1
 144 300 l 1,22,-1
 69 300 l 1,23,-1
 69 400 l 1,24,-1
 144 400 l 1,25,-1
 144 700 l 1,4,-1
EndSplineSet
Validated: 1
EndChar

StartChar: uni2116
Encoding: 8470 8470 343
Width: 600
GlyphClass: 2
Flags: W
LayerCount: 2
Back
Fore
SplineSet
338 300 m 1,0,-1
 525 300 l 1,1,-1
 525 200 l 1,2,3
 525 200 525 200 338 200 c 1,4,-1
 338 300 l 1,0,-1
412 600 m 1,5,-1
 412 500 l 1,6,-1
 450 500 l 1,7,-1
 450 600 l 1,8,-1
 412 600 l 1,5,-1
375 600 m 1,9,-1
 375 700 l 1,10,11
 375 700 375 700 488 700 c 1,12,-1
 488 600 l 1,13,-1
 525 600 l 1,14,-1
 525 500 l 1,15,16
 525 500 525 500 488 500 c 1,17,-1
 488 400 l 1,18,-1
 375 400 l 1,19,-1
 375 500 l 1,20,21
 375 500 375 500 338 500 c 1,22,-1
 338 600 l 1,23,-1
 375 600 l 1,9,-1
75 0 m 1,24,-1
 75 700 l 1,25,-1
 150 700 l 1,26,-1
 150 600 l 1,27,-1
 188 600 l 1,28,-1
 188 400 l 1,29,-1
 225 400 l 1,30,-1
 225 700 l 1,31,-1
 300 700 l 1,32,-1
 300 0 l 1,33,-1
 225 0 l 1,34,-1
 225 100 l 1,35,36
 225 100 225 100 188 100 c 1,37,-1
 188 250 l 1,38,-1
 150 250 l 1,39,-1
 150 0 l 1,40,-1
 75 0 l 1,24,-1
EndSplineSet
Validated: 1
EndChar

StartChar: trademark
Encoding: 8482 8482 344
Width: 1200
GlyphClass: 2
Flags: W
LayerCount: 2
Back
Fore
SplineSet
606 400 m 1,0,-1
 606 700 l 1,1,-1
 719 700 l 1,2,-1
 719 600 l 1,3,-1
 794 600 l 1,4,-1
 794 700 l 1,5,-1
 906 700 l 1,6,-1
 906 400 l 1,7,-1
 831 400 l 1,8,-1
 831 600 l 1,9,-1
 794 600 l 1,10,-1
 794 500 l 1,11,-1
 719 500 l 1,12,-1
 719 600 l 1,13,-1
 681 600 l 1,14,-1
 681 400 l 1,15,-1
 606 400 l 1,0,-1
344 600 m 1,16,-1
 344 701 l 1,17,-1
 569 700 l 1,18,-1
 569 600 l 1,19,-1
 494 600 l 1,20,-1
 494 400 l 1,21,-1
 419 400 l 1,22,-1
 419 600 l 1,23,-1
 344 600 l 1,16,-1
EndSplineSet
Validated: 5
EndChar

StartChar: uni2139
Encoding: 8505 8505 345
Width: 1200
GlyphClass: 2
Flags: W
LayerCount: 2
Back
Fore
SplineSet
612 100 m 1,0,-1
 612 400 l 1,1,-1
 688 400 l 1,2,-1
 688 100 l 1,3,-1
 612 100 l 1,0,-1
612 500 m 1,4,-1
 612 600 l 1,5,-1
 688 600 l 1,6,-1
 688 500 l 1,7,-1
 612 500 l 1,4,-1
875 600 m 1,8,9
 875 600 875 600 838 600 c 1,10,-1
 838 700 l 1,11,-1
 462 700 l 1,12,-1
 462 600 l 1,13,-1
 425 600 l 1,14,-1
 425 100 l 1,15,16
 425 100 425 100 462 100 c 1,17,-1
 462 0 l 1,18,-1
 838 0 l 1,19,-1
 838 100 l 1,20,-1
 875 100 l 1,21,-1
 875 600 l 1,8,9
350 100 m 1,22,-1
 350 600 l 1,23,-1
 388 600 l 1,24,-1
 388 700 l 1,25,-1
 425 700 l 1,26,-1
 425 800 l 1,27,-1
 875 800 l 1,28,-1
 875 700 l 1,29,30
 875 700 875 700 912 700 c 1,31,-1
 912 600 l 1,32,-1
 950 600 l 1,33,-1
 950 100 l 1,34,-1
 912 100 l 1,35,-1
 912 0 l 1,36,-1
 875 0 l 1,37,-1
 875 -100 l 1,38,-1
 425 -100 l 1,39,-1
 425 0 l 1,40,41
 425 0 425 0 388 0 c 1,42,-1
 388 100 l 1,43,-1
 350 100 l 1,22,-1
EndSplineSet
Validated: 1
EndChar

